<?xml version="1.0" standalone="no"?>
<!DOCTYPE svg PUBLIC "-//W3C//DTD SVG 1.1//EN" "http://www.w3.org/Graphics/SVG/1.1/DTD/svg11.dtd" >
<svg xmlns="http://www.w3.org/2000/svg" xmlns:xlink="http://www.w3.org/1999/xlink" version="1.1">
<metadata>
Created by FontForge 20161116 at Thu Jul  3 05:56:04 2014
 By Jimmy Wärting
Copyright (c) 1992 Adobe Systems Incorporated.  All Rights Reserved.Myriad is a trademark of Adobe Systems Incorporated.
</metadata>
<defs>
<font id="MyriadSetPro-Thin" horiz-adv-x="0" >
  <font-face 
    font-family="Myriad Set Pro"
    font-weight="300"
    font-stretch="normal"
    units-per-em="1000"
    panose-1="2 0 2 3 5 0 0 2 0 4"
    ascent="800"
    descent="-200"
    x-height="480"
    cap-height="674"
    bbox="-450 -349 1125 1093"
    underline-thickness="50"
    underline-position="-100"
    unicode-range="U+000A-FB06"
  />
<missing-glyph horiz-adv-x="500" 
d="M63 0v750h375v-750h-375zM125 63h250v625h-250v-625z" />
    <glyph glyph-name="ff" unicode="ff" horiz-adv-x="514" 
d="M278 720q66 0 126 -28q35 28 93 28q23 0 41 -5t29 -12l-15 -37q-10 5 -24 9t-35 4q-34 0 -54.5 -14t-32 -37t-15.5 -54.5t-4 -65.5v-28h126v-38h-126v-442h-47v442h-210v-442h-47v442h-69v38h69v28q0 100 52 156t143 56zM340 507q0 45 7.5 83t25.5 67q-18 9 -45 15.5
t-56 6.5q-38 0 -65 -13t-44 -36.5t-25 -54.5t-8 -67v-28h210v27z" />
    <glyph glyph-name="ffi" unicode="ffi" horiz-adv-x="734" 
d="M278 720q66 0 126 -28l2 -8q8 6 16.5 11t17.5 9q33 16 82 16q31 0 61.5 -10t46.5 -23l-22 -37q-15 11 -40 20t-55 9q-56 0 -83.5 -29.5t-36.5 -75.5q-5 -26 -6 -53v-13v-28h267v-480h-47v442h-220v-442h-47v442h-210v-442h-47v442h-69v38h69v28q0 100 52 156t143 56z
M340 511v11v11q1 15 3 29l4 28q8 38 26 67q-18 9 -45 15.5t-56 6.5q-38 0 -65 -13t-44 -36.5t-25 -54.5t-8 -67v-28h210v31z" />
    <glyph glyph-name="ffl" unicode="ffl" horiz-adv-x="734" 
d="M130 0h-47v442h-69v38h69v28q0 100 53 156t147 56q78 0 142 -29q22 14 49.5 21.5t63.5 7.5q33 0 64 -7.5t52 -19.5v-693h-47v664q-13 7 -32 11t-48 4q-40 0 -67 -14t-43 -37.5t-23 -54.5t-7 -64v-29h126v-38h-126v-442h-47v442h-210v-442zM340 502q0 100 48 157
q-19 8 -47.5 14t-63.5 6q-40 0 -68 -13t-45.5 -36.5t-25.5 -54.5t-8 -67v-28h210v22z" />
    <glyph glyph-name="fi" unicode="fi" horiz-adv-x="477" 
d="M83 0v442h-69v38h69v31q0 45 10.5 83.5t33 66.5t57 43.5t81.5 15.5q31 0 61.5 -10t46.5 -23l-22 -37q-15 11 -40 20t-55 9q-37 0 -61.5 -13.5t-38.5 -37t-20 -54.5t-6 -66v-28h267v-480h-47v442h-220v-442h-47z" />
    <glyph glyph-name="fl" unicode="fl" horiz-adv-x="477" 
d="M83 0v442h-69v38h69v22q0 114 63 173q24 21 56.5 33t78.5 12q33 0 64 -7.5t52 -19.5v-693h-47v664q-13 7 -32 11t-48 4q-40 0 -67 -14t-43 -37.5t-23 -54.5t-7 -64v-29h126v-38h-126v-442h-47z" />
    <glyph glyph-name=".notdef" horiz-adv-x="500" 
d="M63 0v750h375v-750h-375zM125 63h250v625h-250v-625z" />
    <glyph glyph-name="space" unicode=" " horiz-adv-x="214" 
 />
    <glyph glyph-name="exclam" unicode="!" horiz-adv-x="206" 
d="M82 176l-9 498h58l-9 -498h-40zM102 -11q-18 0 -28.5 12t-10.5 32t11.5 32t28.5 12q18 0 28.5 -12t10.5 -32t-11.5 -32t-28.5 -12z" />
    <glyph glyph-name="quotedbl" unicode="&#x22;" horiz-adv-x="300" 
d="M117 691l-13 -220h-32l-12 220h57zM240 691l-12 -220h-32l-13 220h57z" />
    <glyph glyph-name="numbersign" unicode="#" horiz-adv-x="458" 
d="M274 245l20 165h-109l-21 -165h110zM92 0l26 206h-82v39h87l21 165h-87v38h92l26 202h40l-25 -202h110l26 202h40l-26 -202h82v-38h-87l-20 -165h87v-38h-92l-26 -207h-42l26 207h-109l-26 -207h-41z" />
    <glyph glyph-name="dollar" unicode="$" horiz-adv-x="479" 
d="M210 -84v103q-39 0 -77 12t-63 32l20 37q24 -18 57.5 -30.5t70.5 -12.5q30 0 54 9.5t41 25.5t26.5 38t9.5 47q0 50 -30 82t-85 58q-72 31 -113 68.5t-41 98.5q0 30 10 55.5t28.5 45t43.5 32.5t55 17v104h41v-102q42 -2 70.5 -12.5t47.5 -23.5l-21 -37q-14 9 -42.5 21.5
t-71.5 12.5q-31 0 -53 -9.5t-36 -25t-20.5 -34t-6.5 -36.5q0 -24 7.5 -42t22.5 -33t38.5 -28.5t55.5 -28.5q69 -32 107.5 -72t38.5 -106q0 -29 -9.5 -55.5t-27.5 -48.5t-45 -37t-62 -21v-104h-41z" />
    <glyph glyph-name="percent" unicode="%" horiz-adv-x="730" 
d="M152 -13l385 676h40l-385 -676h-40zM565 391q57 0 95 -47t38 -147q0 -52 -11 -90t-30 -63t-44.5 -37.5t-53.5 -12.5q-26 0 -50.5 11.5t-43 35.5t-30 60.5t-11.5 87.5q0 52 12 90t31.5 63t45 37t52.5 12zM561 357q-23 0 -40.5 -13t-29.5 -35.5t-18.5 -52.5t-6.5 -63
q-1 -34 5 -64t18.5 -52.5t30.5 -35.5t40 -13q25 0 43.5 13.5t30 36t17 53t5.5 64.5q0 31 -5 60.5t-16.5 52t-29.5 36t-44 13.5zM174 661q57 0 95 -47t38 -147q0 -52 -11 -90t-30 -63t-44.5 -37.5t-53.5 -12.5q-26 0 -50.5 11.5t-43 35.5t-30 60.5t-11.5 87.5q0 52 12 90
t31.5 63t45 37t52.5 12zM170 627q-23 0 -40.5 -13t-29.5 -35.5t-18.5 -52.5t-6.5 -63q-1 -34 5 -64t18.5 -52.5t30.5 -35.5t40 -13q25 0 43.5 13.5t30 36t17 53t5.5 64.5q0 31 -5 60.5t-16.5 52t-29.5 36t-44 13.5z" />
    <glyph glyph-name="ampersand" unicode="&#x26;" horiz-adv-x="553" 
d="M492 0l-32 34t-40 42q-51 -48 -99 -67.5t-102 -19.5q-41 0 -75.5 14.5t-59.5 40t-39 60t-14 73.5q0 69 37.5 117t94.5 82v3q-28 38 -43 74.5t-15 72.5q0 30 10 59t29 51t47 35.5t64 13.5q26 0 49 -9.5t40 -26.5t27 -42t10 -56q0 -54 -35 -97.5t-119 -86.5v-3
q25 -29 51 -59.5t51.5 -60t48.5 -56.5t42 -49q25 39 41 92t27 125h45q-13 -81 -33 -142t-54 -103l50 -52t56 -59h-60zM229 28q52 0 93.5 21.5t70.5 55.5q-15 18 -38 44.5t-51 58t-58.5 66.5t-61.5 72q-16 -10 -34.5 -24.5t-34 -34.5t-26 -46t-10.5 -58q0 -33 11 -61.5
t31 -49.5t47.5 -32.5t60.5 -11.5zM247 646q-24 0 -42 -9.5t-30 -25t-18 -36.5t-6 -44q0 -43 16.5 -75t36.5 -61q60 32 96.5 66.5t36.5 85.5q0 18 -5 35.5t-15.5 32t-28 23t-41.5 8.5z" />
    <glyph glyph-name="quotesingle" unicode="'" horiz-adv-x="177" 
d="M117 691l-13 -220h-32l-12 220h57z" />
    <glyph glyph-name="parenleft" unicode="(" horiz-adv-x="264" 
d="M251 696q-61 -76 -99.5 -175.5t-38.5 -236.5q0 -68 10.5 -125.5t29 -107t44 -92.5t54.5 -82h-44q-26 31 -51 71t-44.5 90.5t-31.5 111.5t-12 135t12 135.5t31.5 111.5t44.5 90.5t51 73.5h44z" />
    <glyph glyph-name="parenright" unicode=")" horiz-adv-x="264" 
d="M13 -123q29 38 54 81.5t43.5 94t29 108.5t10.5 126t-10.5 126t-28.5 108t-43 93t-55 82h44q25 -32 50 -72t44.5 -90t32 -111t12.5 -136q0 -74 -12.5 -135t-32 -111t-44.5 -90.5t-50 -73.5h-44z" />
    <glyph glyph-name="asterisk" unicode="*" horiz-adv-x="389" 
d="M302 661l-88 -123v-2l145 12v-47l-144 12v-2l88 -118l-46 -26l-63 131h-2l-68 -132l-39 26l87 120v2l-142 -13v47l140 -11v2l-85 120l43 25l66 -132h2l62 133z" />
    <glyph glyph-name="plus" unicode="+" horiz-adv-x="596" 
d="M319 532v-245h237v-40h-237v-247h-42v247h-237v40h237v245h42z" />
    <glyph glyph-name="comma" unicode="," horiz-adv-x="173" 
d="M25 -126q6 15 13.5 41.5t15 56.5t14 60.5t9.5 53.5l63 10q-7 -28 -17.5 -61.5t-22 -64.5t-21.5 -56t-16 -35z" />
    <glyph glyph-name="hyphen" unicode="-" horiz-adv-x="297" 
d="M267 294v-41h-237v41h237z" />
    <glyph glyph-name="period" unicode="." horiz-adv-x="173" 
d="M93 -11q-18 0 -29 13t-11 32t11.5 32t29.5 13t29 -13t11 -32q0 -20 -11.5 -32.5t-29.5 -12.5z" />
    <glyph glyph-name="slash" unicode="/" horiz-adv-x="346" 
d="M-9 -40l311 725h48l-313 -725h-46z" />
    <glyph glyph-name="zero" unicode="0" horiz-adv-x="479" 
d="M37 322q0 89 17.5 153t47 105.5t67 61t78.5 19.5q42 0 77.5 -19.5t62 -60t41 -102t14.5 -146.5q0 -175 -56 -259.5t-153 -84.5q-42 0 -78 22.5t-62.5 65t-41 104.5t-14.5 141zM86 328q-1 -67 9 -122t30 -94.5t48.5 -61t64.5 -21.5q51 0 81.5 32t47 78t21.5 98t5 91
q0 64 -9 117.5t-27.5 92.5t-48 61t-69.5 22q-35 0 -63 -21.5t-48 -60.5t-31 -93t-11 -118z" />
    <glyph glyph-name="one" unicode="1" horiz-adv-x="479" 
d="M233 601h-2l-106 -62l-12 37l124 74h42v-650h-46v601z" />
    <glyph glyph-name="two" unicode="2" horiz-adv-x="479" 
d="M45 0v29l60 63q65 64 112.5 115.5t79 96.5t47 86t15.5 83q0 28 -6.5 54.5t-22.5 46.5t-42.5 32.5t-66.5 12.5q-45 0 -80 -18.5t-55 -36.5l-19 33q30 27 71 45.5t92 18.5q49 0 83 -17t55 -43t30 -57.5t9 -61.5q0 -48 -16.5 -92.5t-48.5 -90.5t-78.5 -97t-105.5 -111
l-46 -49v-2h313v-40h-380z" />
    <glyph glyph-name="three" unicode="3" horiz-adv-x="479" 
d="M63 70q17 -12 54 -26t83 -14q48 0 79.5 15t49.5 37.5t25 48.5t7 49q0 40 -16 69t-42 47.5t-59.5 27.5t-69.5 9h-40v39h41q26 0 54.5 8t52 24t39 41t15.5 59q0 23 -7 44t-22 37t-38.5 25.5t-56.5 9.5q-37 0 -69.5 -14t-53.5 -31l-19 36q23 18 63 34t85 16t76.5 -13
t52 -34.5t29.5 -48.5t9 -55q0 -51 -30 -91.5t-90 -62.5v-2q30 -6 56.5 -20.5t46 -36t31 -50.5t11.5 -65q0 -37 -13 -71.5t-40 -61.5t-67.5 -43.5t-95.5 -16.5q-48 0 -88.5 14t-61.5 29z" />
    <glyph glyph-name="four" unicode="4" horiz-adv-x="479" 
d="M314 0v191h-303v32l309 427h40v-419h98v-40h-98v-191h-46zM314 231v260q0 48 3 93l-3 1q-15 -29 -27 -48l-24 -38l-196 -266v-2h247z" />
    <glyph glyph-name="five" unicode="5" horiz-adv-x="479" 
d="M400 608h-240l-32 -205q20 4 58 4q34 0 72 -9.5t70.5 -32.5t54 -61.5t21.5 -96.5q0 -49 -17 -89t-46.5 -68.5t-68.5 -44.5t-84 -16q-49 0 -87.5 13t-59.5 28l19 38q18 -12 52 -25t79 -13q34 0 64.5 12.5t53 34.5t35.5 53t13 68q0 76 -45 122.5t-141 46.5q-29 0 -51 -2.5
t-39 -4.5l42 290h277v-42z" />
    <glyph glyph-name="six" unicode="6" horiz-adv-x="479" 
d="M384 617q-66 0 -119 -23t-91 -62t-60.5 -90.5t-27.5 -108.5h2q23 36 65 63t100 27q44 0 79 -15.5t60 -43t38 -66t13 -83.5q0 -44 -13 -84.5t-38 -72t-62.5 -50.5t-85.5 -19q-44 0 -81.5 18t-66 52.5t-44.5 85t-16 116.5q0 81 22.5 152.5t66.5 125t109 86t150 36.5v-44z
M247 29q32 0 59 12.5t46.5 36t30.5 57t11 75.5q0 86 -43.5 129t-109.5 43q-45 0 -84.5 -25.5t-62.5 -67.5q-4 -8 -7 -17.5t-3 -20.5q0 -50 11 -91t31.5 -70t50.5 -45t69 -16h1z" />
    <glyph glyph-name="seven" unicode="7" horiz-adv-x="479" 
d="M434 650v-34l-288 -616h-46l284 608v2h-324v40h374z" />
    <glyph glyph-name="eight" unicode="8" horiz-adv-x="479" 
d="M247 661q33 0 64 -10.5t54 -30t37 -48.5t14 -66q0 -42 -24 -84.5t-88 -72.5v-4q135 -56 135 -172q0 -41 -16 -75t-43.5 -58t-64 -37.5t-76.5 -13.5q-44 0 -80.5 13t-62.5 36.5t-41 55t-15 67.5q0 64 35.5 109.5t98.5 72.5v4q-58 26 -83.5 65.5t-25.5 82.5q0 37 14 67.5
t38.5 52.5t58 34t71.5 12zM240 29q26 0 53 7.5t49 24t36 42t14 62.5q0 35 -11.5 60.5t-32.5 44.5t-51.5 33t-68.5 26q-69 -21 -103.5 -63.5t-34.5 -97.5q0 -66 40.5 -102.5t109.5 -36.5zM245 622q-33 0 -57.5 -10.5t-41 -27t-24.5 -38.5t-8 -44q0 -60 38 -92t102 -48
q51 19 83.5 52.5t32.5 87.5q0 22 -7 43.5t-22 38.5t-38.5 27.5t-57.5 10.5z" />
    <glyph glyph-name="nine" unicode="9" horiz-adv-x="479" 
d="M98 33q63 -3 115 16t90.5 56.5t62 92t29.5 122.5l-2 -1q-30 -39 -71.5 -61t-93.5 -22q-44 0 -78 16.5t-57 43.5t-35 62.5t-12 74.5q0 45 14.5 86t41 72.5t64 50.5t84.5 19q42 0 77 -18t61 -52.5t40.5 -85t14.5 -115.5q0 -75 -17 -141t-50 -117.5t-81.5 -86.5t-111.5 -47
q-26 -5 -47.5 -7t-37.5 -2v44zM242 621q-32 0 -59.5 -13.5t-47 -38t-30.5 -58.5t-11 -75q0 -75 40 -117t103 -42q51 0 90 23.5t61 60.5q3 5 5.5 12t2.5 16q0 105 -38.5 168.5t-115.5 63.5z" />
    <glyph glyph-name="colon" unicode=":" horiz-adv-x="173" 
d="M92 -11q-18 0 -29 13t-11 32t11.5 32t29.5 13t29 -13t11 -32q0 -20 -11.5 -32.5t-29.5 -12.5zM93 361q-18 0 -29 13t-11 32t11.5 32t29.5 13t29 -13t11 -32q0 -20 -11.5 -32.5t-29.5 -12.5z" />
    <glyph glyph-name="semicolon" unicode=";" horiz-adv-x="173" 
d="M102 357q-18 0 -29 13t-11 32t11.5 32t29.5 13t29 -13t11 -32q0 -20 -11.5 -32.5t-29.5 -12.5zM25 -130q6 15 13.5 41.5t15 56.5t14 60.5t9.5 53.5l63 10q-7 -28 -17.5 -61.5t-22 -64.5t-21.5 -56t-16 -35z" />
    <glyph glyph-name="less" unicode="&#x3c;" horiz-adv-x="596" 
d="M71 284l454 248v-46l-408 -219v-2l408 -219v-46l-454 248v36z" />
    <glyph glyph-name="equal" unicode="=" horiz-adv-x="596" 
d="M40 345v40h516v-40h-516zM40 155v40h516v-40h-516z" />
    <glyph glyph-name="greater" unicode="&#x3e;" horiz-adv-x="596" 
d="M525 248l-454 -248v46l408 219v2l-408 219v46l454 -248v-36z" />
    <glyph glyph-name="question" unicode="?" horiz-adv-x="375" 
d="M142 174l-2 13q-1 6 -2.5 16t-1.5 22q0 36 15.5 76.5t48.5 82.5q19 24 33.5 44t24 38.5t14.5 37t5 38.5q0 48 -27 74.5t-81 26.5q-27 0 -54 -8t-45 -22l-18 34q48 39 126 39q38 0 66.5 -12t47 -31.5t27.5 -45t9 -52.5q0 -48 -23 -88t-63 -89q-32 -39 -45.5 -73t-13.5 -69
q0 -9 0.5 -18t1.5 -14l2 -20h-45zM162 -11q-18 0 -28.5 12t-10.5 32t11.5 32t28.5 12q18 0 28.5 -12t10.5 -32t-11.5 -32t-28.5 -12z" />
    <glyph glyph-name="at" unicode="@" horiz-adv-x="707" 
d="M471 475q-9 3 -24 6.5t-36 3.5q-38 0 -71.5 -17t-58.5 -45.5t-39.5 -66t-14.5 -77.5q0 -37 19 -60.5t56 -23.5q26 0 49.5 15t43 38t32.5 50t18 51zM503 30q-38 -23 -81 -32.5t-91 -9.5q-60 0 -113.5 21.5t-93.5 61.5t-63 97t-23 129q0 78 25 149t71.5 124t112.5 84.5
t147 31.5q64 0 115.5 -21.5t87.5 -59.5t55.5 -90.5t19.5 -113.5q0 -59 -14.5 -104t-38 -76t-54 -47t-62.5 -16q-13 0 -26 5.5t-23 16.5t-15 29t-2 43h-4q-29 -49 -64 -71.5t-83 -22.5q-20 0 -38.5 8t-33 24t-23 38.5t-8.5 51.5q0 46 18 89.5t49.5 77.5t75 54t94.5 20
q31 0 54.5 -5t43.5 -13l-37 -181q-14 -66 -5 -95.5t36 -30.5q21 0 42 13.5t37 39t26 61.5t10 81q0 58 -16 105.5t-46.5 81.5t-75.5 52.5t-102 18.5q-63 0 -118 -24.5t-96.5 -70.5t-65.5 -110.5t-24 -143.5q0 -62 19 -112.5t52.5 -86.5t80 -55.5t101.5 -19.5q46 0 84 10
t69 28z" />
    <glyph glyph-name="A" unicode="A" horiz-adv-x="574" 
d="M160 235l-82 -235h-48l238 674h46l237 -674h-49l-82 235h-260zM405 275l-79 223q-12 35 -19.5 63.5t-15.5 57.5h-2q-8 -30 -16 -58.5t-19 -60.5l-80 -225h231z" />
    <glyph glyph-name="B" unicode="B" horiz-adv-x="496" 
d="M80 665q28 6 61.5 10t71.5 4q63 0 104.5 -13.5t68.5 -41.5q42 -42 42 -111q0 -52 -32.5 -92.5t-83.5 -57.5v-3q22 -5 47 -17t46 -33t35 -51t14 -71q0 -42 -13.5 -74t-36.5 -55q-33 -35 -86 -49.5t-123 -14.5q-38 0 -66.5 2t-48.5 4v664zM127 378h95q36 0 65 10t49.5 28
t31.5 42t11 52q0 35 -12.5 59.5t-34.5 40t-53.5 22.5t-68.5 7q-32 0 -52 -2t-31 -5v-254zM127 40q14 -3 34 -4t46 -1q39 0 74.5 7.5t62.5 25.5t43.5 47t16.5 72q0 40 -15.5 68.5t-42.5 47t-62.5 27.5t-74.5 9h-82v-299z" />
    <glyph glyph-name="C" unicode="C" horiz-adv-x="556" 
d="M525 23q-25 -13 -70.5 -23t-105.5 -10t-116 20t-99.5 61.5t-70 106.5t-26.5 155q0 77 23.5 141.5t67 111t105 72.5t138.5 26q63 0 99.5 -10t51.5 -18l-15 -41q-26 13 -60 21t-76 8q-65 0 -117.5 -21t-89.5 -61.5t-57 -98.5t-20 -131q0 -70 19 -125.5t54.5 -94.5t87 -60
t116.5 -21q42 0 80.5 8t66.5 22z" />
    <glyph glyph-name="D" unicode="D" horiz-adv-x="632" 
d="M80 665q38 6 79.5 10t87.5 4q91 0 156 -23t107 -66q40 -42 62 -99.5t22 -136.5q0 -78 -21 -142.5t-66 -115.5q-45 -48 -116 -74.5t-167 -26.5q-38 0 -73.5 1t-70.5 5v664zM127 40q20 -3 47 -4t57 -1q157 0 236 83.5t79 232.5q0 64 -17.5 117.5t-54.5 91t-94 58.5t-136 21
q-37 0 -66.5 -3t-50.5 -7v-589z" />
    <glyph glyph-name="E" unicode="E" horiz-adv-x="456" 
d="M391 335h-264v-295h295v-40h-342v674h327v-40h-280v-259h264v-40z" />
    <glyph glyph-name="F" unicode="F" horiz-adv-x="452" 
d="M80 674h327v-40h-280v-268h257v-40h-257v-326h-47v674z" />
    <glyph glyph-name="G" unicode="G" horiz-adv-x="610" 
d="M552 29q-26 -11 -75 -23.5t-116 -12.5q-66 0 -123.5 19t-108.5 68q-42 42 -67 106t-25 148q0 72 23 135.5t66.5 110.5t107.5 74t147 27q54 0 93.5 -10t59.5 -20l-16 -39q-26 12 -58.5 20t-80.5 8q-67 0 -121 -21t-92 -60.5t-58.5 -95.5t-20.5 -126q0 -72 20 -128.5
t56.5 -95.5t88.5 -59t117 -20q51 0 84.5 6.5t51.5 15.5v239h-153v39h200v-305z" />
    <glyph glyph-name="H" unicode="H" horiz-adv-x="616" 
d="M127 674v-297h362v297h47v-674h-47v337h-362v-337h-47v674h47z" />
    <glyph glyph-name="I" unicode="I" horiz-adv-x="208" 
d="M127 674v-674h-47v674h47z" />
    <glyph glyph-name="J" unicode="J" horiz-adv-x="338" 
d="M218 674h47v-468q0 -63 -14.5 -105t-38.5 -67t-56.5 -35t-68.5 -10q-23 0 -45 4.5t-35 10.5l10 39q12 -5 29.5 -9t39.5 -4q31 0 56 8.5t41.5 29.5t25.5 57t9 91v458z" />
    <glyph glyph-name="K" unicode="K" horiz-adv-x="491" 
d="M80 674h47v-341h4q14 20 28.5 37.5t28.5 33.5l232 270h58l-251 -286l274 -388h-57l-249 355l-68 -76v-279h-47v674z" />
    <glyph glyph-name="L" unicode="L" horiz-adv-x="440" 
d="M80 674h47v-634h294v-40h-341v674z" />
    <glyph glyph-name="M" unicode="M" horiz-adv-x="764" 
d="M637 320q-2 38 -4 79t-4 80.5t-3.5 75t-1.5 63.5h-3q-17 -57 -38.5 -117t-49.5 -135l-139 -366h-33l-130 357q-28 79 -49 141.5t-36 119.5h-3q-1 -60 -4.5 -142t-9.5 -166l-21 -310h-46l48 674h54l142 -386q23 -66 41 -117t32 -102h3q13 48 30.5 99t43.5 119l146 387h57
l45 -674h-47z" />
    <glyph glyph-name="N" unicode="N" horiz-adv-x="624" 
d="M80 0v674h45l255 -395q40 -63 70 -113.5t54 -101.5l2 1q-3 35 -4.5 67.5t-2.5 65.5t-1 68v75v333h46v-674h-44l-250 390q-37 60 -69.5 113t-58.5 107l-2 -1q2 -32 3 -62.5t2 -62.5t1 -68v-79v-337h-46z" />
    <glyph glyph-name="O" unicode="O" horiz-adv-x="654" 
d="M324 -11q-60 0 -112.5 23.5t-91.5 67.5t-61 107.5t-22 143.5q0 83 23 149t63 111.5t93.5 69.5t115.5 24q61 0 113.5 -23.5t90.5 -68t59.5 -108t21.5 -142.5q0 -89 -24.5 -155.5t-65.5 -110.5t-93.5 -66t-109.5 -22zM325 29q59 0 104 25.5t76 68.5t46.5 99t15.5 118
q0 53 -14.5 107.5t-44 98.5t-75 71.5t-106.5 27.5q-62 0 -107.5 -27t-75 -71t-44 -100.5t-14.5 -114.5q0 -56 15.5 -110.5t46 -97.5t75 -69t102.5 -26z" />
    <glyph glyph-name="P" unicode="P" horiz-adv-x="492" 
d="M80 666q29 5 64 9t77 4q60 0 103.5 -14.5t71.5 -41.5q24 -24 37.5 -57t13.5 -76q0 -52 -18.5 -91t-50.5 -65.5t-76 -39.5t-96 -13q-47 0 -79 7v-288h-47v666zM127 330q17 -5 38 -7t45 -2q90 0 139.5 42t49.5 123q0 39 -13 68t-37 47.5t-57 28t-73 9.5q-32 0 -55 -2.5
t-37 -5.5v-301z" />
    <glyph glyph-name="Q" unicode="Q" horiz-adv-x="654" 
d="M609 -87q-64 15 -129.5 33.5t-116.5 33.5q-10 3 -19 6t-17 3q-60 1 -113 24t-92.5 66.5t-62 106.5t-22.5 144q0 85 23 151t63 111.5t94 69t116 23.5q61 0 113 -23.5t90 -68t59.5 -108t21.5 -142.5q0 -70 -15 -125.5t-42 -97.5t-65 -70.5t-84 -43.5v-3q57 -14 112.5 -26.5
t100.5 -20.5zM326 29q59 0 104 25.5t76 68.5t46.5 99t15.5 118q0 53 -14.5 107.5t-44 98.5t-75 71.5t-106.5 27.5q-62 0 -107.5 -27t-75 -71t-44 -100.5t-14.5 -114.5q0 -56 15.5 -110.5t46 -97.5t75 -69t102.5 -26z" />
    <glyph glyph-name="R" unicode="R" horiz-adv-x="496" 
d="M80 665q30 7 69 10.5t73 3.5q66 0 108 -14t70 -42q22 -21 34.5 -53t12.5 -67q0 -69 -36 -112.5t-94 -63.5v-2q42 -13 66.5 -50t36.5 -95q17 -79 28 -120t22 -60h-50q-8 15 -18.5 57.5t-23.5 106.5q-16 74 -50 108t-100 37h-101v-309h-47v665zM127 347h103
q78 0 123.5 39.5t45.5 108.5q0 38 -13 65.5t-36.5 45t-56.5 26t-72 8.5q-33 0 -57 -3t-37 -6v-284z" />
    <glyph glyph-name="S" unicode="S" horiz-adv-x="455" 
d="M59 74q28 -20 65 -32t79 -12q75 0 117.5 38.5t42.5 101.5q0 57 -31 93t-103 65q-78 28 -124 72t-46 114q0 37 14.5 68.5t40 54t61 35t77.5 12.5q48 0 81 -10t50 -21l-18 -40q-14 10 -44 20.5t-72 10.5q-40 0 -67.5 -11.5t-44 -29.5t-24 -39.5t-7.5 -41.5q0 -56 33 -89.5
t104 -61.5q41 -17 72 -36t52 -42t31.5 -52t10.5 -66t-13 -70.5t-39.5 -59t-66 -40.5t-91.5 -15q-21 0 -43.5 3.5t-43.5 9.5t-39.5 14t-31.5 17z" />
    <glyph glyph-name="T" unicode="T" horiz-adv-x="456" 
d="M205 634h-214v40h475v-40h-214v-634h-47v634z" />
    <glyph glyph-name="U" unicode="U" horiz-adv-x="613" 
d="M127 674v-410q0 -63 13.5 -107.5t37.5 -72.5t56 -41t68 -13q40 0 74 13.5t58.5 42t38 72.5t13.5 106v410h47v-406q0 -77 -19 -130t-51 -86t-74.5 -48t-89.5 -15q-43 0 -82.5 13.5t-70 45.5t-48.5 83.5t-18 128.5v414h47z" />
    <glyph glyph-name="V" unicode="V" horiz-adv-x="502" 
d="M221 0l-219 674h49l117 -359q23 -73 43 -138t34 -122h3q14 58 36 123t47 137l128 359h50l-243 -674h-45z" />
    <glyph glyph-name="W" unicode="W" horiz-adv-x="808" 
d="M190 0l-175 674h48l97 -379q17 -66 31 -124.5t24 -107.5h2q8 48 24.5 107t35.5 126l108 378h46l98 -375q16 -63 31 -122.5t23 -113.5h2q11 57 26.5 113t34.5 120l107 378h49l-198 -674h-45l-100 388q-20 74 -32 127t-19 101h-2q-8 -48 -22 -101t-37 -126l-112 -389h-45z
" />
    <glyph glyph-name="X" unicode="X" horiz-adv-x="535" 
d="M450 0l-100 167q-30 46 -49.5 77.5t-36.5 60.5h-2q-16 -29 -34 -60.5t-48 -78.5l-95 -166h-55l209 342l-201 332h54l106 -180q20 -33 36.5 -60t31.5 -55h2q16 29 32 55.5t37 59.5l110 180h56l-210 -328l212 -346h-55z" />
    <glyph glyph-name="Y" unicode="Y" horiz-adv-x="495" 
d="M226 0v292l-210 382h53l108 -199q21 -40 39.5 -74.5t35.5 -71.5h2q15 35 34.5 70t42.5 77l112 198h53l-223 -383v-291h-47z" />
    <glyph glyph-name="Z" unicode="Z" horiz-adv-x="525" 
d="M33 31l396 600v3h-363v40h423v-31l-396 -600v-3h400v-40h-460v31z" />
    <glyph glyph-name="bracketleft" unicode="[" horiz-adv-x="264" 
d="M90 -112v798h167v-37h-124v-724h124v-37h-167z" />
    <glyph glyph-name="backslash" unicode="\" horiz-adv-x="343" 
d="M305 -40l-308 725h47l308 -725h-47z" />
    <glyph glyph-name="bracketright" unicode="]" horiz-adv-x="264" 
d="M175 686v-798h-168v37h124v724h-124v37h168z" />
    <glyph glyph-name="asciicircum" unicode="^" horiz-adv-x="596" 
d="M478 196l-179 407h-2l-179 -407h-46l204 454h44l204 -454h-46z" />
    <glyph glyph-name="underscore" unicode="_" horiz-adv-x="500" 
d="M500 -75v-50h-500v50h500z" />
    <glyph glyph-name="grave" unicode="`" horiz-adv-x="300" 
d="M103 677l88 -137h-36l-121 137h69z" />
    <glyph glyph-name="a" unicode="a" horiz-adv-x="446" 
d="M372 114q0 -29 1 -58t6 -56h-44l-7 68h-2q-9 -14 -23 -28t-32.5 -25.5t-42 -18.5t-51.5 -7q-35 0 -61.5 11.5t-43.5 30t-25.5 42.5t-8.5 48q0 85 71.5 131t215.5 44v13q0 19 -3.5 43.5t-15.5 46.5t-36 37t-65 15q-31 0 -61.5 -9.5t-55.5 -26.5l-15 35q32 22 66 31.5
t71 9.5q50 0 81.5 -17t49.5 -44t24.5 -60.5t6.5 -66.5v-189zM325 257q-38 1 -79.5 -3t-76.5 -17.5t-58 -39.5t-23 -69q0 -51 29 -75t65 -24q29 0 52 8t40 21.5t28.5 30.5t17.5 35q5 20 5 29v104z" />
    <glyph glyph-name="b" unicode="b" horiz-adv-x="540" 
d="M79 709h47v-317h2q24 48 67 73.5t104 25.5q44 0 81 -18t63.5 -50.5t41 -77.5t14.5 -100q0 -65 -18 -113t-47.5 -79.5t-67 -47.5t-76.5 -16q-112 0 -167 96h-3v-85h-45q2 25 3 55t1 56v598zM126 184q0 -19 4 -35q16 -57 58 -88.5t96 -31.5q40 0 71 16t52.5 44.5t32.5 67.5
t11 86q0 41 -10.5 79t-31.5 66.5t-51.5 45.5t-70.5 17q-52 0 -95.5 -33.5t-59.5 -93.5q-2 -9 -4 -19t-2 -22v-99z" />
    <glyph glyph-name="c" unicode="c" horiz-adv-x="435" 
d="M402 19q-15 -8 -50 -18.5t-86 -10.5t-92.5 17.5t-71 50t-45.5 77.5t-16 100q0 57 18 104t50 80.5t76.5 52.5t97.5 19q43 0 75.5 -9.5t46.5 -19.5l-17 -40q-17 10 -44 19t-66 9q-47 0 -82.5 -17.5t-59.5 -46.5t-36 -67.5t-12 -80.5q0 -47 13.5 -85.5t38.5 -65.5t59 -41.5
t75 -14.5q42 0 69 9t47 17z" />
    <glyph glyph-name="d" unicode="d" horiz-adv-x="532" 
d="M453 709v-598q0 -26 1 -56t3 -55h-45v89h-3q-18 -39 -60 -69.5t-107 -30.5q-43 0 -79.5 17.5t-63.5 49.5t-42.5 76.5t-15.5 99.5q0 60 16.5 108t45 81.5t67 51.5t82.5 18q59 0 97.5 -25.5t54.5 -57.5h2v301h47zM406 291q0 11 -1.5 21.5t-3.5 21.5q-6 24 -19 45.5t-32 37
t-43.5 25t-52.5 9.5q-38 0 -69 -16t-52.5 -45t-33 -68.5t-11.5 -85.5q0 -41 10 -78t30.5 -66t51 -46t72.5 -17q49 0 91 31.5t58 92.5q5 22 5 39v99z" />
    <glyph glyph-name="e" unicode="e" horiz-adv-x="474" 
d="M87 246q0 -59 14.5 -99.5t39 -66.5t57 -37.5t68.5 -11.5q48 0 78.5 9t50.5 18l12 -37q-14 -8 -50.5 -19.5t-96.5 -11.5q-51 0 -91.5 18t-69 50t-43.5 76.5t-15 97.5q0 60 16 107.5t44 81.5t66.5 52t83.5 18q58 0 93.5 -24t55.5 -57.5t27 -70.5t7 -64v-16t-1 -14zM385 284
q0 26 -6 55.5t-22 54.5t-43 41.5t-69 16.5q-38 0 -66 -16t-47 -40.5t-29 -54t-13 -57.5h295z" />
    <glyph glyph-name="f" unicode="f" horiz-adv-x="257" 
d="M83 0v442h-69v38h69v27q0 45 8 84t26.5 67.5t48.5 45t74 16.5q23 0 41 -5t29 -12l-15 -37q-10 5 -24 9t-35 4q-34 0 -54.5 -14t-32 -37t-15.5 -54.5t-4 -65.5v-28h126v-38h-126v-442h-47z" />
    <glyph glyph-name="g" unicode="g" horiz-adv-x="532" 
d="M453 70q0 -141 -51 -209.5t-172 -68.5q-42 0 -82 10t-67 30l17 38q24 -16 58.5 -27.5t80.5 -11.5q37 0 68 11t53.5 35t35 62.5t12.5 94.5v57h-2q-19 -36 -59 -63.5t-103 -27.5q-44 0 -81 18.5t-63.5 50t-41.5 74.5t-15 93q0 63 18.5 111t48.5 80t67.5 48t76.5 16
q34 0 60.5 -8.5t45.5 -22t31.5 -29t19.5 -30.5h3v79h45q-2 -26 -3 -56t-1 -70v-284zM406 297q0 25 -6 46q-7 21 -20 40.5t-31 34.5t-42 24t-52 9q-38 0 -68.5 -15t-52.5 -42.5t-34 -66t-12 -86.5q0 -41 10.5 -78t31.5 -64.5t52 -43.5t72 -16q46 0 86 27t58 81q8 27 8 50v100
z" />
    <glyph glyph-name="h" unicode="h" horiz-adv-x="525" 
d="M79 709h47v-313h2q23 45 62.5 70t96.5 25q17 0 44.5 -6.5t53.5 -27.5t45 -60t19 -104v-293h-47v287q0 32 -6.5 61.5t-21.5 52t-39.5 36t-60.5 13.5q-51 0 -88.5 -31.5t-52.5 -76.5q-7 -18 -7 -47v-295h-47v709z" />
    <glyph glyph-name="i" unicode="i" horiz-adv-x="206" 
d="M62 626q0 17 11.5 29t28.5 12t29 -12t12 -29t-12 -28.5t-29 -11.5t-28.5 11.5t-11.5 28.5zM79 0v480h47v-480h-47z" />
    <glyph glyph-name="j" unicode="j" horiz-adv-x="211" 
d="M-47 -170q30 2 55.5 11.5t41.5 29.5q9 11 16 25t11 35.5t6 53.5t2 79v416h48v-447q0 -66 -10 -111t-41 -79q-13 -14 -29.5 -23.5t-33.5 -15.5t-32.5 -9t-27.5 -3zM68 626q0 17 11.5 29t28.5 12t29 -12t12 -29t-12 -28.5t-29 -11.5t-28.5 11.5t-11.5 28.5z" />
    <glyph glyph-name="k" unicode="k" horiz-adv-x="416" 
d="M126 249h2q9 11 21.5 26t23.5 26l166 179h58l-190 -199l216 -281h-58l-191 251l-48 -51v-200h-47v709h47v-460z" />
    <glyph glyph-name="l" unicode="l" horiz-adv-x="206" 
d="M79 709h47v-709h-47v709z" />
    <glyph glyph-name="m" unicode="m" horiz-adv-x="803" 
d="M79 365q0 34 -1 60t-3 55h46v-83h4q22 42 58 68t94 26q49 0 84.5 -29t50.5 -74h2q10 20 22.5 36t26.5 28q23 19 48.5 29t62.5 10q18 0 44 -7t50.5 -29t42 -62t17.5 -107v-286h-48v280q0 81 -29.5 125.5t-92.5 44.5q-22 0 -41.5 -7.5t-35 -20.5t-27.5 -30.5t-19 -36.5
q-3 -11 -5.5 -22.5t-2.5 -24.5v-308h-47v302q0 64 -29.5 106t-87.5 42q-23 0 -43.5 -9t-37.5 -23.5t-29.5 -34t-19.5 -40.5q-3 -11 -5 -22.5t-2 -24.5v-296h-47v365z" />
    <glyph glyph-name="n" unicode="n" horiz-adv-x="525" 
d="M79 365q0 34 -1 60t-3 55h46v-85h4q19 40 61 68t100 28q17 0 44.5 -6.5t54 -27.5t45.5 -60.5t19 -105.5v-291h-47v286q0 32 -6.5 62t-21.5 52.5t-40 36t-61 13.5q-51 0 -88.5 -31t-51.5 -79q-7 -18 -7 -42v-298h-47v365z" />
    <glyph glyph-name="o" unicode="o" horiz-adv-x="520" 
d="M262 491q48 0 88 -17.5t68.5 -50t44.5 -78t16 -101.5q0 -68 -20 -116t-52.5 -79t-72 -45.5t-78.5 -14.5q-45 0 -84.5 17t-68.5 49.5t-45.5 78t-16.5 102.5q0 62 18 109.5t49 80t70.5 49t83.5 16.5zM261 451q-45 0 -77.5 -19t-54 -49t-31.5 -68t-10 -76q0 -45 12.5 -83.5
t35 -66.5t53.5 -44t69 -16q37 0 69 16t55 44t36 67t13 86q0 33 -9.5 69.5t-29.5 67.5t-52.5 51.5t-78.5 20.5z" />
    <glyph glyph-name="p" unicode="p" horiz-adv-x="540" 
d="M79 327q0 48 -1 84t-3 69h47v-89h4q26 48 69 74t103 26q45 0 82 -18t63.5 -50t41 -76.5t14.5 -98.5q0 -65 -17.5 -113.5t-46.5 -81t-68 -48.5t-81 -16q-51 0 -92.5 22.5t-65.5 64.5h-2v-274h-47v525zM126 188q0 -22 4 -38q15 -57 57 -89t96 -32q40 0 71.5 16t53 45
t32.5 68.5t11 87.5q0 40 -10.5 77t-31.5 65.5t-51.5 45.5t-70.5 17q-52 0 -95.5 -33.5t-58.5 -93.5q-2 -10 -4.5 -20.5t-2.5 -20.5v-95z" />
    <glyph glyph-name="q" unicode="q" horiz-adv-x="531" 
d="M406 81h-3q-17 -36 -57.5 -64t-103.5 -28q-43 0 -79.5 17.5t-63.5 49.5t-42.5 77t-15.5 99q0 69 19.5 118t50.5 80.5t69 46t76 14.5q60 0 98 -27.5t55 -64.5h3v81h45q-2 -26 -3 -56t-1 -70v-552h-47v279zM406 291q0 11 -1.5 21.5t-3.5 21.5q-6 24 -19 45t-31.5 37
t-43 25.5t-52.5 9.5q-38 0 -69 -16t-53 -44.5t-33.5 -68t-11.5 -85.5q0 -40 9.5 -77.5t29.5 -66.5t51 -46.5t74 -17.5q48 0 87 27t58 84q4 11 6.5 24t2.5 24v103z" />
    <glyph glyph-name="r" unicode="r" horiz-adv-x="290" 
d="M80 338q0 35 -1 71.5t-3 70.5h45v-96h3q16 45 51 76t84 31q4 0 8.5 -0.5t9.5 -1.5v-46q-6 1 -11 1h-12q-49 0 -82 -38t-42 -95q-4 -20 -4 -45v-266h-47z" />
    <glyph glyph-name="s" unicode="s" horiz-adv-x="366" 
d="M60 63q19 -12 46 -22.5t59 -10.5q57 0 83.5 26.5t26.5 64.5q0 39 -24 63.5t-75 45.5q-58 23 -89 54.5t-31 76.5q0 26 10 49.5t29 41.5t46 28.5t61 10.5q32 0 59 -9t45 -21l-19 -39q-12 9 -34.5 19t-57.5 10q-45 0 -68.5 -25t-23.5 -58q0 -37 24 -57.5t73 -40.5
q57 -23 89.5 -55.5t32.5 -87.5q0 -63 -44 -100t-116 -37q-35 0 -66 9t-54 24z" />
    <glyph glyph-name="t" unicode="t" horiz-adv-x="303" 
d="M145 586v-106h133v-38h-133v-313q0 -48 15.5 -73.5t53.5 -25.5q18 0 31 2t22 5l5 -36q-24 -11 -64 -11q-33 0 -54.5 11t-34 30.5t-17.5 47t-5 59.5v304h-79v38h79v88z" />
    <glyph glyph-name="u" unicode="u" horiz-adv-x="519" 
d="M441 117q0 -32 1 -61t3 -56h-46v83h-4q-9 -16 -23 -33t-34 -30.5t-45.5 -22t-57.5 -8.5q-23 0 -51 8t-52 30.5t-40.5 63.5t-16.5 107v282h48v-272q0 -39 6.5 -71.5t21 -56t38 -37t58.5 -13.5q26 0 48 8.5t39.5 22.5t30 31t19.5 35q4 11 6.5 24.5t2.5 27.5v301h48v-363z
" />
    <glyph glyph-name="v" unicode="v" horiz-adv-x="443" 
d="M65 480l110 -298q14 -35 25 -66t21 -61h2q10 29 21.5 60.5t25.5 66.5l111 298h50l-191 -480h-41l-184 480h50z" />
    <glyph glyph-name="w" unicode="w" horiz-adv-x="709" 
d="M71 480l79 -272q12 -42 22 -79t18 -72h3q9 34 21 71.5t26 79.5l94 272h44l90 -269q14 -44 26 -82t20 -72h3q7 35 17.5 71t24.5 81l84 271h48l-157 -480h-41l-89 268q-15 43 -27 81.5t-21 80.5h-2q-11 -43 -24 -82.5t-27 -81.5l-94 -266h-41l-146 480h49z" />
    <glyph glyph-name="x" unicode="x" horiz-adv-x="420" 
d="M74 480l81 -117q15 -21 27.5 -40.5t25.5 -41.5h2q14 23 27.5 42.5t27.5 39.5l80 117h53l-164 -234l169 -246h-54l-83 121q-16 23 -30 45t-29 45h-2q-13 -23 -27 -44t-31 -46l-82 -121h-54l172 245l-162 235h53z" />
    <glyph glyph-name="y" unicode="y" horiz-adv-x="431" 
d="M62 480l122 -312q10 -26 19 -53.5t16 -50.5h2q7 22 16 49.5t20 56.5l114 310h50l-139 -352q-21 -56 -39.5 -101.5t-37.5 -82t-38.5 -64.5t-43.5 -49q-28 -25 -51.5 -36.5t-31.5 -14.5l-16 39q18 8 40 21t43 34q18 18 39.5 47.5t38.5 71.5q6 16 6 21q0 7 -6 21l-173 445
h50z" />
    <glyph glyph-name="z" unicode="z" horiz-adv-x="395" 
d="M16 29l252 341q14 17 27 34t27 35v2h-285v39h342v-32l-253 -341l-50 -66v-2h304v-39h-364v29z" />
    <glyph glyph-name="braceleft" unicode="{" horiz-adv-x="264" 
d="M27 305q27 0 43.5 6.5t25.5 18t12 25.5t3 29q0 22 -3 43.5t-6 42.5q-4 22 -7 43.5t-3 43.5q0 34 10.5 58.5t29.5 40t44.5 23t54.5 7.5h12v-37h-18q-51 -2 -70 -25.5t-19 -69.5q0 -20 3 -40l6 -40l6 -40t3 -41q0 -45 -17.5 -70t-46.5 -34v-2q29 -8 46.5 -34t17.5 -71
q0 -20 -3 -40l-6 -40t-6 -40.5t-3 -41.5q0 -92 89 -95h18v-37h-12q-29 0 -54.5 7t-44 23.5t-29.5 42t-11 63.5q0 22 3 43t7 41l6 42t3 42q0 13 -3 27t-12 26t-25.5 19t-43.5 6v35z" />
    <glyph glyph-name="bar" unicode="|" horiz-adv-x="210" 
d="M126 750v-1000h-42v1000h42z" />
    <glyph glyph-name="braceright" unicode="}" horiz-adv-x="264" 
d="M237 270q-27 1 -43.5 -6t-25.5 -19t-12 -26t-3 -27q0 -21 3 -42t7 -42q3 -20 6 -41t3 -43q0 -38 -11 -63.5t-30 -42t-44.5 -23.5t-54.5 -7h-11v37h17q48 2 69 24.5t21 70.5q0 21 -3 41.5t-6 40.5l-6 40t-3 40q0 45 17.5 71t46.5 34v2q-29 9 -46.5 34t-17.5 70q0 21 3 41
l6 40l6 40t3 40q0 46 -19.5 69.5t-70.5 25.5h-17v37h11q30 0 55.5 -7.5t44 -23t29.5 -40t11 -58.5q0 -22 -3 -43.5t-6 -43.5q-4 -21 -7 -42.5t-3 -43.5q0 -15 3 -29t12 -25.5t25.5 -18t43.5 -6.5v-35z" />
    <glyph glyph-name="asciitilde" unicode="~" horiz-adv-x="596" 
d="M54 222q-2 29 5.5 53t22 40.5t35 25.5t43.5 9q27 0 57.5 -9.5t84.5 -33.5q42 -18 75.5 -31t65.5 -13t47 24t15 62h37q2 -35 -6 -59t-23 -39.5t-34 -22.5t-40 -7q-13 0 -26.5 2t-30.5 7t-38.5 13t-50.5 20q-37 17 -70 31t-65 14q-66 0 -66 -86h-38z" />
    <glyph glyph-name="Adieresis" unicode="&#xc4;" horiz-adv-x="574" 
d="M160 235l-82 -235h-48l238 674h46l237 -674h-49l-82 235h-260zM405 275l-79 223q-12 35 -19.5 63.5t-15.5 57.5h-2q-8 -30 -16 -58.5t-19 -60.5l-80 -225h231zM168 766q0 16 11 27.5t27 11.5t27.5 -11.5t11.5 -27.5t-11.5 -27t-27.5 -11t-27 11t-11 27zM336 766
q0 16 11 27.5t27 11.5t27.5 -11.5t11.5 -27.5t-11.5 -27t-27.5 -11t-27 11t-11 27z" />
    <glyph glyph-name="Amacron" unicode="&#x100;" horiz-adv-x="574" 
d="M160 235l-82 -235h-48l238 674h46l237 -674h-49l-82 235h-260zM405 275l-79 223q-12 35 -19.5 63.5t-15.5 57.5h-2q-8 -30 -16 -58.5t-19 -60.5l-80 -225h231zM405 762v-38h-230v38h230z" />
    <glyph glyph-name="amacron" unicode="&#x101;" horiz-adv-x="446" 
d="M372 114q0 -29 1 -58t6 -56h-44l-7 68h-2q-9 -14 -23 -28t-32.5 -25.5t-42 -18.5t-51.5 -7q-35 0 -61.5 11.5t-43.5 30t-25.5 42.5t-8.5 48q0 85 71.5 131t215.5 44v13q0 19 -3.5 43.5t-15.5 46.5t-36 37t-65 15q-31 0 -61.5 -9.5t-55.5 -26.5l-15 35q32 22 66 31.5
t71 9.5q50 0 81.5 -17t49.5 -44t24.5 -60.5t6.5 -66.5v-189zM325 257q-38 1 -79.5 -3t-76.5 -17.5t-58 -39.5t-23 -69q0 -51 29 -75t65 -24q29 0 52 8t40 21.5t28.5 30.5t17.5 35q5 20 5 29v104zM323 579v-38h-230v38h230z" />
    <glyph glyph-name="Eacute" unicode="&#xc9;" horiz-adv-x="456" 
d="M391 335h-264v-295h295v-40h-342v674h327v-40h-280v-259h264v-40zM377 822l-130 -112h-41l98 112h73z" />
    <glyph glyph-name="Aogonek" unicode="&#x104;" horiz-adv-x="574" 
d="M160 235l-82 -235h-48l238 674h46l237 -674h-49l-82 235h-260zM405 275l-79 223q-12 35 -19.5 63.5t-15.5 57.5h-2q-8 -30 -16 -58.5t-19 -60.5l-80 -225h231zM544 0q-18 -10 -35 -22.5t-30.5 -27.5t-21.5 -31.5t-8 -32.5q-1 -25 13.5 -36.5t31.5 -11.5q11 0 24 2t25 8
l8 -31q-29 -15 -68 -15q-34 0 -56 20t-22 55q0 19 10 39t25 37t32 29.5t31 17.5h41z" />
    <glyph glyph-name="Odieresis" unicode="&#xd6;" horiz-adv-x="654" 
d="M324 -11q-60 0 -112.5 23.5t-91.5 67.5t-61 107.5t-22 143.5q0 83 23 149t63 111.5t93.5 69.5t115.5 24q61 0 113.5 -23.5t90.5 -68t59.5 -108t21.5 -142.5q0 -89 -24.5 -155.5t-65.5 -110.5t-93.5 -66t-109.5 -22zM325 29q59 0 104 25.5t76 68.5t46.5 99t15.5 118
q0 53 -14.5 107.5t-44 98.5t-75 71.5t-106.5 27.5q-62 0 -107.5 -27t-75 -71t-44 -100.5t-14.5 -114.5q0 -56 15.5 -110.5t46 -97.5t75 -69t102.5 -26zM204 766q0 16 11 27.5t27 11.5t27.5 -11.5t11.5 -27.5t-11.5 -27t-27.5 -11t-27 11t-11 27zM372 766q0 16 11 27.5
t27 11.5t27.5 -11.5t11.5 -27.5t-11.5 -27t-27.5 -11t-27 11t-11 27z" />
    <glyph glyph-name="Udieresis" unicode="&#xdc;" horiz-adv-x="613" 
d="M127 674v-410q0 -63 13.5 -107.5t37.5 -72.5t56 -41t68 -13q40 0 74 13.5t58.5 42t38 72.5t13.5 106v410h47v-406q0 -77 -19 -130t-51 -86t-74.5 -48t-89.5 -15q-43 0 -82.5 13.5t-70 45.5t-48.5 83.5t-18 128.5v414h47zM183 766q0 16 11 27.5t27 11.5t27.5 -11.5
t11.5 -27.5t-11.5 -27t-27.5 -11t-27 11t-11 27zM353 766q0 16 11 27.5t27 11.5t27.5 -11.5t11.5 -27.5t-11.5 -27t-27.5 -11t-27 11t-11 27z" />
    <glyph glyph-name="aacute" unicode="&#xe1;" horiz-adv-x="446" 
d="M372 114q0 -29 1 -58t6 -56h-44l-7 68h-2q-9 -14 -23 -28t-32.5 -25.5t-42 -18.5t-51.5 -7q-35 0 -61.5 11.5t-43.5 30t-25.5 42.5t-8.5 48q0 85 71.5 131t215.5 44v13q0 19 -3.5 43.5t-15.5 46.5t-36 37t-65 15q-31 0 -61.5 -9.5t-55.5 -26.5l-15 35q32 22 66 31.5
t71 9.5q50 0 81.5 -17t49.5 -44t24.5 -60.5t6.5 -66.5v-189zM325 257q-38 1 -79.5 -3t-76.5 -17.5t-58 -39.5t-23 -69q0 -51 29 -75t65 -24q29 0 52 8t40 21.5t28.5 30.5t17.5 35q5 20 5 29v104zM338 677l-121 -137h-36l88 137h69z" />
    <glyph glyph-name="aogonek" unicode="&#x105;" horiz-adv-x="446" 
d="M372 114q0 -29 1 -58t6 -56h-44l-7 68h-2q-9 -14 -23 -28t-32.5 -25.5t-42 -18.5t-51.5 -7q-35 0 -61.5 11.5t-43.5 30t-25.5 42.5t-8.5 48q0 85 71.5 131t215.5 44v13q0 19 -3.5 43.5t-15.5 46.5t-36 37t-65 15q-31 0 -61.5 -9.5t-55.5 -26.5l-15 35q32 22 66 31.5
t71 9.5q50 0 81.5 -17t49.5 -44t24.5 -60.5t6.5 -66.5v-189zM325 257q-38 1 -79.5 -3t-76.5 -17.5t-58 -39.5t-23 -69q0 -51 29 -75t65 -24q29 0 52 8t40 21.5t28.5 30.5t17.5 35q5 20 5 29v104zM379 1q-18 -10 -35 -22.5t-30.5 -27.5t-21.5 -31.5t-8 -32.5
q-1 -25 13.5 -36.5t31.5 -11.5q11 0 24 2t25 8l8 -31q-29 -15 -68 -15q-34 0 -56 20t-22 55q0 19 10 39t25 37t32 29.5t31 17.5h41z" />
    <glyph glyph-name="Ccaron" unicode="&#x10c;" horiz-adv-x="556" 
d="M525 23q-25 -13 -70.5 -23t-105.5 -10t-116 20t-99.5 61.5t-70 106.5t-26.5 155q0 77 23.5 141.5t67 111t105 72.5t138.5 26q63 0 99.5 -10t51.5 -18l-15 -41q-26 13 -60 21t-76 8q-65 0 -117.5 -21t-89.5 -61.5t-57 -98.5t-20 -131q0 -70 19 -125.5t54.5 -94.5t87 -60
t116.5 -21q42 0 80.5 8t66.5 22zM331 736l-94 137h47l63 -99h2l64 99h44l-91 -137h-35z" />
    <glyph glyph-name="adieresis" unicode="&#xe4;" horiz-adv-x="446" 
d="M372 114q0 -29 1 -58t6 -56h-44l-7 68h-2q-9 -14 -23 -28t-32.5 -25.5t-42 -18.5t-51.5 -7q-35 0 -61.5 11.5t-43.5 30t-25.5 42.5t-8.5 48q0 85 71.5 131t215.5 44v13q0 19 -3.5 43.5t-15.5 46.5t-36 37t-65 15q-31 0 -61.5 -9.5t-55.5 -26.5l-15 35q32 22 66 31.5
t71 9.5q50 0 81.5 -17t49.5 -44t24.5 -60.5t6.5 -66.5v-189zM325 257q-38 1 -79.5 -3t-76.5 -17.5t-58 -39.5t-23 -69q0 -51 29 -75t65 -24q29 0 52 8t40 21.5t28.5 30.5t17.5 35q5 20 5 29v104zM100 601q0 16 11 27.5t27 11.5t27.5 -11.5t11.5 -27.5t-11.5 -27t-27.5 -11
t-27 11t-11 27zM268 601q0 16 11 27.5t27 11.5t27.5 -11.5t11.5 -27.5t-11.5 -27t-27.5 -11t-27 11t-11 27z" />
    <glyph glyph-name="ccaron" unicode="&#x10d;" horiz-adv-x="435" 
d="M402 19q-15 -8 -50 -18.5t-86 -10.5t-92.5 17.5t-71 50t-45.5 77.5t-16 100q0 57 18 104t50 80.5t76.5 52.5t97.5 19q43 0 75.5 -9.5t46.5 -19.5l-17 -40q-17 10 -44 19t-66 9q-47 0 -82.5 -17.5t-59.5 -46.5t-36 -67.5t-12 -80.5q0 -47 13.5 -85.5t38.5 -65.5t59 -41.5
t75 -14.5q42 0 69 9t47 17zM249 542l-94 137h47l63 -99h2l64 99h44l-91 -137h-35z" />
    <glyph glyph-name="Cacute" unicode="&#x106;" horiz-adv-x="556" 
d="M525 23q-25 -13 -70.5 -23t-105.5 -10t-116 20t-99.5 61.5t-70 106.5t-26.5 155q0 77 23.5 141.5t67 111t105 72.5t138.5 26q63 0 99.5 -10t51.5 -18l-15 -41q-26 13 -60 21t-76 8q-65 0 -117.5 -21t-89.5 -61.5t-57 -98.5t-20 -131q0 -70 19 -125.5t54.5 -94.5t87 -60
t116.5 -21q42 0 80.5 8t66.5 22zM427 878l-121 -137h-36l88 137h69z" />
    <glyph glyph-name="cacute" unicode="&#x107;" horiz-adv-x="435" 
d="M402 19q-15 -8 -50 -18.5t-86 -10.5t-92.5 17.5t-71 50t-45.5 77.5t-16 100q0 57 18 104t50 80.5t76.5 52.5t97.5 19q43 0 75.5 -9.5t46.5 -19.5l-17 -40q-17 10 -44 19t-66 9q-47 0 -82.5 -17.5t-59.5 -46.5t-36 -67.5t-12 -80.5q0 -47 13.5 -85.5t38.5 -65.5t59 -41.5
t75 -14.5q42 0 69 9t47 17zM355 693l-121 -137h-36l88 137h69z" />
    <glyph glyph-name="eacute" unicode="&#xe9;" horiz-adv-x="474" 
d="M87 246q0 -59 14.5 -99.5t39 -66.5t57 -37.5t68.5 -11.5q48 0 78.5 9t50.5 18l12 -37q-14 -8 -50.5 -19.5t-96.5 -11.5q-51 0 -91.5 18t-69 50t-43.5 76.5t-15 97.5q0 60 16 107.5t44 81.5t66.5 52t83.5 18q58 0 93.5 -24t55.5 -57.5t27 -70.5t7 -64v-16t-1 -14zM385 284
q0 26 -6 55.5t-22 54.5t-43 41.5t-69 16.5q-38 0 -66 -16t-47 -40.5t-29 -54t-13 -57.5h295zM371 677l-121 -137h-36l88 137h69z" />
    <glyph glyph-name="Zacute" unicode="&#x179;" horiz-adv-x="525" 
d="M33 31l396 600v3h-363v40h423v-31l-396 -600v-3h400v-40h-460v31zM341 861l-121 -137h-36l88 137h69z" />
    <glyph glyph-name="zacute" unicode="&#x17a;" horiz-adv-x="395" 
d="M16 29l252 341q14 17 27 34t27 35v2h-285v39h342v-32l-253 -341l-50 -66v-2h304v-39h-364v29zM276 667l-121 -137h-36l88 137h69z" />
    <glyph glyph-name="Dcaron" unicode="&#x10e;" horiz-adv-x="632" 
d="M80 665q38 6 79.5 10t87.5 4q91 0 156 -23t107 -66q40 -42 62 -99.5t22 -136.5q0 -78 -21 -142.5t-66 -115.5q-45 -48 -116 -74.5t-167 -26.5q-38 0 -73.5 1t-70.5 5v664zM127 40q20 -3 47 -4t57 -1q157 0 236 83.5t79 232.5q0 64 -17.5 117.5t-54.5 91t-94 58.5t-136 21
q-37 0 -66.5 -3t-50.5 -7v-589zM321 729l-94 137h47l63 -99h2l64 99h44l-91 -137h-35z" />
    <glyph glyph-name="iacute" unicode="&#xed;" horiz-adv-x="206" 
d="M79 0v480h47v-480h-47zM227 677l-121 -137h-36l88 137h69z" />
    <glyph glyph-name="dcaron" unicode="&#x10f;" horiz-adv-x="606" 
d="M453 709v-598q0 -26 1 -56t3 -55h-45v89h-3q-18 -39 -60 -69.5t-107 -30.5q-43 0 -79.5 17.5t-63.5 49.5t-42.5 76.5t-15.5 99.5q0 60 16.5 108t45 81.5t67 51.5t82.5 18q59 0 97.5 -25.5t54.5 -57.5h2v301h47zM406 291q0 11 -1.5 21.5t-3.5 21.5q-6 24 -19 45.5t-32 37
t-43.5 25t-52.5 9.5q-38 0 -69 -16t-52.5 -45t-33 -68.5t-11.5 -85.5q0 -41 10 -78t30.5 -66t51 -46t72.5 -17q49 0 91 31.5t58 92.5q5 22 5 39v99zM600 634q0 -38 -20 -67.5t-42 -46.5l-31 23q18 16 35 38.5t17 52.5q0 20 -15 38.5t-32 34.5l46 10q16 -14 29 -35.5
t13 -47.5z" />
    <glyph glyph-name="Emacron" unicode="&#x112;" horiz-adv-x="456" 
d="M391 335h-264v-295h295v-40h-342v674h327v-40h-280v-259h264v-40zM366 762v-38h-230v38h230z" />
    <glyph glyph-name="emacron" unicode="&#x113;" horiz-adv-x="474" 
d="M87 246q0 -59 14.5 -99.5t39 -66.5t57 -37.5t68.5 -11.5q48 0 78.5 9t50.5 18l12 -37q-14 -8 -50.5 -19.5t-96.5 -11.5q-51 0 -91.5 18t-69 50t-43.5 76.5t-15 97.5q0 60 16 107.5t44 81.5t66.5 52t83.5 18q58 0 93.5 -24t55.5 -57.5t27 -70.5t7 -64v-16t-1 -14zM385 284
q0 26 -6 55.5t-22 54.5t-43 41.5t-69 16.5q-38 0 -66 -16t-47 -40.5t-29 -54t-13 -57.5h295zM352 579v-38h-230v38h230z" />
    <glyph glyph-name="Edotaccent" unicode="&#x116;" horiz-adv-x="456" 
d="M391 335h-264v-295h295v-40h-342v674h327v-40h-280v-259h264v-40zM211 763q0 17 11 28.5t28 11.5t28.5 -11.5t11.5 -28.5t-11.5 -28t-28.5 -11t-28 11t-11 28z" />
    <glyph glyph-name="oacute" unicode="&#xf3;" horiz-adv-x="520" 
d="M262 491q48 0 88 -17.5t68.5 -50t44.5 -78t16 -101.5q0 -68 -20 -116t-52.5 -79t-72 -45.5t-78.5 -14.5q-45 0 -84.5 17t-68.5 49.5t-45.5 78t-16.5 102.5q0 62 18 109.5t49 80t70.5 49t83.5 16.5zM261 451q-45 0 -77.5 -19t-54 -49t-31.5 -68t-10 -76q0 -45 12.5 -83.5
t35 -66.5t53.5 -44t69 -16q37 0 69 16t55 44t36 67t13 86q0 33 -9.5 69.5t-29.5 67.5t-52.5 51.5t-78.5 20.5zM376 677l-121 -137h-36l88 137h69z" />
    <glyph glyph-name="edotaccent" unicode="&#x117;" horiz-adv-x="474" 
d="M87 246q0 -59 14.5 -99.5t39 -66.5t57 -37.5t68.5 -11.5q48 0 78.5 9t50.5 18l12 -37q-14 -8 -50.5 -19.5t-96.5 -11.5q-51 0 -91.5 18t-69 50t-43.5 76.5t-15 97.5q0 60 16 107.5t44 81.5t66.5 52t83.5 18q58 0 93.5 -24t55.5 -57.5t27 -70.5t7 -64v-16t-1 -14zM385 284
q0 26 -6 55.5t-22 54.5t-43 41.5t-69 16.5q-38 0 -66 -16t-47 -40.5t-29 -54t-13 -57.5h295zM197 580q0 17 11 28.5t28 11.5t28.5 -11.5t11.5 -28.5t-11.5 -28t-28.5 -11t-28 11t-11 28z" />
    <glyph glyph-name="ocircumflex" unicode="&#xf4;" horiz-adv-x="520" 
d="M262 491q48 0 88 -17.5t68.5 -50t44.5 -78t16 -101.5q0 -68 -20 -116t-52.5 -79t-72 -45.5t-78.5 -14.5q-45 0 -84.5 17t-68.5 49.5t-45.5 78t-16.5 102.5q0 62 18 109.5t49 80t70.5 49t83.5 16.5zM261 451q-45 0 -77.5 -19t-54 -49t-31.5 -68t-10 -76q0 -45 12.5 -83.5
t35 -66.5t53.5 -44t69 -16q37 0 69 16t55 44t36 67t13 86q0 33 -9.5 69.5t-29.5 67.5t-52.5 51.5t-78.5 20.5zM276 677l93 -137h-48l-61 99h-2l-62 -99h-45l90 137h35z" />
    <glyph glyph-name="odieresis" unicode="&#xf6;" horiz-adv-x="520" 
d="M262 491q48 0 88 -17.5t68.5 -50t44.5 -78t16 -101.5q0 -68 -20 -116t-52.5 -79t-72 -45.5t-78.5 -14.5q-45 0 -84.5 17t-68.5 49.5t-45.5 78t-16.5 102.5q0 62 18 109.5t49 80t70.5 49t83.5 16.5zM261 451q-45 0 -77.5 -19t-54 -49t-31.5 -68t-10 -76q0 -45 12.5 -83.5
t35 -66.5t53.5 -44t69 -16q37 0 69 16t55 44t36 67t13 86q0 33 -9.5 69.5t-29.5 67.5t-52.5 51.5t-78.5 20.5zM137 601q0 16 11 27.5t27 11.5t27.5 -11.5t11.5 -27.5t-11.5 -27t-27.5 -11t-27 11t-11 27zM305 601q0 16 11 27.5t27 11.5t27.5 -11.5t11.5 -27.5t-11.5 -27
t-27.5 -11t-27 11t-11 27z" />
    <glyph glyph-name="otilde" unicode="&#xf5;" horiz-adv-x="520" 
d="M262 491q48 0 88 -17.5t68.5 -50t44.5 -78t16 -101.5q0 -68 -20 -116t-52.5 -79t-72 -45.5t-78.5 -14.5q-45 0 -84.5 17t-68.5 49.5t-45.5 78t-16.5 102.5q0 62 18 109.5t49 80t70.5 49t83.5 16.5zM261 451q-45 0 -77.5 -19t-54 -49t-31.5 -68t-10 -76q0 -45 12.5 -83.5
t35 -66.5t53.5 -44t69 -16q37 0 69 16t55 44t36 67t13 86q0 33 -9.5 69.5t-29.5 67.5t-52.5 51.5t-78.5 20.5zM149 563q-1 33 14 58t44 25q16 0 29 -6t32 -16q12 -6 22.5 -11t24.5 -5q11 0 17.5 8.5t8.5 32.5h30q0 -35 -14 -57.5t-46 -22.5q-14 0 -27.5 6t-28.5 15
q-15 8 -25.5 13t-21.5 5q-13 0 -19 -12.5t-8 -32.5h-32z" />
    <glyph glyph-name="uacute" unicode="&#xfa;" horiz-adv-x="519" 
d="M441 117q0 -32 1 -61t3 -56h-46v83h-4q-9 -16 -23 -33t-34 -30.5t-45.5 -22t-57.5 -8.5q-23 0 -51 8t-52 30.5t-40.5 63.5t-16.5 107v282h48v-272q0 -39 6.5 -71.5t21 -56t38 -37t58.5 -13.5q26 0 48 8.5t39.5 22.5t30 31t19.5 35q4 11 6.5 24.5t2.5 27.5v301h48v-363z
M387 677l-121 -137h-36l88 137h69z" />
    <glyph glyph-name="Ecaron" unicode="&#x11a;" horiz-adv-x="456" 
d="M391 335h-264v-295h295v-40h-342v674h327v-40h-280v-259h264v-40zM235 724l-94 137h47l63 -99h2l64 99h44l-91 -137h-35z" />
    <glyph glyph-name="ecaron" unicode="&#x11b;" horiz-adv-x="474" 
d="M87 246q0 -59 14.5 -99.5t39 -66.5t57 -37.5t68.5 -11.5q48 0 78.5 9t50.5 18l12 -37q-14 -8 -50.5 -19.5t-96.5 -11.5q-51 0 -91.5 18t-69 50t-43.5 76.5t-15 97.5q0 60 16 107.5t44 81.5t66.5 52t83.5 18q58 0 93.5 -24t55.5 -57.5t27 -70.5t7 -64v-16t-1 -14zM385 284
q0 26 -6 55.5t-22 54.5t-43 41.5t-69 16.5q-38 0 -66 -16t-47 -40.5t-29 -54t-13 -57.5h295zM221 541l-94 137h47l63 -99h2l64 99h44l-91 -137h-35z" />
    <glyph glyph-name="udieresis" unicode="&#xfc;" horiz-adv-x="519" 
d="M441 117q0 -32 1 -61t3 -56h-46v83h-4q-9 -16 -23 -33t-34 -30.5t-45.5 -22t-57.5 -8.5q-23 0 -51 8t-52 30.5t-40.5 63.5t-16.5 107v282h48v-272q0 -39 6.5 -71.5t21 -56t38 -37t58.5 -13.5q26 0 48 8.5t39.5 22.5t30 31t19.5 35q4 11 6.5 24.5t2.5 27.5v301h48v-363z
M140 601q0 16 11 27.5t27 11.5t27.5 -11.5t11.5 -27.5t-11.5 -27t-27.5 -11t-27 11t-11 27zM308 601q0 16 11 27.5t27 11.5t27.5 -11.5t11.5 -27.5t-11.5 -27t-27.5 -11t-27 11t-11 27z" />
    <glyph glyph-name="dagger" unicode="&#x2020;" horiz-adv-x="477" 
d="M262 674l-5 -217l172 5v-44l-172 5l5 -473h-47l4 473l-172 -5v44l172 -5l-4 217h47z" />
    <glyph glyph-name="degree" unicode="&#xb0;" horiz-adv-x="293" 
d="M153 686q28 0 50.5 -10t37.5 -27t23 -38.5t8 -45.5q0 -29 -10.5 -52t-28 -39.5t-39.5 -25t-45 -8.5q-27 0 -48.5 9.5t-37.5 26t-24.5 38t-8.5 45.5q0 27 9.5 50.5t26 40.5t38.5 26.5t48 9.5h1zM150 653q-21 0 -36 -8.5t-25 -22t-15 -30t-5 -32.5q0 -37 23.5 -62t58.5 -25
q36 0 59.5 26t23.5 64q0 14 -4.5 30t-14 29.5t-25.5 22t-39 8.5h-1z" />
    <glyph glyph-name="Eogonek" unicode="&#x118;" horiz-adv-x="456" 
d="M391 335h-264v-295h295v-40h-342v674h327v-40h-280v-259h264v-40zM317 0q-18 -10 -35 -22.5t-30.5 -27.5t-21.5 -31.5t-8 -32.5q-1 -25 13.5 -36.5t31.5 -11.5q11 0 24 2t25 8l8 -31q-29 -15 -68 -15q-34 0 -56 20t-22 55q0 19 10 39t25 37t32 29.5t31 17.5h41z" />
    <glyph glyph-name="sterling" unicode="&#xa3;" horiz-adv-x="479" 
d="M56 0v30q57 30 86 81t29 111q0 23 -1.5 43.5t-5.5 46.5h-104v38h100q-5 25 -9 57.5t-4 66.5q0 43 13 77.5t35.5 59t53.5 37.5t66 13q37 0 62 -7.5t40 -17.5l-16 -37q-13 8 -35.5 15t-55.5 7q-61 0 -89 -40.5t-28 -102.5q0 -42 4 -71t9 -57h144v-38h-139q3 -35 5 -70.5
t-6 -68.5q-18 -77 -81 -130v-2h313v-41h-386z" />
    <glyph glyph-name="section" unicode="&#xa7;" horiz-adv-x="486" 
d="M108 356q0 -29 24 -54.5t91 -50.5q39 -14 65.5 -26.5t46.5 -25.5q21 17 32 41t11 51q0 34 -22.5 60t-77.5 46q-29 11 -61 23.5t-58 29.5q-29 -23 -40 -45.5t-11 -48.5zM364 612q-17 13 -45 23t-65 10q-22 0 -42.5 -6t-36 -18t-25 -28.5t-9.5 -37.5q0 -24 10.5 -40.5
t29 -29t43 -22t52.5 -19.5q30 -11 56.5 -24t46 -30t31 -40t11.5 -54q0 -39 -15.5 -67.5t-44.5 -52.5q12 -11 23.5 -34t11.5 -53q0 -35 -13.5 -61.5t-36.5 -44.5t-54 -27.5t-66 -9.5q-45 0 -80.5 11.5t-56.5 28.5l21 36q15 -13 45 -26t75 -13q51 0 87 25.5t36 73.5
q0 21 -6 37.5t-21 30.5t-40.5 27.5t-63.5 27.5q-37 14 -66 28t-49.5 31.5t-31 39t-10.5 50.5q0 26 14.5 55.5t53.5 59.5q-16 11 -25.5 32.5t-10.5 45.5q0 31 13 55.5t35 42t52 27t63 9.5q42 0 73 -10t51 -24z" />
    <glyph glyph-name="bullet" unicode="&#x2022;" horiz-adv-x="247" 
d="M124 255q-38 0 -64 25.5t-26 63.5q0 37 26 63t63 26q19 0 35.5 -7t28.5 -19t19 -28.5t7 -34.5t-7 -34t-19 -28.5t-28.5 -19.5t-34.5 -7z" />
    <glyph glyph-name="paragraph" unicode="&#xb6;" horiz-adv-x="486" 
d="M242 -51v316h-8q-34 0 -69 12t-63.5 35.5t-47 59.5t-19.5 84q-1 39 11 78.5t42 70.5t80.5 50.5t126.5 19.5q35 0 58.5 -2t40.5 -5v-719h-41v687h-70v-687h-41z" />
    <glyph glyph-name="germandbls" unicode="&#xdf;" horiz-adv-x="508" 
d="M79 0v464q0 85 18 134.5t50 78.5q49 43 123 43q29 0 56.5 -9.5t49 -29.5t34.5 -50t13 -70q0 -28 -7.5 -49.5t-14.5 -32.5q-36 -14 -58 -36t-22 -52q0 -16 4.5 -28.5t12.5 -23.5t19 -22.5t24 -24.5q16 -16 30.5 -32t26 -34t18 -39t6.5 -47q0 -69 -44 -110t-119 -41
q-60 0 -104 23l14 40q48 -23 92 -23q57 0 86.5 30.5t29.5 73.5q0 38 -17 66.5t-48 56.5q-35 32 -56 61t-21 67q0 39 24.5 70t69.5 52q4 10 6.5 22t2.5 26q0 64 -33.5 94.5t-84.5 30.5q-66 0 -100 -50t-34 -167v-462h-47z" />
    <glyph glyph-name="registered" unicode="&#xae;" horiz-adv-x="510" 
d="M254 682q46 0 86.5 -16.5t71 -46.5t48 -71t17.5 -90q0 -48 -17 -89t-47 -71.5t-70.5 -48t-86.5 -17.5t-86.5 17.5t-71 48t-48 71.5t-17.5 89q0 46 17 87t47 71.5t70 48t87 17.5zM255 654q-38 0 -71.5 -15.5t-58.5 -42t-39.5 -62t-14.5 -76.5t14.5 -77t39.5 -63
t59.5 -42.5t73.5 -15.5q38 0 71.5 15.5t58.5 42t39.5 62.5t14.5 77t-14.5 77t-39.5 62.5t-59.5 42t-73.5 15.5zM212 327h-32v251q17 2 31.5 4t33.5 2q26 0 44.5 -5.5t29.5 -13.5q23 -17 23 -51q0 -26 -14.5 -41t-34.5 -21v-2q34 -6 43 -61q5 -29 9 -42.5t8 -19.5h-34
q-10 13 -19 64q-5 26 -18.5 36.5t-39.5 10.5h-30v-111zM212 462h31q26 0 45.5 10.5t19.5 36.5q0 18 -14.5 33.5t-52.5 15.5q-10 0 -17 -0.5t-12 -1.5v-94z" />
    <glyph glyph-name="copyright" unicode="&#xa9;" horiz-adv-x="677" 
d="M337 648q64 0 119 -24t95.5 -65.5t64 -98t23.5 -120.5q0 -65 -23 -121.5t-63 -98.5t-95 -66t-118 -24q-64 0 -119 24t-95.5 66t-64 98.5t-23.5 121.5q0 64 23 120t63 98t95 66t118 24zM464 463q-11 6 -36 15t-63 9q-39 0 -67 -12t-46 -32.5t-27 -47.5t-9 -58t9 -58.5
t28 -48t47.5 -32.5t66.5 -12q31 0 58 7.5t45 19.5l10 -29q-26 -18 -59 -24.5t-64 -6.5q-43 0 -77 14t-57 38.5t-35.5 57.5t-12.5 71q0 42 15.5 76.5t41.5 59t60 37.5t72 13q42 0 70.5 -9t39.5 -17zM337 616q-55 1 -102 -20.5t-81.5 -59.5t-54.5 -89.5t-20 -110.5
q0 -58 20 -108t55 -87t83 -58t104 -21q55 -1 102 20t81.5 58.5t54.5 88.5t20 111q0 59 -20 109.5t-55 87.5t-83 58t-104 21z" />
    <glyph glyph-name="trademark" unicode="&#x2122;" horiz-adv-x="755" 
d="M302 674v-33h-125v-365h-37v365h-125v33h287zM681 276l-20 270q-2 20 -1 44.5t0 47.5h-3q-7 -24 -15 -51t-17 -51l-97 -257h-28l-98 265q-8 22 -15 46.5t-13 47.5h-3q-1 -24 -0.5 -45t-1.5 -47l-18 -270h-38l31 398h48l96 -254q8 -20 14 -41.5t14 -48.5h2q7 26 13 48.5
t14 42.5l94 253h49l32 -398h-39z" />
    <glyph glyph-name="eogonek" unicode="&#x119;" horiz-adv-x="474" 
d="M87 246q0 -59 14.5 -99.5t39 -66.5t57 -37.5t68.5 -11.5q48 0 78.5 9t50.5 18l12 -37q-14 -8 -50.5 -19.5t-96.5 -11.5q-51 0 -91.5 18t-69 50t-43.5 76.5t-15 97.5q0 60 16 107.5t44 81.5t66.5 52t83.5 18q58 0 93.5 -24t55.5 -57.5t27 -70.5t7 -64v-16t-1 -14zM385 284
q0 26 -6 55.5t-22 54.5t-43 41.5t-69 16.5q-38 0 -66 -16t-47 -40.5t-29 -54t-13 -57.5h295zM303 -10q-18 -10 -35 -22.5t-30.5 -27.5t-21.5 -31.5t-8 -32.5q-1 -25 13.5 -36.5t31.5 -11.5q11 0 24 2t25 8l8 -31q-29 -15 -68 -15q-34 0 -56 20t-22 55q0 19 10 39t25 37
t32 29.5t31 17.5h41z" />
    <glyph glyph-name="dieresis" unicode="&#xa8;" horiz-adv-x="300" 
d="M27 601q0 16 11 27.5t27 11.5t27.5 -11.5t11.5 -27.5t-11.5 -27t-27.5 -11t-27 11t-11 27zM195 601q0 16 11 27.5t27 11.5t27.5 -11.5t11.5 -27.5t-11.5 -27t-27.5 -11t-27 11t-11 27z" />
    <glyph glyph-name="Dcroat" unicode="&#x110;" horiz-adv-x="636" 
d="M-4 361h88v306q38 6 78.5 10t88.5 4q90 0 155 -23t107 -66q42 -42 63.5 -100t21.5 -139q0 -78 -21 -142.5t-66 -115.5q-45 -48 -116 -74.5t-167 -26.5q-38 0 -73.5 1t-70.5 5v322h-88v39zM334 322h-203v-283q20 -3 47 -4t57 -1q157 0 235.5 83.5t78.5 235.5
q1 65 -16.5 118t-54.5 91t-94 58.5t-136 20.5q-77 0 -117 -10v-270h203v-39z" />
    <glyph glyph-name="Iogonek" unicode="&#x12e;" horiz-adv-x="208" 
d="M127 674v-674h-47v674h47zM134 0q-18 -10 -35 -22.5t-30.5 -27.5t-21.5 -31.5t-8 -32.5q-1 -25 13.5 -36.5t31.5 -11.5q11 0 24 2t25 8l8 -31q-29 -15 -68 -15q-34 0 -56 20t-22 55q0 19 10 39t25 37t32 29.5t31 17.5h41z" />
    <glyph glyph-name="iogonek" unicode="&#x12f;" horiz-adv-x="206" 
d="M62 626q0 17 11.5 29t28.5 12t29 -12t12 -29t-12 -28.5t-29 -11.5t-28.5 11.5t-11.5 28.5zM79 0v480h47v-480h-47zM132 0q-18 -10 -35 -22.5t-30.5 -27.5t-21.5 -31.5t-8 -32.5q-1 -25 13.5 -36.5t31.5 -11.5q11 0 24 2t25 8l8 -31q-29 -15 -68 -15q-34 0 -56 20t-22 55
q0 19 10 39t25 37t32 29.5t31 17.5h41z" />
    <glyph glyph-name="Imacron" unicode="&#x12a;" horiz-adv-x="208" 
d="M127 674v-674h-47v674h47zM218 762v-38h-230v38h230z" />
    <glyph glyph-name="imacron" unicode="&#x12b;" horiz-adv-x="206" 
d="M79 0v480h47v-480h-47zM217 568v-38h-230v38h230z" />
    <glyph glyph-name="dcroat" unicode="&#x111;" horiz-adv-x="532" 
d="M285 578v38h121v93h47v-93h74v-38h-74v-467q0 -26 1 -56t3 -55h-45v89h-3q-18 -39 -60 -69.5t-107 -30.5q-43 0 -79.5 17.5t-63.5 49.5t-42.5 76.5t-15.5 99.5q0 60 16.5 108t45 81.5t67 51.5t82.5 18q59 0 97.5 -25.5t54.5 -57.5h2v170h-121zM406 291q0 11 -1.5 21.5
t-3.5 21.5q-6 24 -19 45.5t-32 37t-43.5 25t-52.5 9.5q-38 0 -69 -16t-52.5 -45t-33 -68.5t-11.5 -85.5q0 -41 10 -78t30.5 -66t51 -46t72.5 -17q49 0 91 31.5t58 92.5q5 22 5 39v99z" />
    <glyph glyph-name="lslash" unicode="&#x142;" horiz-adv-x="211" 
d="M82 0v324l-70 -64v45l70 64v340h47v-300l72 65v-46l-72 -65v-363h-47z" />
    <glyph glyph-name="Lcaron" unicode="&#x13d;" horiz-adv-x="440" 
d="M80 674h47v-634h294v-40h-341v674zM234 724l-94 137h47l63 -99h2l64 99h44l-91 -137h-35z" />
    <glyph glyph-name="lcaron" unicode="&#x13e;" horiz-adv-x="243" 
d="M79 709h47v-709h-47v709zM259 639q0 -38 -20 -67.5t-42 -46.5l-31 23q18 16 35 38.5t17 52.5q0 20 -15 38.5t-32 34.5l46 10q16 -14 29 -35.5t13 -47.5z" />
    <glyph glyph-name="Lacute" unicode="&#x139;" horiz-adv-x="440" 
d="M80 674h47v-634h294v-40h-341v674zM328 861l-121 -137h-36l88 137h69z" />
    <glyph glyph-name="lacute" unicode="&#x13a;" horiz-adv-x="206" 
d="M79 709h47v-709h-47v709zM180 896l-121 -137h-36l88 137h69z" />
    <glyph glyph-name="Nacute" unicode="&#x143;" horiz-adv-x="624" 
d="M80 0v674h45l255 -395q40 -63 70 -113.5t54 -101.5l2 1q-3 35 -4.5 67.5t-2.5 65.5t-1 68v75v333h46v-674h-44l-250 390q-37 60 -69.5 113t-58.5 107l-2 -1q2 -32 3 -62.5t2 -62.5t1 -68v-79v-337h-46zM432 855l-121 -137h-36l88 137h69z" />
    <glyph glyph-name="logicalnot" unicode="&#xac;" horiz-adv-x="596" 
d="M556 385v-255h-43v215h-473v40h516z" />
    <glyph glyph-name="nacute" unicode="&#x144;" horiz-adv-x="525" 
d="M79 365q0 34 -1 60t-3 55h46v-85h4q19 40 61 68t100 28q17 0 44.5 -6.5t54 -27.5t45.5 -60.5t19 -105.5v-291h-47v286q0 32 -6.5 62t-21.5 52.5t-40 36t-61 13.5q-51 0 -88.5 -31t-51.5 -79q-7 -18 -7 -42v-298h-47v365zM383 684l-121 -137h-36l88 137h69z" />
    <glyph glyph-name="Ncaron" unicode="&#x147;" horiz-adv-x="624" 
d="M80 0v674h45l255 -395q40 -63 70 -113.5t54 -101.5l2 1q-3 35 -4.5 67.5t-2.5 65.5t-1 68v75v333h46v-674h-44l-250 390q-37 60 -69.5 113t-58.5 107l-2 -1q2 -32 3 -62.5t2 -62.5t1 -68v-79v-337h-46zM306 723l-94 137h47l63 -99h2l64 99h44l-91 -137h-35z" />
    <glyph glyph-name="guillemotleft" unicode="&#xab;" horiz-adv-x="388" 
d="M79 252l140 -179h-49l-140 179l140 179h49zM224 252l140 -179h-50l-139 179l139 179h49z" />
    <glyph glyph-name="guillemotright" unicode="&#xbb;" horiz-adv-x="388" 
d="M24 431h49l140 -179l-140 -179h-49l140 179zM168 431h49l141 -179l-140 -179h-49l139 179z" />
    <glyph glyph-name="ellipsis" unicode="&#x2026;" horiz-adv-x="1000" 
d="M167 -11q-18 0 -29 13t-11 32t11.5 32t29.5 13t29 -13t11 -32q0 -20 -11.5 -32.5t-29.5 -12.5zM499 -11q-18 0 -29 13t-11 32t11.5 32t29.5 13t29 -13t11 -32q0 -20 -11.5 -32.5t-29.5 -12.5zM831 -11q-18 0 -29 13t-11 32t11.5 32t29.5 13t29 -13t11 -32
q0 -20 -11.5 -32.5t-29.5 -12.5z" />
    <glyph glyph-name="ncaron" unicode="&#x148;" horiz-adv-x="525" 
d="M79 365q0 34 -1 60t-3 55h46v-85h4q19 40 61 68t100 28q17 0 44.5 -6.5t54 -27.5t45.5 -60.5t19 -105.5v-291h-47v286q0 32 -6.5 62t-21.5 52.5t-40 36t-61 13.5q-51 0 -88.5 -31t-51.5 -79q-7 -18 -7 -42v-298h-47v365zM246 541l-94 137h47l63 -99h2l64 99h44l-91 -137
h-35z" />
    <glyph glyph-name="Ohungarumlaut" unicode="&#x150;" horiz-adv-x="654" 
d="M324 -11q-60 0 -112.5 23.5t-91.5 67.5t-61 107.5t-22 143.5q0 83 23 149t63 111.5t93.5 69.5t115.5 24q61 0 113.5 -23.5t90.5 -68t59.5 -108t21.5 -142.5q0 -89 -24.5 -155.5t-65.5 -110.5t-93.5 -66t-109.5 -22zM325 29q59 0 104 25.5t76 68.5t46.5 99t15.5 118
q0 53 -14.5 107.5t-44 98.5t-75 71.5t-106.5 27.5q-62 0 -107.5 -27t-75 -71t-44 -100.5t-14.5 -114.5q0 -56 15.5 -110.5t46 -97.5t75 -69t102.5 -26zM373 861l-117 -129h-36l88 129h65zM498 861l-117 -129h-35l88 129h64z" />
    <glyph glyph-name="Otilde" unicode="&#xd5;" horiz-adv-x="654" 
d="M214 716q-1 32 15 57t44 25q14 0 28 -6t31 -15q12 -7 24 -12t25 -5t20 7t9 33h31q0 -34 -14 -56.5t-46 -22.5q-14 0 -27.5 5t-30.5 15q-14 8 -26 13.5t-25 5.5q-14 0 -20 -12.5t-8 -31.5h-30zM324 -11q-60 0 -112.5 23.5t-91.5 67.5t-61 107.5t-22 143.5q0 83 23 149
t63 111.5t93.5 69.5t115.5 24q61 0 113.5 -23.5t90.5 -68t59.5 -108t21.5 -142.5q0 -89 -24.5 -155.5t-65.5 -110.5t-93.5 -66t-109.5 -22zM325 29q59 0 104 25.5t76 68.5t46.5 99t15.5 118q0 53 -14.5 107.5t-44 98.5t-75 71.5t-106.5 27.5q-62 0 -107.5 -27t-75 -71
t-44 -100.5t-14.5 -114.5q0 -56 15.5 -110.5t46 -97.5t75 -69t102.5 -26z" />
    <glyph glyph-name="ohungarumlaut" unicode="&#x151;" horiz-adv-x="520" 
d="M262 491q48 0 88 -17.5t68.5 -50t44.5 -78t16 -101.5q0 -68 -20 -116t-52.5 -79t-72 -45.5t-78.5 -14.5q-45 0 -84.5 17t-68.5 49.5t-45.5 78t-16.5 102.5q0 62 18 109.5t49 80t70.5 49t83.5 16.5zM261 451q-45 0 -77.5 -19t-54 -49t-31.5 -68t-10 -76q0 -45 12.5 -83.5
t35 -66.5t53.5 -44t69 -16q37 0 69 16t55 44t36 67t13 86q0 33 -9.5 69.5t-29.5 67.5t-52.5 51.5t-78.5 20.5zM307 669l-117 -129h-36l88 129h65zM432 669l-117 -129h-35l88 129h64z" />
    <glyph glyph-name="Omacron" unicode="&#x14c;" horiz-adv-x="654" 
d="M324 -11q-60 0 -112.5 23.5t-91.5 67.5t-61 107.5t-22 143.5q0 83 23 149t63 111.5t93.5 69.5t115.5 24q61 0 113.5 -23.5t90.5 -68t59.5 -108t21.5 -142.5q0 -89 -24.5 -155.5t-65.5 -110.5t-93.5 -66t-109.5 -22zM325 29q59 0 104 25.5t76 68.5t46.5 99t15.5 118
q0 53 -14.5 107.5t-44 98.5t-75 71.5t-106.5 27.5q-62 0 -107.5 -27t-75 -71t-44 -100.5t-14.5 -114.5q0 -56 15.5 -110.5t46 -97.5t75 -69t102.5 -26zM442 773v-38h-230v38h230z" />
    <glyph glyph-name="endash" unicode="&#x2013;" horiz-adv-x="500" 
d="M470 273v-38h-440v38h440z" />
    <glyph glyph-name="emdash" unicode="&#x2014;" horiz-adv-x="1000" 
d="M970 273v-38h-940v38h940z" />
    <glyph glyph-name="quotedblleft" unicode="&#x201c;" horiz-adv-x="292" 
d="M39 469q7 28 17.5 61.5t22 64t21.5 55.5t16 36l33 5q-6 -16 -14 -42.5t-15.5 -56.5t-13.5 -60t-9 -53zM158 469q7 28 17.5 61.5t22 64t21.5 55.5t16 36l33 5q-6 -16 -14 -42.5t-15.5 -56.5t-13.5 -60t-9 -53z" />
    <glyph glyph-name="quotedblright" unicode="&#x201d;" horiz-adv-x="292" 
d="M149 691q-7 -28 -17.5 -61.5t-22 -64.5t-21.5 -56t-16 -35l-33 -5q6 15 13.5 41.5t15 56.5t14 60.5t9.5 53.5zM268 691q-7 -28 -17.5 -61.5t-22 -64.5t-21.5 -56t-16 -35l-33 -5q6 15 13.5 41.5t15 56.5t14 60.5t9.5 53.5z" />
    <glyph glyph-name="quoteleft" unicode="&#x2018;" horiz-adv-x="173" 
d="M39 469q7 28 17.5 61.5t22 64t21.5 55.5t16 36l33 5q-6 -16 -14 -42.5t-15.5 -56.5t-13.5 -60t-9 -53z" />
    <glyph glyph-name="quoteright" unicode="&#x2019;" horiz-adv-x="173" 
d="M149 691q-7 -28 -17.5 -61.5t-22 -64.5t-21.5 -56t-16 -35l-33 -5q6 15 13.5 41.5t15 56.5t14 60.5t9.5 53.5z" />
    <glyph glyph-name="divide" unicode="&#xf7;" horiz-adv-x="596" 
d="M339 442q0 -19 -11.5 -31.5t-29.5 -12.5t-29 12.5t-11 31.5t11.5 31.5t29.5 12.5t29 -12.5t11 -31.5zM39 247v40h516v-40h-516zM338 92q0 -19 -11.5 -31.5t-29.5 -12.5t-29 12.5t-11 31.5t11.5 31.5t29.5 12.5t29 -12.5t11 -31.5z" />
    <glyph glyph-name="omacron" unicode="&#x14d;" horiz-adv-x="520" 
d="M262 491q48 0 88 -17.5t68.5 -50t44.5 -78t16 -101.5q0 -68 -20 -116t-52.5 -79t-72 -45.5t-78.5 -14.5q-45 0 -84.5 17t-68.5 49.5t-45.5 78t-16.5 102.5q0 62 18 109.5t49 80t70.5 49t83.5 16.5zM261 451q-45 0 -77.5 -19t-54 -49t-31.5 -68t-10 -76q0 -45 12.5 -83.5
t35 -66.5t53.5 -44t69 -16q37 0 69 16t55 44t36 67t13 86q0 33 -9.5 69.5t-29.5 67.5t-52.5 51.5t-78.5 20.5zM375 579v-38h-230v38h230z" />
    <glyph glyph-name="Racute" unicode="&#x154;" horiz-adv-x="496" 
d="M80 665q30 7 69 10.5t73 3.5q66 0 108 -14t70 -42q22 -21 34.5 -53t12.5 -67q0 -69 -36 -112.5t-94 -63.5v-2q42 -13 66.5 -50t36.5 -95q17 -79 28 -120t22 -60h-50q-8 15 -18.5 57.5t-23.5 106.5q-16 74 -50 108t-100 37h-101v-309h-47v665zM127 347h103
q78 0 123.5 39.5t45.5 108.5q0 38 -13 65.5t-36.5 45t-56.5 26t-72 8.5q-33 0 -57 -3t-37 -6v-284zM353 866l-121 -137h-36l88 137h69z" />
    <glyph glyph-name="racute" unicode="&#x155;" horiz-adv-x="290" 
d="M80 338q0 35 -1 71.5t-3 70.5h45v-96h3q16 45 51 76t84 31q4 0 8.5 -0.5t9.5 -1.5v-46q-6 1 -11 1h-12q-49 0 -82 -38t-42 -95q-4 -20 -4 -45v-266h-47zM254 678l-121 -137h-36l88 137h69z" />
    <glyph glyph-name="Rcaron" unicode="&#x158;" horiz-adv-x="496" 
d="M80 665q30 7 69 10.5t73 3.5q66 0 108 -14t70 -42q22 -21 34.5 -53t12.5 -67q0 -69 -36 -112.5t-94 -63.5v-2q42 -13 66.5 -50t36.5 -95q17 -79 28 -120t22 -60h-50q-8 15 -18.5 57.5t-23.5 106.5q-16 74 -50 108t-100 37h-101v-309h-47v665zM127 347h103
q78 0 123.5 39.5t45.5 108.5q0 38 -13 65.5t-36.5 45t-56.5 26t-72 8.5q-33 0 -57 -3t-37 -6v-284zM232 728l-94 137h47l63 -99h2l64 99h44l-91 -137h-35z" />
    <glyph glyph-name="guilsinglleft" unicode="&#x2039;" horiz-adv-x="243" 
d="M79 252l140 -179h-49l-140 179l140 179h49z" />
    <glyph glyph-name="guilsinglright" unicode="&#x203a;" horiz-adv-x="243" 
d="M24 431h49l140 -179l-140 -179h-49l140 179z" />
    <glyph glyph-name="rcaron" unicode="&#x159;" horiz-adv-x="290" 
d="M80 338q0 35 -1 71.5t-3 70.5h45v-96h3q16 45 51 76t84 31q4 0 8.5 -0.5t9.5 -1.5v-46q-6 1 -11 1h-12q-49 0 -82 -38t-42 -95q-4 -20 -4 -45v-266h-47zM160 541l-94 137h47l63 -99h2l64 99h44l-91 -137h-35z" />
    <glyph glyph-name="Scaron" unicode="&#x160;" horiz-adv-x="455" 
d="M59 74q28 -20 65 -32t79 -12q75 0 117.5 38.5t42.5 101.5q0 57 -31 93t-103 65q-78 28 -124 72t-46 114q0 37 14.5 68.5t40 54t61 35t77.5 12.5q48 0 81 -10t50 -21l-18 -40q-14 10 -44 20.5t-72 10.5q-40 0 -67.5 -11.5t-44 -29.5t-24 -39.5t-7.5 -41.5q0 -56 33 -89.5
t104 -61.5q41 -17 72 -36t52 -42t31.5 -52t10.5 -66t-13 -70.5t-39.5 -59t-66 -40.5t-91.5 -15q-21 0 -43.5 3.5t-43.5 9.5t-39.5 14t-31.5 17zM221 710l-103 112h51l70 -77h2l69 77h48l-100 -112h-37z" />
    <glyph glyph-name="quotesinglbase" unicode="&#x201a;" horiz-adv-x="173" 
d="M24 -126q6 15 13.5 41.5t15 56.5t14 60.5t9.5 53.5l58 10q-7 -28 -17.5 -61.5t-22 -64.5t-21.5 -56t-16 -35z" />
    <glyph glyph-name="quotedblbase" unicode="&#x201e;" horiz-adv-x="292" 
d="M24 -126q6 15 13.5 41.5t15 56.5t14 60.5t9.5 53.5l58 10q-7 -28 -17.5 -61.5t-22 -64.5t-21.5 -56t-16 -35zM143 -126q6 15 13.5 41.5t15 56.5t14 60.5t9.5 53.5l58 10q-7 -28 -17.5 -61.5t-22 -64.5t-21.5 -56t-16 -35z" />
    <glyph glyph-name="scaron" unicode="&#x161;" horiz-adv-x="366" 
d="M60 63q19 -12 46 -22.5t59 -10.5q57 0 83.5 26.5t26.5 64.5q0 39 -24 63.5t-75 45.5q-58 23 -89 54.5t-31 76.5q0 26 10 49.5t29 41.5t46 28.5t61 10.5q32 0 59 -9t45 -21l-19 -39q-12 9 -34.5 19t-57.5 10q-45 0 -68.5 -25t-23.5 -58q0 -37 24 -57.5t73 -40.5
q57 -23 89.5 -55.5t32.5 -87.5q0 -63 -44 -100t-116 -37q-35 0 -66 9t-54 24zM171 540l-94 137h47l63 -99h2l64 99h44l-91 -137h-35z" />
    <glyph glyph-name="Sacute" unicode="&#x15a;" horiz-adv-x="455" 
d="M59 74q28 -20 65 -32t79 -12q75 0 117.5 38.5t42.5 101.5q0 57 -31 93t-103 65q-78 28 -124 72t-46 114q0 37 14.5 68.5t40 54t61 35t77.5 12.5q48 0 81 -10t50 -21l-18 -40q-14 10 -44 20.5t-72 10.5q-40 0 -67.5 -11.5t-44 -29.5t-24 -39.5t-7.5 -41.5q0 -56 33 -89.5
t104 -61.5q41 -17 72 -36t52 -42t31.5 -52t10.5 -66t-13 -70.5t-39.5 -59t-66 -40.5t-91.5 -15q-21 0 -43.5 3.5t-43.5 9.5t-39.5 14t-31.5 17zM303 871l-121 -137h-36l88 137h69z" />
    <glyph glyph-name="sacute" unicode="&#x15b;" horiz-adv-x="366" 
d="M60 63q19 -12 46 -22.5t59 -10.5q57 0 83.5 26.5t26.5 64.5q0 39 -24 63.5t-75 45.5q-58 23 -89 54.5t-31 76.5q0 26 10 49.5t29 41.5t46 28.5t61 10.5q32 0 59 -9t45 -21l-19 -39q-12 9 -34.5 19t-57.5 10q-45 0 -68.5 -25t-23.5 -58q0 -37 24 -57.5t73 -40.5
q57 -23 89.5 -55.5t32.5 -87.5q0 -63 -44 -100t-116 -37q-35 0 -66 9t-54 24zM260 678l-121 -137h-36l88 137h69z" />
    <glyph glyph-name="Aacute" unicode="&#xc1;" horiz-adv-x="574" 
d="M160 235l-82 -235h-48l238 674h46l237 -674h-49l-82 235h-260zM405 275l-79 223q-12 35 -19.5 63.5t-15.5 57.5h-2q-8 -30 -16 -58.5t-19 -60.5l-80 -225h231zM425 822l-130 -112h-40l98 112h72z" />
    <glyph glyph-name="Tcaron" unicode="&#x164;" horiz-adv-x="456" 
d="M205 634h-214v40h475v-40h-214v-634h-47v634zM212 724l-94 137h47l63 -99h2l64 99h44l-91 -137h-35z" />
    <glyph glyph-name="tcaron" unicode="&#x165;" horiz-adv-x="303" 
d="M145 586v-106h133v-38h-133v-313q0 -48 15.5 -73.5t53.5 -25.5q18 0 31 2t22 5l5 -36q-24 -11 -64 -11q-33 0 -54.5 11t-34 30.5t-17.5 47t-5 59.5v304h-79v38h79v88zM289 641q0 -38 -20 -67.5t-42 -46.5l-31 23q18 16 35 38.5t17 52.5q0 20 -15 38.5t-32 34.5l46 10
q16 -14 29 -35.5t13 -47.5z" />
    <glyph glyph-name="Iacute" unicode="&#xcd;" horiz-adv-x="208" 
d="M127 674v-674h-47v674h47zM237 822l-131 -112h-40l98 112h73z" />
    <glyph glyph-name="Zcaron" unicode="&#x17d;" horiz-adv-x="525" 
d="M33 31l396 600v3h-363v40h423v-31l-396 -600v-3h400v-40h-460v31zM258 710l-103 112h51l70 -77h2l69 77h48l-100 -112h-37z" />
    <glyph glyph-name="zcaron" unicode="&#x17e;" horiz-adv-x="395" 
d="M16 29l252 341q14 17 27 34t27 35v2h-285v39h342v-32l-253 -341l-50 -66v-2h304v-39h-364v29zM198 540l-94 137h47l63 -99h2l64 99h44l-91 -137h-35z" />
    <glyph glyph-name="Umacron" unicode="&#x16a;" horiz-adv-x="613" 
d="M127 674v-410q0 -63 13.5 -107.5t37.5 -72.5t56 -41t68 -13q40 0 74 13.5t58.5 42t38 72.5t13.5 106v410h47v-406q0 -77 -19 -130t-51 -86t-74.5 -48t-89.5 -15q-43 0 -82.5 13.5t-70 45.5t-48.5 83.5t-18 128.5v414h47zM421 762v-38h-230v38h230z" />
    <glyph glyph-name="Oacute" unicode="&#xd3;" horiz-adv-x="654" 
d="M471 822l-131 -112h-40l98 112h73zM324 -11q-60 0 -112.5 23.5t-91.5 67.5t-61 107.5t-22 143.5q0 83 23 149t63 111.5t93.5 69.5t115.5 24q61 0 113.5 -23.5t90.5 -68t59.5 -108t21.5 -142.5q0 -89 -24.5 -155.5t-65.5 -110.5t-93.5 -66t-109.5 -22zM325 29
q59 0 104 25.5t76 68.5t46.5 99t15.5 118q0 53 -14.5 107.5t-44 98.5t-75 71.5t-106.5 27.5q-62 0 -107.5 -27t-75 -71t-44 -100.5t-14.5 -114.5q0 -56 15.5 -110.5t46 -97.5t75 -69t102.5 -26z" />
    <glyph glyph-name="Ocircumflex" unicode="&#xd4;" horiz-adv-x="654" 
d="M345 822l102 -112h-51l-69 78h-2l-69 -78h-49l100 112h38zM324 -11q-60 0 -112.5 23.5t-91.5 67.5t-61 107.5t-22 143.5q0 83 23 149t63 111.5t93.5 69.5t115.5 24q61 0 113.5 -23.5t90.5 -68t59.5 -108t21.5 -142.5q0 -89 -24.5 -155.5t-65.5 -110.5t-93.5 -66
t-109.5 -22zM325 29q59 0 104 25.5t76 68.5t46.5 99t15.5 118q0 53 -14.5 107.5t-44 98.5t-75 71.5t-106.5 27.5q-62 0 -107.5 -27t-75 -71t-44 -100.5t-14.5 -114.5q0 -56 15.5 -110.5t46 -97.5t75 -69t102.5 -26z" />
    <glyph glyph-name="umacron" unicode="&#x16b;" horiz-adv-x="519" 
d="M441 117q0 -32 1 -61t3 -56h-46v83h-4q-9 -16 -23 -33t-34 -30.5t-45.5 -22t-57.5 -8.5q-23 0 -51 8t-52 30.5t-40.5 63.5t-16.5 107v282h48v-272q0 -39 6.5 -71.5t21 -56t38 -37t58.5 -13.5q26 0 48 8.5t39.5 22.5t30 31t19.5 35q4 11 6.5 24.5t2.5 27.5v301h48v-363z
M375 568v-38h-230v38h230z" />
    <glyph glyph-name="Uring" unicode="&#x16e;" horiz-adv-x="613" 
d="M127 674v-410q0 -63 13.5 -107.5t37.5 -72.5t56 -41t68 -13q40 0 74 13.5t58.5 42t38 72.5t13.5 106v410h47v-406q0 -77 -19 -130t-51 -86t-74.5 -48t-89.5 -15q-43 0 -82.5 13.5t-70 45.5t-48.5 83.5t-18 128.5v414h47zM397 815q0 -38 -26.5 -64.5t-64.5 -26.5
t-64.5 26.5t-26.5 64.5t26.5 64.5t64.5 26.5t64.5 -26.5t26.5 -64.5zM250 815q0 -24 16.5 -40.5t39.5 -16.5q24 0 40.5 16.5t16.5 40.5q0 23 -16.5 40t-40.5 17q-23 0 -39.5 -17t-16.5 -40z" />
    <glyph glyph-name="Uacute" unicode="&#xda;" horiz-adv-x="613" 
d="M127 674v-410q0 -63 13.5 -107.5t37.5 -72.5t56 -41t68 -13q40 0 74 13.5t58.5 42t38 72.5t13.5 106v410h47v-406q0 -77 -19 -130t-51 -86t-74.5 -48t-89.5 -15q-43 0 -82.5 13.5t-70 45.5t-48.5 83.5t-18 128.5v414h47zM444 822l-130 -112h-40l98 112h72z" />
    <glyph glyph-name="uring" unicode="&#x16f;" horiz-adv-x="519" 
d="M441 117q0 -32 1 -61t3 -56h-46v83h-4q-9 -16 -23 -33t-34 -30.5t-45.5 -22t-57.5 -8.5q-23 0 -51 8t-52 30.5t-40.5 63.5t-16.5 107v282h48v-272q0 -39 6.5 -71.5t21 -56t38 -37t58.5 -13.5q26 0 48 8.5t39.5 22.5t30 31t19.5 35q4 11 6.5 24.5t2.5 27.5v301h48v-363z
M351 621q0 -38 -26.5 -64.5t-64.5 -26.5t-64.5 26.5t-26.5 64.5t26.5 64.5t64.5 26.5t64.5 -26.5t26.5 -64.5zM204 621q0 -24 16.5 -40.5t39.5 -16.5q24 0 40.5 16.5t16.5 40.5q0 23 -16.5 40t-40.5 17q-23 0 -39.5 -17t-16.5 -40z" />
    <glyph glyph-name="Uhungarumlaut" unicode="&#x170;" horiz-adv-x="613" 
d="M127 674v-410q0 -63 13.5 -107.5t37.5 -72.5t56 -41t68 -13q40 0 74 13.5t58.5 42t38 72.5t13.5 106v410h47v-406q0 -77 -19 -130t-51 -86t-74.5 -48t-89.5 -15q-43 0 -82.5 13.5t-70 45.5t-48.5 83.5t-18 128.5v414h47zM349 850l-117 -129h-36l88 129h65zM474 850
l-117 -129h-35l88 129h64z" />
    <glyph glyph-name="uhungarumlaut" unicode="&#x171;" horiz-adv-x="519" 
d="M441 117q0 -32 1 -61t3 -56h-46v83h-4q-9 -16 -23 -33t-34 -30.5t-45.5 -22t-57.5 -8.5q-23 0 -51 8t-52 30.5t-40.5 63.5t-16.5 107v282h48v-272q0 -39 6.5 -71.5t21 -56t38 -37t58.5 -13.5q26 0 48 8.5t39.5 22.5t30 31t19.5 35q4 11 6.5 24.5t2.5 27.5v301h48v-363z
M311 659l-117 -129h-36l88 129h65zM436 659l-117 -129h-35l88 129h64z" />
    <glyph glyph-name="Uogonek" unicode="&#x172;" horiz-adv-x="613" 
d="M127 674v-410q0 -63 13.5 -107.5t37.5 -72.5t56 -41t68 -13q40 0 74 13.5t58.5 42t38 72.5t13.5 106v410h47v-406q0 -77 -19 -130t-51 -86t-74.5 -48t-89.5 -15q-43 0 -82.5 13.5t-70 45.5t-48.5 83.5t-18 128.5v414h47zM334 -8q-18 -10 -35 -22.5t-30.5 -27.5
t-21.5 -31.5t-8 -32.5q-1 -25 13.5 -36.5t31.5 -11.5q11 0 24 2t25 8l8 -31q-29 -15 -68 -15q-34 0 -56 20t-22 55q0 19 10 39t25 37t32 29.5t31 17.5h41z" />
    <glyph glyph-name="uogonek" unicode="&#x173;" horiz-adv-x="519" 
d="M441 117q0 -32 1 -61t3 -56h-46v83h-4q-9 -16 -23 -33t-34 -30.5t-45.5 -22t-57.5 -8.5q-23 0 -51 8t-52 30.5t-40.5 63.5t-16.5 107v282h48v-272q0 -39 6.5 -71.5t21 -56t38 -37t58.5 -13.5q26 0 48 8.5t39.5 22.5t30 31t19.5 35q4 11 6.5 24.5t2.5 27.5v301h48v-363z
M272 -8q-18 -10 -35 -22.5t-30.5 -27.5t-21.5 -31.5t-8 -32.5q-1 -25 13.5 -36.5t31.5 -11.5q11 0 24 2t25 8l8 -31q-29 -15 -68 -15q-34 0 -56 20t-22 55q0 19 10 39t25 37t32 29.5t31 17.5h41z" />
    <glyph glyph-name="Yacute" unicode="&#xdd;" horiz-adv-x="495" 
d="M226 0v292l-210 382h53l108 -199q21 -40 39.5 -74.5t35.5 -71.5h2q15 35 34.5 70t42.5 77l112 198h53l-223 -383v-291h-47zM394 822l-130 -112h-40l97 112h73z" />
    <glyph glyph-name="yacute" unicode="&#xfd;" horiz-adv-x="431" 
d="M62 480l122 -312q10 -26 19 -53.5t16 -50.5h2q7 22 16 49.5t20 56.5l114 310h50l-139 -352q-21 -56 -39.5 -101.5t-37.5 -82t-38.5 -64.5t-43.5 -49q-28 -25 -51.5 -36.5t-31.5 -14.5l-16 39q18 8 40 21t43 34q18 18 39.5 47.5t38.5 71.5q6 16 6 21q0 7 -6 21l-173 445
h50zM346 677l-121 -137h-36l88 137h69z" />
    <glyph glyph-name="Zdotaccent" unicode="&#x17b;" horiz-adv-x="525" 
d="M33 31l396 600v3h-363v40h423v-31l-396 -600v-3h400v-40h-460v31zM223 763q0 17 11 28.5t28 11.5t28.5 -11.5t11.5 -28.5t-11.5 -28t-28.5 -11t-28 11t-11 28z" />
    <glyph glyph-name="Lslash" unicode="&#x141;" horiz-adv-x="443" 
d="M83 0v289l-88 -68v44l88 68v341h47v-306l137 105v-45l-137 -105v-283h294v-40h-341z" />
    <glyph glyph-name="zdotaccent" unicode="&#x17c;" horiz-adv-x="395" 
d="M16 29l252 341q14 17 27 34t27 35v2h-285v39h342v-32l-253 -341l-50 -66v-2h304v-39h-364v29zM158 569q0 17 11 28.5t28 11.5t28.5 -11.5t11.5 -28.5t-11.5 -28t-28.5 -11t-28 11t-11 28z" />
    <glyph glyph-name="caron" unicode="&#x2c7;" horiz-adv-x="300" 
d="M134 540l-94 137h47l63 -99h2l64 99h44l-91 -137h-35z" />
    <glyph glyph-name="nonmarkingreturn" unicode="&#xa;" horiz-adv-x="214" 
 />
    <glyph glyph-name="nonmarkingreturn" unicode="&#xd;" horiz-adv-x="214" 
 />
    <glyph glyph-name="Eth" unicode="&#xd0;" horiz-adv-x="636" 
d="M-4 361h88v306q38 6 78.5 10t88.5 4q90 0 155 -23t107 -66q42 -42 63.5 -100t21.5 -139q0 -78 -21 -142.5t-66 -115.5q-45 -48 -116 -74.5t-167 -26.5q-38 0 -73.5 1t-70.5 5v322h-88v39zM334 322h-203v-283q20 -3 47 -4t57 -1q157 0 235.5 83.5t78.5 235.5
q1 65 -16.5 118t-54.5 91t-94 58.5t-136 20.5q-77 0 -117 -10v-270h203v-39z" />
    <glyph glyph-name="eth" unicode="&#xf0;" horiz-adv-x="510" 
d="M251 29q38 0 69 16.5t52.5 45t33.5 67.5t12 85q0 44 -8.5 82t-27.5 66t-50.5 44t-77.5 16q-45 0 -76.5 -20.5t-51.5 -52t-29 -69.5t-9 -72q0 -43 12.5 -81t34 -66t51.5 -44.5t65 -16.5zM105 557l121 59q-23 18 -51.5 35.5t-57.5 32.5l22 36q33 -18 65.5 -39t61.5 -44
l119 61l16 -34l-104 -52q86 -73 127 -162q20 -42 31.5 -91.5t11.5 -109.5q0 -69 -19 -118.5t-49.5 -81t-69.5 -46t-78 -14.5q-45 0 -83.5 17.5t-66 49.5t-43.5 77.5t-16 101.5q0 61 18.5 109t48 80.5t67.5 49.5t77 17q35 0 67.5 -10.5t66.5 -44.5l2 3q-23 42 -54.5 79.5
t-76.5 72.5l-139 -67z" />
    <glyph glyph-name="Thorn" unicode="&#xde;" horiz-adv-x="492" 
d="M80 674h47v-138q23 5 50 6.5t50 1.5q60 0 101.5 -14.5t69.5 -40.5q23 -23 36 -54t13 -67q0 -48 -17.5 -85.5t-49 -63.5t-76.5 -39.5t-99 -13.5q-19 0 -39.5 1.5t-38.5 4.5v-172h-47v674zM127 213q20 -5 40 -6t40 -1q93 0 142.5 41t49.5 114q0 37 -13 64.5t-36 45t-55 26
t-71 8.5q-32 0 -57.5 -3t-39.5 -7v-282z" />
    <glyph glyph-name="thorn" unicode="&#xfe;" horiz-adv-x="540" 
d="M126 664v-268h2q26 45 67 70t104 25q43 0 80 -17.5t63.5 -50t41.5 -77t15 -98.5q0 -66 -18 -114.5t-48 -81t-68.5 -48t-80.5 -15.5q-49 0 -90 22t-66 64h-2v-273h-47v862h47zM126 185q0 -23 6 -42q17 -55 59 -84.5t96 -29.5q37 0 67.5 15.5t52 43.5t33 68t11.5 90
q0 41 -11 78t-32 65.5t-51.5 45t-69.5 16.5q-50 0 -92.5 -32.5t-59.5 -86.5q-4 -12 -6.5 -26t-2.5 -27v-94z" />
    <glyph glyph-name="onehalf" unicode="&#xbd;" horiz-adv-x="706" 
d="M110 266v349h-2l-68 -35l-9 34l83 42h36v-390h-40zM99 -11l382 672h40l-383 -672h-39zM408 24l62 60q63 60 97 105.5t34 88.5q0 33 -20 57.5t-65 24.5q-28 0 -49 -11.5t-33 -21.5l-15 27q17 17 45 29t62 12q33 0 56 -10.5t36.5 -26.5t19.5 -35t6 -36q0 -29 -10.5 -55.5
t-29.5 -52t-44.5 -52t-56.5 -55.5l-35 -34v-2h183v-36h-243v24z" />
    <glyph glyph-name="onequarter" unicode="&#xbc;" horiz-adv-x="706" 
d="M126 266v349h-2l-68 -35l-9 34l83 42h36v-390h-40zM116 -11l382 672h40l-383 -672h-39zM567 0v111h-200v24l204 260h36v-251h64v-33h-64v-111h-40zM567 288q0 17 0.5 31.5t1.5 25.5h-2q-9 -15 -16.5 -26.5t-15.5 -23.5l-117 -149v-2h149v144z" />
    <glyph glyph-name="onesuperior" unicode="&#xb9;" horiz-adv-x="288" 
d="M143 266v349h-2l-68 -35l-8 34l82 42h37v-390h-41z" />
    <glyph glyph-name="threequarters" unicode="&#xbe;" horiz-adv-x="706" 
d="M52 629q15 11 40.5 21.5t57.5 10.5q30 0 50.5 -8t33 -20.5t18.5 -29t6 -33.5q0 -29 -18.5 -53t-53.5 -38v-2q40 -7 64.5 -34.5t24.5 -65.5q0 -22 -9 -42.5t-26.5 -37t-44.5 -26.5t-63 -10q-32 0 -59 8t-42 19l16 33q10 -8 34.5 -17t53.5 -9q27 0 45.5 7.5t30 19.5
t16.5 26t5 28q0 23 -10.5 39t-27 25.5t-37.5 14t-42 4.5h-24v32h26q13 0 30.5 4.5t32.5 13.5t25.5 23.5t10.5 35.5t-16 40t-54 19q-27 0 -48 -10t-31 -18zM154 -11l383 672h40l-383 -672h-40zM578 0v111h-200v24l204 260h36v-251h64v-33h-64v-111h-40zM578 288
q0 17 0.5 31.5t1.5 25.5h-2q-10 -16 -16.5 -27.5t-14.5 -22.5l-119 -149v-2h150v144z" />
    <glyph glyph-name="threesuperior" unicode="&#xb3;" horiz-adv-x="316" 
d="M59 630q15 11 41 21t58 10q29 0 49.5 -8t33 -20.5t18.5 -29t6 -33.5q0 -29 -18.5 -53t-53.5 -38v-2q40 -7 64.5 -34.5t24.5 -65.5q0 -22 -9 -42.5t-26.5 -37t-44.5 -26.5t-63 -10q-32 0 -59 8t-42 19l16 33q10 -8 34.5 -17t53.5 -9q27 0 45.5 7.5t30 19.5t16.5 26t5 28
q0 23 -10.5 39t-27 25.5t-37.5 14t-42 4.5h-24v32h26q13 0 30.5 4.5t32.5 13.5t25.5 23.5t10.5 35.5t-16.5 40t-52.5 19q-27 0 -48.5 -10t-31.5 -18z" />
    <glyph glyph-name="twosuperior" unicode="&#xb2;" horiz-adv-x="330" 
d="M49 290l62 60q63 60 96.5 105.5t33.5 88.5q0 33 -19.5 57t-64.5 24q-28 0 -49 -11t-33 -21l-15 27q17 16 45 28.5t62 12.5q33 0 55.5 -10.5t36.5 -26.5t20 -35t6 -36q0 -29 -10.5 -55.5t-29.5 -52t-44.5 -52t-56.5 -55.5l-35 -35v-2h183v-35h-243v24z" />
    <glyph glyph-name="brokenbar" unicode="&#xa6;" horiz-adv-x="210" 
d="M126 175v-350h-42v350h42zM126 675v-350h-42v350h42z" />
    <glyph glyph-name="multiply" unicode="&#xd7;" horiz-adv-x="596" 
d="M70 526l228 -233l228 233l30 -30l-229 -233l228 -233l-30 -30l-227 232l-228 -232l-30 30l228 233l-228 233z" />
    <glyph glyph-name="Aring" unicode="&#xc5;" horiz-adv-x="574" 
d="M160 235l-82 -235h-48l229 650q-25 10 -41 33t-16 52q0 38 26.5 64.5t64.5 26.5t64.5 -26.5t26.5 -64.5q0 -30 -17.5 -53.5t-43.5 -32.5l228 -649h-49l-82 235h-260zM405 275l-79 223q-12 35 -19.5 63.5t-15.5 57.5h-2q-8 -30 -16 -58.5t-19 -60.5l-80 -225h231zM237 735
q0 -24 16.5 -40.5t39.5 -16.5q24 0 40.5 16.5t16.5 40.5q0 23 -16.5 40t-40.5 17q-23 0 -39.5 -17t-16.5 -40z" />
    <glyph glyph-name="Ccedilla" unicode="&#xc7;" horiz-adv-x="566" 
d="M525 23q-24 -13 -69.5 -23t-109.5 -10l-28 -44q28 -4 48 -22.5t20 -47.5q0 -39 -28 -56.5t-64 -17.5q-17 0 -34 5t-28 11l12 35q23 -14 54 -14q18 0 32 8.5t14 26.5q0 23 -23 32.5t-54 13.5l43 72q-54 6 -103.5 29t-87 64.5t-60 103t-22.5 144.5q0 77 23.5 141.5t67 111
t105 72.5t138.5 26q63 0 99.5 -10t51.5 -18l-15 -41q-26 13 -60 21t-76 8q-65 0 -117.5 -21t-89.5 -61.5t-57 -98.5t-20 -131q0 -70 19 -125.5t54.5 -94.5t87 -60t116.5 -21q42 0 80.5 8t66.5 22z" />
    <glyph glyph-name="Ntilde" unicode="&#xd1;" horiz-adv-x="624" 
d="M80 0v674h45l255 -395q40 -63 70 -113.5t54 -101.5l2 1q-3 35 -4.5 67.5t-2.5 65.5t-1 68v75v333h46v-674h-44l-250 390q-37 60 -69.5 113t-58.5 107l-2 -1q2 -32 3 -62.5t2 -62.5t1 -68v-79v-337h-46zM213 716q-1 32 15 57t45 25q14 0 27.5 -6t30.5 -15q13 -7 25 -12
t25 -5t20 7t9 33h30q0 -34 -14 -56.5t-46 -22.5q-13 0 -26.5 5t-31.5 15q-14 8 -26 13.5t-25 5.5q-14 0 -19.5 -12.5t-7.5 -31.5h-31z" />
    <glyph glyph-name="agrave" unicode="&#xe0;" horiz-adv-x="446" 
d="M372 114q0 -29 1 -58t6 -56h-44l-7 68h-2q-9 -14 -23 -28t-32.5 -25.5t-42 -18.5t-51.5 -7q-35 0 -61.5 11.5t-43.5 30t-25.5 42.5t-8.5 48q0 85 71.5 131t215.5 44v13q0 19 -3.5 43.5t-15.5 46.5t-36 37t-65 15q-31 0 -61.5 -9.5t-55.5 -26.5l-15 35q32 22 66 31.5
t71 9.5q50 0 81.5 -17t49.5 -44t24.5 -60.5t6.5 -66.5v-189zM325 257q-38 1 -79.5 -3t-76.5 -17.5t-58 -39.5t-23 -69q0 -51 29 -75t65 -24q29 0 52 8t40 21.5t28.5 30.5t17.5 35q5 20 5 29v104zM157 677l88 -137h-36l-121 137h69z" />
    <glyph glyph-name="acircumflex" unicode="&#xe2;" horiz-adv-x="446" 
d="M372 114q0 -29 1 -58t6 -56h-44l-7 68h-2q-9 -14 -23 -28t-32.5 -25.5t-42 -18.5t-51.5 -7q-35 0 -61.5 11.5t-43.5 30t-25.5 42.5t-8.5 48q0 85 71.5 131t215.5 44v13q0 19 -3.5 43.5t-15.5 46.5t-36 37t-65 15q-31 0 -61.5 -9.5t-55.5 -26.5l-15 35q32 22 66 31.5
t71 9.5q50 0 81.5 -17t49.5 -44t24.5 -60.5t6.5 -66.5v-189zM325 257q-38 1 -79.5 -3t-76.5 -17.5t-58 -39.5t-23 -69q0 -51 29 -75t65 -24q29 0 52 8t40 21.5t28.5 30.5t17.5 35q5 20 5 29v104zM234 677l93 -137h-48l-61 99h-2l-62 -99h-45l90 137h35z" />
    <glyph glyph-name="atilde" unicode="&#xe3;" horiz-adv-x="446" 
d="M372 114q0 -29 1 -58t6 -56h-44l-7 68h-2q-9 -14 -23 -28t-32.5 -25.5t-42 -18.5t-51.5 -7q-35 0 -61.5 11.5t-43.5 30t-25.5 42.5t-8.5 48q0 85 71.5 131t215.5 44v13q0 19 -3.5 43.5t-15.5 46.5t-36 37t-65 15q-31 0 -61.5 -9.5t-55.5 -26.5l-15 35q32 22 66 31.5
t71 9.5q50 0 81.5 -17t49.5 -44t24.5 -60.5t6.5 -66.5v-189zM325 257q-38 1 -79.5 -3t-76.5 -17.5t-58 -39.5t-23 -69q0 -51 29 -75t65 -24q29 0 52 8t40 21.5t28.5 30.5t17.5 35q5 20 5 29v104zM112 563q-1 33 14 58t44 25q16 0 29 -6t32 -16q12 -6 22.5 -11t24.5 -5
q11 0 17.5 8.5t8.5 32.5h30q0 -35 -14 -57.5t-46 -22.5q-14 0 -27.5 6t-28.5 15q-15 8 -25.5 13t-21.5 5q-13 0 -19 -12.5t-8 -32.5h-32z" />
    <glyph glyph-name="aring" unicode="&#xe5;" horiz-adv-x="446" 
d="M372 114q0 -29 1 -58t6 -56h-44l-7 68h-2q-9 -14 -23 -28t-32.5 -25.5t-42 -18.5t-51.5 -7q-35 0 -61.5 11.5t-43.5 30t-25.5 42.5t-8.5 48q0 85 71.5 131t215.5 44v13q0 19 -3.5 43.5t-15.5 46.5t-36 37t-65 15q-31 0 -61.5 -9.5t-55.5 -26.5l-15 35q32 22 66 31.5
t71 9.5q50 0 81.5 -17t49.5 -44t24.5 -60.5t6.5 -66.5v-189zM325 257q-38 1 -79.5 -3t-76.5 -17.5t-58 -39.5t-23 -69q0 -51 29 -75t65 -24q29 0 52 8t40 21.5t28.5 30.5t17.5 35q5 20 5 29v104zM310 621q0 -38 -26.5 -64.5t-64.5 -26.5t-64.5 26.5t-26.5 64.5t26.5 64.5
t64.5 26.5t64.5 -26.5t26.5 -64.5zM163 621q0 -24 16.5 -40.5t39.5 -16.5q24 0 40.5 16.5t16.5 40.5q0 23 -16.5 40t-40.5 17q-23 0 -39.5 -17t-16.5 -40z" />
    <glyph glyph-name="ccedilla" unicode="&#xe7;" horiz-adv-x="435" 
d="M403 20q-15 -8 -49 -18.5t-82 -11.5l-29 -44q27 -4 47.5 -21.5t20.5 -45.5q0 -42 -27.5 -59.5t-65.5 -17.5q-14 0 -31 4.5t-29 11.5l12 34q22 -13 53 -13q19 0 33 7.5t14 27.5q-1 23 -23 32.5t-54 12.5l43 73q-44 5 -80 24.5t-61.5 51.5t-39.5 74.5t-14 92.5q0 57 18 104
t50 80.5t76.5 52.5t97.5 19q43 0 75.5 -9.5t46.5 -19.5l-17 -40q-17 10 -44 19t-66 9q-47 0 -82.5 -17.5t-59.5 -46.5t-36 -67.5t-12 -80.5q0 -47 13.5 -85.5t38.5 -65.5t59 -41.5t75 -14.5q42 0 70 9t46 18z" />
    <glyph glyph-name="egrave" unicode="&#xe8;" horiz-adv-x="474" 
d="M87 246q0 -59 14.5 -99.5t39 -66.5t57 -37.5t68.5 -11.5q48 0 78.5 9t50.5 18l12 -37q-14 -8 -50.5 -19.5t-96.5 -11.5q-51 0 -91.5 18t-69 50t-43.5 76.5t-15 97.5q0 60 16 107.5t44 81.5t66.5 52t83.5 18q58 0 93.5 -24t55.5 -57.5t27 -70.5t7 -64v-16t-1 -14zM385 284
q0 26 -6 55.5t-22 54.5t-43 41.5t-69 16.5q-38 0 -66 -16t-47 -40.5t-29 -54t-13 -57.5h295zM206 677l88 -137h-36l-121 137h69z" />
    <glyph glyph-name="ecircumflex" unicode="&#xea;" horiz-adv-x="474" 
d="M87 246q0 -59 14.5 -99.5t39 -66.5t57 -37.5t68.5 -11.5q48 0 78.5 9t50.5 18l12 -37q-14 -8 -50.5 -19.5t-96.5 -11.5q-51 0 -91.5 18t-69 50t-43.5 76.5t-15 97.5q0 60 16 107.5t44 81.5t66.5 52t83.5 18q58 0 93.5 -24t55.5 -57.5t27 -70.5t7 -64v-16t-1 -14zM385 284
q0 26 -6 55.5t-22 54.5t-43 41.5t-69 16.5q-38 0 -66 -16t-47 -40.5t-29 -54t-13 -57.5h295zM267 677l93 -137h-48l-61 99h-2l-62 -99h-45l90 137h35z" />
    <glyph glyph-name="edieresis" unicode="&#xeb;" horiz-adv-x="474" 
d="M87 246q0 -59 14.5 -99.5t39 -66.5t57 -37.5t68.5 -11.5q48 0 78.5 9t50.5 18l12 -37q-14 -8 -50.5 -19.5t-96.5 -11.5q-51 0 -91.5 18t-69 50t-43.5 76.5t-15 97.5q0 60 16 107.5t44 81.5t66.5 52t83.5 18q58 0 93.5 -24t55.5 -57.5t27 -70.5t7 -64v-16t-1 -14zM385 284
q0 26 -6 55.5t-22 54.5t-43 41.5t-69 16.5q-38 0 -66 -16t-47 -40.5t-29 -54t-13 -57.5h295zM133 601q0 16 11 27.5t27 11.5t27.5 -11.5t11.5 -27.5t-11.5 -27t-27.5 -11t-27 11t-11 27zM301 601q0 16 11 27.5t27 11.5t27.5 -11.5t11.5 -27.5t-11.5 -27t-27.5 -11t-27 11
t-11 27z" />
    <glyph glyph-name="igrave" unicode="&#xec;" horiz-adv-x="206" 
d="M79 0v480h47v-480h-47zM43 677l88 -137h-36l-121 137h69z" />
    <glyph glyph-name="icircumflex" unicode="&#xee;" horiz-adv-x="206" 
d="M79 0v480h47v-480h-47zM119 677l93 -137h-48l-61 99h-2l-62 -99h-45l90 137h35z" />
    <glyph glyph-name="idieresis" unicode="&#xef;" horiz-adv-x="206" 
d="M79 0v480h47v-480h-47zM-20 601q0 16 11 27.5t27 11.5t27.5 -11.5t11.5 -27.5t-11.5 -27t-27.5 -11t-27 11t-11 27zM148 601q0 16 11 27.5t27 11.5t27.5 -11.5t11.5 -27.5t-11.5 -27t-27.5 -11t-27 11t-11 27z" />
    <glyph glyph-name="ntilde" unicode="&#xf1;" horiz-adv-x="525" 
d="M79 365q0 34 -1 60t-3 55h46v-85h4q19 40 61 68t100 28q17 0 44.5 -6.5t54 -27.5t45.5 -60.5t19 -105.5v-291h-47v286q0 32 -6.5 62t-21.5 52.5t-40 36t-61 13.5q-51 0 -88.5 -31t-51.5 -79q-7 -18 -7 -42v-298h-47v365zM152 563q-1 33 14 58t44 25q16 0 29 -6t32 -16
q12 -6 22.5 -11t24.5 -5q11 0 17.5 8.5t8.5 32.5h30q0 -35 -14 -57.5t-46 -22.5q-14 0 -27.5 6t-28.5 15q-15 8 -25.5 13t-21.5 5q-13 0 -19 -12.5t-8 -32.5h-32z" />
    <glyph glyph-name="ograve" unicode="&#xf2;" horiz-adv-x="520" 
d="M262 491q48 0 88 -17.5t68.5 -50t44.5 -78t16 -101.5q0 -68 -20 -116t-52.5 -79t-72 -45.5t-78.5 -14.5q-45 0 -84.5 17t-68.5 49.5t-45.5 78t-16.5 102.5q0 62 18 109.5t49 80t70.5 49t83.5 16.5zM261 451q-45 0 -77.5 -19t-54 -49t-31.5 -68t-10 -76q0 -45 12.5 -83.5
t35 -66.5t53.5 -44t69 -16q37 0 69 16t55 44t36 67t13 86q0 33 -9.5 69.5t-29.5 67.5t-52.5 51.5t-78.5 20.5zM213 677l88 -137h-36l-121 137h69z" />
    <glyph glyph-name="ugrave" unicode="&#xf9;" horiz-adv-x="519" 
d="M441 117q0 -32 1 -61t3 -56h-46v83h-4q-9 -16 -23 -33t-34 -30.5t-45.5 -22t-57.5 -8.5q-23 0 -51 8t-52 30.5t-40.5 63.5t-16.5 107v282h48v-272q0 -39 6.5 -71.5t21 -56t38 -37t58.5 -13.5q26 0 48 8.5t39.5 22.5t30 31t19.5 35q4 11 6.5 24.5t2.5 27.5v301h48v-363z
M220 677l88 -137h-36l-121 137h69z" />
    <glyph glyph-name="ucircumflex" unicode="&#xfb;" horiz-adv-x="519" 
d="M441 117q0 -32 1 -61t3 -56h-46v83h-4q-9 -16 -23 -33t-34 -30.5t-45.5 -22t-57.5 -8.5q-23 0 -51 8t-52 30.5t-40.5 63.5t-16.5 107v282h48v-272q0 -39 6.5 -71.5t21 -56t38 -37t58.5 -13.5q26 0 48 8.5t39.5 22.5t30 31t19.5 35q4 11 6.5 24.5t2.5 27.5v301h48v-363z
M276 677l93 -137h-48l-61 99h-2l-62 -99h-45l90 137h35z" />
    <glyph glyph-name="cent" unicode="&#xa2;" horiz-adv-x="479" 
d="M256 -16v104q-48 5 -79.5 20.5t-57.5 43.5q-26 27 -41.5 70t-15.5 103q0 50 14.5 92.5t40 74t61 51.5t78.5 26v103h40v-102q37 0 67.5 -9t46.5 -19l-17 -37q-17 10 -44 18.5t-67 8.5q-41 0 -73 -17t-54.5 -45.5t-34.5 -65.5t-12 -77q0 -46 13 -83t35.5 -63t53.5 -40
t67 -14q45 0 73.5 9.5t46.5 18.5l12 -35q-12 -8 -42.5 -19t-70.5 -13v-104h-40z" />
    <glyph glyph-name="acute" unicode="&#xb4;" horiz-adv-x="300" 
d="M274 677l-121 -137h-36l88 137h69z" />
    <glyph glyph-name="AE" unicode="&#xc6;" horiz-adv-x="724" 
d="M-2 0l313 674h359l-1 -40h-285l30 -260h244v-40h-239l34 -294h238v-40h-278l-33 269h-208l-125 -269h-49zM376 308l-23 213q-3 26 -6.5 59t-5.5 59h-5q-9 -24 -21.5 -53t-25.5 -59l-99 -219h186z" />
    <glyph glyph-name="Oslash" unicode="&#xd8;" horiz-adv-x="654" 
d="M119 81q-38 45 -60 107t-22 143q0 83 23 149t63 111.5t93.5 69.5t115.5 24q103 0 175 -63l58 80l32 -22l-62 -86q38 -45 60 -107.5t22 -143.5q0 -89 -24.5 -155.5t-65.5 -110.5t-93.5 -66t-109.5 -22q-51 0 -96.5 16.5t-82.5 48.5l-59 -82l-29 23zM325 29q59 0 104 25.5
t76 68.5t46.5 99t15.5 118q0 55 -15.5 111t-47.5 101l-331 -459q29 -30 66.5 -47t85.5 -17zM86 332q0 -57 15.5 -112t47.5 -98l330 460q-29 29 -66.5 46t-85.5 17q-62 0 -107.5 -27t-75 -71t-44 -100.5t-14.5 -114.5z" />
    <glyph glyph-name="plusminus" unicode="&#xb1;" horiz-adv-x="596" 
d="M319 567v-207h237v-40h-237v-215h-42v215h-237v40h237v207h42zM556 39v-39h-516v39h516z" />
    <glyph glyph-name="yen" unicode="&#xa5;" horiz-adv-x="479" 
d="M210 0v186h-152v36h152v78h-152v36h134l-167 314h50l121 -232q12 -23 21.5 -42t17.5 -39h4q6 19 16 40t23 44l126 229h50l-180 -314h134v-36h-153v-78h153v-36h-153v-186h-45z" />
    <glyph glyph-name="ordfeminine" unicode="&#xaa;" horiz-adv-x="321" 
d="M240 266l-5 46h-2q-12 -18 -38 -34.5t-62 -16.5q-49 0 -74.5 27.5t-25.5 65.5q0 52 50 84t149 28v13q0 8 -3 21t-11.5 25t-24.5 21t-42 9q-21 0 -41.5 -6t-38.5 -21l-13 30q23 18 50 25.5t51 7.5q35 0 57 -11.5t35 -31t17.5 -44.5t4.5 -52v-109q0 -19 1 -38t4 -39h-38z
M232 433q-25 1 -52.5 -1t-50.5 -10.5t-38 -24t-15 -41.5q0 -30 20 -45t46 -15t46 12t31 28q13 17 13 29v68z" />
    <glyph glyph-name="ordmasculine" unicode="&#xba;" horiz-adv-x="334" 
d="M169 591q34 0 61.5 -12t47 -34t30 -52t10.5 -66q0 -44 -14 -75t-35.5 -51.5t-48.5 -30t-53 -9.5q-32 0 -59.5 11.5t-48 32.5t-32 51t-11.5 67q0 40 13 71t34.5 52.5t49 33t56.5 11.5zM168 556q-28 0 -48.5 -12t-34 -30.5t-20 -42t-6.5 -47.5q0 -28 9 -51.5t24.5 -41
t35 -27t40.5 -9.5q48 0 78.5 36.5t30.5 94.5q0 21 -6 43.5t-19 42t-33.5 32t-50.5 12.5z" />
    <glyph glyph-name="ae" unicode="&#xe6;" horiz-adv-x="739" 
d="M371 252q-2 -56 10 -97.5t34 -69t53 -41t68 -13.5q51 0 81 9.5t44 17.5l13 -37q-22 -12 -58.5 -21.5t-84.5 -9.5q-61 0 -110.5 30.5t-67.5 87.5h-2q-19 -57 -66 -87.5t-108 -30.5q-36 0 -62 11t-43 29t-25 41t-8 47q0 81 71 128t216 44v25q0 12 -4 35t-16.5 45.5t-37 39
t-64.5 16.5q-32 0 -64 -9.5t-53 -25.5l-15 34q35 23 72 32t63 9q67 0 103 -31.5t47 -82.5h2q21 54 64 84t101 30q55 0 89.5 -24.5t53.5 -58.5t25.5 -69t6.5 -57v-16.5t-2 -13.5h-326zM326 252q-36 1 -77.5 -2t-77.5 -16.5t-60 -39.5t-24 -71t28.5 -69.5t67.5 -24.5
q58 0 92 30t46 72q3 9 4 18.5t1 18.5v84zM650 290q1 24 -5.5 52.5t-22 52.5t-41 40.5t-61.5 16.5t-63.5 -15.5t-46 -39.5t-28.5 -52.5t-11 -54.5h279z" />
    <glyph glyph-name="oslash" unicode="&#xf8;" horiz-adv-x="520" 
d="M413 428q31 -32 48.5 -79t17.5 -105q0 -68 -20 -116t-52.5 -79t-72 -45.5t-78.5 -14.5q-68 0 -121 38l-39 -54l-28 23l38 56q-30 32 -47.5 78t-17.5 106q0 62 18 109.5t49 80t70.5 49t83.5 16.5q35 0 66 -10t57 -28l37 53l31 -20zM261 451q-45 0 -77.5 -19t-54 -49
t-31.5 -68t-10 -76q0 -90 45 -148l226 325q-19 16 -43 25.5t-55 9.5zM431 242q0 35 -11 74.5t-35 71.5l-225 -325q41 -34 98 -34q37 0 69 16t55 44t36 67t13 86z" />
    <glyph glyph-name="questiondown" unicode="&#xbf;" horiz-adv-x="375" 
d="M248 300l2 -13q1 -6 2.5 -16t1.5 -22q0 -36 -15.5 -76.5t-48.5 -82.5q-38 -48 -57.5 -83t-19.5 -75q0 -48 27 -74.5t81 -26.5q27 0 54 8t45 22l18 -34q-48 -39 -126 -39q-38 0 -66.5 12t-47 31.5t-27.5 45t-9 52.5q0 48 23 88t63 89q32 39 45.5 73t13.5 69q0 9 -0.5 18
t-1.5 14l-2 20h45zM227 485q18 0 28.5 -12t10.5 -32t-11.5 -32t-28.5 -12q-18 0 -28.5 12t-10.5 32t11.5 32t28.5 12z" />
    <glyph glyph-name="exclamdown" unicode="&#xa1;" horiz-adv-x="206" 
d="M123 297l9 -493h-58l9 493h40zM103 485q18 0 28.5 -12t10.5 -32t-11.5 -32t-28.5 -12q-18 0 -28.5 12t-10.5 32t11.5 32t28.5 12z" />
    <glyph glyph-name="florin" unicode="&#x192;" horiz-adv-x="479" 
d="M107 396h103l7 54q6 44 18 82.5t32.5 67t50.5 45t72 16.5q38 -3 59 -14l-11 -37q-13 5 -26 8t-29 3q-30 0 -51 -14t-35 -37.5t-22 -54t-12 -62.5l-6 -57h129v-38h-134l-27 -222q-6 -51 -17 -91t-29.5 -67.5t-45.5 -42.5t-65 -15q-43 0 -68 17l12 35q25 -13 61 -13
q25 0 43.5 12.5t31 35t20 53t11.5 67.5l27 231h-99v38z" />
    <glyph glyph-name="Agrave" unicode="&#xc0;" horiz-adv-x="574" 
d="M160 235l-82 -235h-48l238 674h46l237 -674h-49l-82 235h-260zM405 275l-79 223q-12 35 -19.5 63.5t-15.5 57.5h-2q-8 -30 -16 -58.5t-19 -60.5l-80 -225h231zM229 822l98 -112h-41l-130 112h73z" />
    <glyph glyph-name="Atilde" unicode="&#xc3;" horiz-adv-x="574" 
d="M160 235l-82 -235h-48l238 674h46l237 -674h-49l-82 235h-260zM405 275l-79 223q-12 35 -19.5 63.5t-15.5 57.5h-2q-8 -30 -16 -58.5t-19 -60.5l-80 -225h231zM174 716q-1 32 14.5 57t44.5 25q14 0 27.5 -6t30.5 -15q13 -7 25 -12t25 -5t20 7t9 33h31q0 -34 -14 -56.5
t-46 -22.5q-14 0 -27.5 5t-30.5 15q-15 8 -26.5 13.5t-24.5 5.5q-14 0 -20 -12.5t-8 -31.5h-30z" />
    <glyph glyph-name="OE" unicode="&#x152;" horiz-adv-x="849" 
d="M814 0h-317q-32 -2 -66 -6q-19 -2 -38.5 -3.5t-42.5 -1.5q-72 0 -130 25.5t-98.5 71.5t-62.5 109t-22 137q0 85 24.5 151t67 111t101 68t127.5 23q25 0 45 -1.5t38 -3.5q36 -5 63 -6h295v-40h-279v-260h264v-40h-264v-294h295v-40zM472 630q-22 6 -49.5 10.5t-69.5 4.5
q-65 0 -114.5 -23t-83 -64.5t-51 -98t-17.5 -123.5q0 -71 18.5 -127.5t54 -96.5t86 -61.5t114.5 -21.5q32 0 62.5 3.5t49.5 10.5v587z" />
    <glyph glyph-name="oe" unicode="&#x153;" horiz-adv-x="841" 
d="M257 491q66 0 115.5 -34t69.5 -97h2q26 66 71.5 98.5t105.5 32.5q56 0 91 -24t54.5 -58t26.5 -70.5t7 -61.5v-17.5t-1 -14.5l-332 1q-1 -54 11.5 -94.5t35.5 -67t55 -40t71 -13.5q45 0 73 9t49 18l14 -37q-23 -14 -61.5 -22.5t-80.5 -8.5q-67 0 -117 32t-76 98h-2
q-12 -34 -32 -58.5t-44.5 -40.5t-53 -23.5t-56.5 -7.5q-46 0 -84.5 17.5t-67 49.5t-44.5 77.5t-16 102.5q0 60 17.5 107t47 80t68.5 50t83 17zM255 452q-46 0 -78 -20.5t-51.5 -52t-28.5 -69t-9 -71.5q0 -44 12.5 -82t35 -66.5t53 -45t66.5 -16.5q37 0 67.5 16t52.5 44
t34 67t12 85q0 37 -9.5 75t-29.5 68t-51.5 49t-75.5 19zM750 284q1 26 -5 55.5t-21.5 54.5t-42 41.5t-65.5 16.5q-38 0 -65 -15.5t-45 -40t-27.5 -54.5t-12.5 -58h284z" />
    <glyph glyph-name="ydieresis" unicode="&#xff;" horiz-adv-x="431" 
d="M62 480l122 -312q10 -26 19 -53.5t16 -50.5h2q7 22 16 49.5t20 56.5l114 310h50l-139 -352q-21 -56 -39.5 -101.5t-37.5 -82t-38.5 -64.5t-43.5 -49q-28 -25 -51.5 -36.5t-31.5 -14.5l-16 39q18 8 40 21t43 34q18 18 39.5 47.5t38.5 71.5q6 16 6 21q0 7 -6 21l-173 445
h50zM104 601q0 16 11 27.5t27 11.5t27.5 -11.5t11.5 -27.5t-11.5 -27t-27.5 -11t-27 11t-11 27zM272 601q0 16 11 27.5t27 11.5t27.5 -11.5t11.5 -27.5t-11.5 -27t-27.5 -11t-27 11t-11 27z" />
    <glyph glyph-name="Ydieresis" unicode="&#x178;" horiz-adv-x="495" 
d="M226 0v292l-210 382h53l108 -199q21 -40 39.5 -74.5t35.5 -71.5h2q15 35 34.5 70t42.5 77l112 198h53l-223 -383v-291h-47zM125 766q0 16 11 27.5t27 11.5t27.5 -11.5t11.5 -27.5t-11.5 -27t-27.5 -11t-27 11t-11 27zM294 766q0 16 11 27.5t27 11.5t27.5 -11.5
t11.5 -27.5t-11.5 -27t-27.5 -11t-27 11t-11 27z" />
    <glyph glyph-name="fraction" unicode="&#x2044;" horiz-adv-x="411" 
d="M-6 -11l383 672h40l-383 -672h-40z" />
    <glyph glyph-name="Euro" unicode="&#x20ac;" horiz-adv-x="479" 
d="M88 416q9 55 29.5 100t51.5 77.5t71.5 50t90.5 17.5q48 0 80 -11.5t43 -19.5l-15 -40q-20 14 -48.5 23t-59.5 9q-78 0 -128 -53t-67 -153h262l-9 -36h-257q-3 -29 -3 -60v-19t1 -18h237l-9 -36h-225q14 -103 61.5 -160.5t125.5 -57.5q27 0 56 8.5t50 23.5l13 -36
q-20 -16 -51.5 -26t-73.5 -10q-41 0 -79 15t-69 46.5t-52.5 80t-29.5 116.5h-67l9 36h55q-1 9 -1 18.5v19.5q0 30 3 59h-66l10 36h61z" />
    <glyph glyph-name="daggerdbl" unicode="&#x2021;" horiz-adv-x="477" 
d="M262 674l-4 -210l171 5v-44l-171 5v-232l171 5v-44l-171 4l4 -213h-47l3 213l-171 -4v44l172 -5v232l-172 -5v44l172 -5l-4 210h47z" />
    <glyph glyph-name="perthousand" unicode="&#x2030;" horiz-adv-x="1067" 
d="M152 -13l385 676h40l-385 -676h-40zM565 391q57 0 95 -47t38 -147q0 -52 -11 -90t-30 -63t-44.5 -37.5t-53.5 -12.5q-26 0 -50.5 11.5t-43 35.5t-30 60.5t-11.5 87.5q0 52 12 90t31.5 63t45 37t52.5 12zM561 357q-23 0 -40.5 -13t-29.5 -35.5t-18.5 -52.5t-6.5 -63
q-1 -34 5 -64t18.5 -52.5t30.5 -35.5t40 -13q25 0 43.5 13.5t30 36t17 53t5.5 64.5q0 31 -5 60.5t-16.5 52t-29.5 36t-44 13.5zM174 661q57 0 95 -47t38 -147q0 -52 -11 -90t-30 -63t-44.5 -37.5t-53.5 -12.5q-26 0 -50.5 11.5t-43 35.5t-30 60.5t-11.5 87.5q0 52 12 90
t31.5 63t45 37t52.5 12zM170 627q-23 0 -40.5 -13t-29.5 -35.5t-18.5 -52.5t-6.5 -63q-1 -34 5 -64t18.5 -52.5t30.5 -35.5t40 -13q25 0 43.5 13.5t30 36t17 53t5.5 64.5q0 31 -5 60.5t-16.5 52t-29.5 36t-44 13.5zM902 391q57 0 95 -47t38 -147q0 -52 -11 -90t-30 -63
t-44.5 -37.5t-53.5 -12.5q-26 0 -50.5 11.5t-43 35.5t-30 60.5t-11.5 87.5q0 52 12 90t31.5 63t45 37t52.5 12zM898 357q-23 0 -40.5 -13t-29.5 -35.5t-18.5 -52.5t-6.5 -63q-1 -34 5 -64t18.5 -52.5t30.5 -35.5t40 -13q25 0 43.5 13.5t30 36t17 53t5.5 64.5q0 31 -5 60.5
t-16.5 52t-29.5 36t-44 13.5z" />
    <glyph glyph-name="Acircumflex" unicode="&#xc2;" horiz-adv-x="574" 
d="M160 235l-82 -235h-48l238 674h46l237 -674h-49l-82 235h-260zM405 275l-79 223q-12 35 -19.5 63.5t-15.5 57.5h-2q-8 -30 -16 -58.5t-19 -60.5l-80 -225h231zM311 822l103 -112h-51l-69 78h-2l-70 -78h-48l100 112h37z" />
    <glyph glyph-name="Ecircumflex" unicode="&#xca;" horiz-adv-x="456" 
d="M391 335h-264v-295h295v-40h-342v674h327v-40h-280v-259h264v-40zM258 822l103 -112h-51l-70 78h-2l-69 -78h-48l100 112h37z" />
    <glyph glyph-name="Edieresis" unicode="&#xcb;" horiz-adv-x="456" 
d="M391 335h-264v-295h295v-40h-342v674h327v-40h-280v-259h264v-40zM124 766q0 16 11 27.5t27 11.5t27.5 -11.5t11.5 -27.5t-11.5 -27t-27.5 -11t-27 11t-11 27zM294 766q0 16 11 27.5t27 11.5t27.5 -11.5t11.5 -27.5t-11.5 -27t-27.5 -11t-27 11t-11 27z" />
    <glyph glyph-name="Egrave" unicode="&#xc8;" horiz-adv-x="456" 
d="M391 335h-264v-295h295v-40h-342v674h327v-40h-280v-259h264v-40zM197 822l98 -112h-41l-130 112h73z" />
    <glyph glyph-name="Icircumflex" unicode="&#xce;" horiz-adv-x="208" 
d="M127 674v-674h-47v674h47zM121 822l103 -112h-51l-70 78h-2l-69 -78h-48l100 112h37z" />
    <glyph glyph-name="Idieresis" unicode="&#xcf;" horiz-adv-x="208" 
d="M127 674v-674h-47v674h47zM-20 766q0 16 11 27.5t27 11.5t27.5 -11.5t11.5 -27.5t-11.5 -27t-27.5 -11t-27 11t-11 27zM150 766q0 16 11 27.5t27 11.5t27.5 -11.5t11.5 -27.5t-11.5 -27t-27.5 -11t-27 11t-11 27z" />
    <glyph glyph-name="Igrave" unicode="&#xcc;" horiz-adv-x="208" 
d="M127 674v-674h-47v674h47zM45 822l98 -112h-40l-131 112h73z" />
    <glyph glyph-name="apple" unicode="&#xf8ff;" horiz-adv-x="938" 
d="M667 958q1 -5 1 -10v-10q0 -75 -53 -140q-64 -78 -148 -70q-1 5 -1 9.5v9.5q0 72 54 135q27 32 68.5 53t78.5 23zM875 225q-4 -12 -8 -23.5t-9 -22.5q-11 -27 -24.5 -51t-27.5 -45q-20 -29 -36.5 -50t-30.5 -33q-41 -38 -86 -39q-29 0 -80 20q-42 19 -85 19
q-46 0 -88 -19q-46 -19 -76 -21q-45 -2 -88 40q-15 14 -32.5 35.5t-37.5 50.5q-45 65 -74 151q-31 89 -31 180q0 100 42 172q33 58 88 91.5t119 34.5q39 0 92 -22t73 -22q8 0 81 26q68 24 110 20q121 -11 183 -99q-110 -68 -108 -190q1 -94 67 -158q30 -29 67 -45z" />
    <glyph glyph-name="Ograve" unicode="&#xd2;" horiz-adv-x="654" 
d="M264 822l98 -112h-40l-130 112h72zM324 -11q-60 0 -112.5 23.5t-91.5 67.5t-61 107.5t-22 143.5q0 83 23 149t63 111.5t93.5 69.5t115.5 24q61 0 113.5 -23.5t90.5 -68t59.5 -108t21.5 -142.5q0 -89 -24.5 -155.5t-65.5 -110.5t-93.5 -66t-109.5 -22zM325 29
q59 0 104 25.5t76 68.5t46.5 99t15.5 118q0 53 -14.5 107.5t-44 98.5t-75 71.5t-106.5 27.5q-62 0 -107.5 -27t-75 -71t-44 -100.5t-14.5 -114.5q0 -56 15.5 -110.5t46 -97.5t75 -69t102.5 -26z" />
    <glyph glyph-name="Ucircumflex" unicode="&#xdb;" horiz-adv-x="613" 
d="M127 674v-410q0 -63 13.5 -107.5t37.5 -72.5t56 -41t68 -13q40 0 74 13.5t58.5 42t38 72.5t13.5 106v410h47v-406q0 -77 -19 -130t-51 -86t-74.5 -48t-89.5 -15q-43 0 -82.5 13.5t-70 45.5t-48.5 83.5t-18 128.5v414h47zM328 822l102 -112h-51l-69 78h-2l-69 -78h-49
l100 112h38z" />
    <glyph glyph-name="Ugrave" unicode="&#xd9;" horiz-adv-x="613" 
d="M127 674v-410q0 -63 13.5 -107.5t37.5 -72.5t56 -41t68 -13q40 0 74 13.5t58.5 42t38 72.5t13.5 106v410h47v-406q0 -77 -19 -130t-51 -86t-74.5 -48t-89.5 -15q-43 0 -82.5 13.5t-70 45.5t-48.5 83.5t-18 128.5v414h47zM255 822l97 -112h-40l-130 112h73z" />
    <glyph glyph-name="dotlessi" unicode="&#x131;" horiz-adv-x="206" 
d="M79 0v480h47v-480h-47z" />
    <glyph glyph-name="circumflex" unicode="&#x2c6;" horiz-adv-x="300" 
d="M166 677l93 -137h-48l-61 99h-2l-62 -99h-45l90 137h35z" />
    <glyph glyph-name="tilde" unicode="&#x2dc;" horiz-adv-x="300" 
d="M39 563q-1 33 14 58t44 25q16 0 29 -6t32 -16q12 -6 22.5 -11t24.5 -5q11 0 17.5 8.5t8.5 32.5h30q0 -35 -14 -57.5t-46 -22.5q-14 0 -27.5 6t-28.5 15q-15 8 -25.5 13t-21.5 5q-13 0 -19 -12.5t-8 -32.5h-32z" />
    <glyph glyph-name="breve" unicode="&#x2d8;" horiz-adv-x="300" 
d="M71 674q5 -30 26 -51.5t53 -21.5q19 0 33 6.5t24 17t15 23.5t6 26h36q0 -51 -31.5 -82t-82.5 -31q-32 0 -53.5 10.5t-35 26.5t-19.5 36t-6 40h35z" />
    <glyph glyph-name="dotaccent" unicode="&#x2d9;" horiz-adv-x="300" 
d="M111 600q0 17 11 28.5t28 11.5t28.5 -11.5t11.5 -28.5t-11.5 -28t-28.5 -11t-28 11t-11 28z" />
    <glyph glyph-name="ring" unicode="&#x2da;" horiz-adv-x="400" 
d="M291 621q0 -38 -26.5 -64.5t-64.5 -26.5t-64.5 26.5t-26.5 64.5t26.5 64.5t64.5 26.5t64.5 -26.5t26.5 -64.5zM144 621q0 -24 16.5 -40.5t39.5 -16.5q24 0 40.5 16.5t16.5 40.5q0 23 -16.5 40t-40.5 17q-23 0 -39.5 -17t-16.5 -40z" />
    <glyph glyph-name="cedilla" unicode="&#xb8;" horiz-adv-x="300" 
d="M182 2l-36 -56q27 -4 47.5 -21.5t20.5 -45.5q0 -21 -7.5 -35.5t-20.5 -23.5t-29.5 -13.5t-35.5 -4.5q-14 0 -31 4.5t-29 11.5l12 34q22 -13 54 -13q18 0 32 7.5t14 27.5q-1 23 -23 32.5t-54 12.5l49 83h37z" />
    <glyph glyph-name="hungarumlaut" unicode="&#x2dd;" horiz-adv-x="300" 
d="M222 677l-117 -129h-36l88 129h65zM347 677l-117 -129h-35l88 129h64z" />
    <glyph glyph-name="ogonek" unicode="&#x2db;" horiz-adv-x="300" 
d="M211 0q-18 -10 -35 -22.5t-30.5 -27.5t-21.5 -31.5t-8 -32.5q-1 -25 13.5 -36.5t31.5 -11.5q11 0 24 2t25 8l8 -31q-29 -15 -68 -15q-34 0 -56 20t-22 55q0 19 10 39t25 37t32 29.5t31 17.5h41z" />
    <glyph glyph-name="currency" unicode="&#xa4;" horiz-adv-x="479" 
d="M88 416q9 55 29.5 100t51.5 77.5t71.5 50t90.5 17.5q48 0 80 -11.5t43 -19.5l-15 -40q-20 14 -48.5 23t-59.5 9q-78 0 -128 -53t-67 -153h262l-9 -36h-257q-3 -29 -3 -60v-19t1 -18h237l-9 -36h-225q14 -103 61.5 -160.5t125.5 -57.5q27 0 56 8.5t50 23.5l13 -36
q-20 -16 -51.5 -26t-73.5 -10q-41 0 -79 15t-69 46.5t-52.5 80t-29.5 116.5h-67l9 36h55q-1 9 -1 18.5v19.5q0 30 3 59h-66l10 36h61z" />
    <glyph glyph-name="periodcentered" unicode="&#xb7;" horiz-adv-x="173" 
d="M86 230q-18 0 -29 13t-11 32t11.5 32t29.5 13t29 -13t11 -32q0 -20 -11.5 -32.5t-29.5 -12.5z" />
    <glyph glyph-name="dieresistonos" unicode="&#x385;" horiz-adv-x="316" 
d="M20 605q0 14 10 24.5t24 10.5q15 0 25 -10t10 -25q0 -14 -10.5 -24t-24.5 -10t-24 10t-10 24zM200 693l-45 -153h-30l26 153h49zM227 605q0 14 10 24.5t24 10.5q15 0 25 -10t10 -25q0 -14 -10.5 -24t-24.5 -10t-24 10t-10 24z" />
    <glyph glyph-name="tonos" unicode="&#x384;" horiz-adv-x="500" 
d="M309 684l-80 -142h-34l59 142h55z" />
    <glyph glyph-name="Gamma" unicode="&#x393;" horiz-adv-x="400" 
d="M396 674v-40h-269v-634h-47v674h316z" />
    <glyph glyph-name="Theta" unicode="&#x398;" horiz-adv-x="639" 
d="M454 372v-40h-269v40h269zM324 685q63 0 114 -24.5t87.5 -69.5t56.5 -108t20 -139q0 -87 -23 -153.5t-62 -111.5t-91.5 -67.5t-110.5 -22.5q-60 0 -111 24.5t-88 69.5t-58 108t-21 140q0 81 22 146.5t60.5 111.5t91 71t113.5 25zM322 645q-55 0 -98.5 -24t-74 -66.5
t-46.5 -99.5t-16 -123q0 -63 16 -118.5t46 -96.5t73 -64.5t96 -23.5q52 0 95.5 22.5t74 64t47.5 99t17 127.5q0 61 -15 116t-44.5 96.5t-72.5 66t-98 24.5z" />
    <glyph glyph-name="Lambda" unicode="&#x39b;" horiz-adv-x="572" 
d="M316 674l229 -674h-51q-54 158 -106.5 314.5t-101.5 314.5h-1q-51 -158 -102 -314t-104 -315h-50l229 674h58z" />
    <glyph glyph-name="Xi" unicode="&#x39e;" horiz-adv-x="489" 
d="M444 674v-40h-398v40h398zM411 369v-39l-333 -1v40h333zM454 40v-40h-419v40h419z" />
    <glyph glyph-name="Pi" unicode="&#x3a0;" horiz-adv-x="600" 
d="M520 674v-674h-47v634h-346v-634h-47v674h440z" />
    <glyph glyph-name="Sigma" unicode="&#x3a3;" horiz-adv-x="513" 
d="M455 674v-39h-352v-2l216 -296l-228 -296v-1h396v-40h-459v29l238 307l-225 306v32h414z" />
    <glyph glyph-name="Iotadieresis" unicode="&#x3aa;" horiz-adv-x="207" 
d="M127 674v-674h-47v674h47zM-19 766q0 16 11 27.5t27 11.5t27.5 -11.5t11.5 -27.5t-11.5 -27t-27.5 -11t-27 11t-11 27zM149 766q0 16 11 27.5t27 11.5t27.5 -11.5t11.5 -27.5t-11.5 -27t-27.5 -11t-27 11t-11 27z" />
    <glyph glyph-name="Alpha" unicode="&#x391;" horiz-adv-x="572" 
d="M316 674l229 -674h-51q-20 57 -39.5 114t-38.5 114h-261l-76 -228h-50l229 674h58zM285 629q-11 -38 -23 -75l-24 -74q-17 -54 -34.5 -106.5l-35.5 -106.5h235l-35.5 106.5t-34.5 106.5q-12 38 -24 74.5t-23 74.5h-1z" />
    <glyph glyph-name="Beta" unicode="&#x392;" horiz-adv-x="499" 
d="M80 665q26 6 59.5 10t76.5 4t82 -7.5t69 -26t47.5 -49.5t17.5 -79q0 -57 -37 -98t-98 -58v-1q30 -6 58.5 -18t51 -32.5t36.5 -50t14 -69.5q0 -55 -22.5 -92.5t-60 -60.5t-86.5 -33t-103 -10q-34 0 -59.5 2.5t-45.5 4.5v664zM127 375h68q86 0 137.5 36.5t51.5 102.5
q0 70 -45.5 98.5t-120.5 28.5q-32 0 -55 -2.5t-36 -5.5v-258zM127 37q14 -3 31 -4t39 -1q42 0 80 8.5t67 27t46 48.5t17 74q0 43 -18 71.5t-49 46t-71.5 24.5t-85.5 7h-56v-302z" />
    <glyph glyph-name="Epsilon" unicode="&#x395;" horiz-adv-x="450" 
d="M385 335h-258v-295h288v-40h-335v674h320v-40h-273v-259h258v-40z" />
    <glyph glyph-name="Zeta" unicode="&#x396;" horiz-adv-x="512" 
d="M475 674v-29l-380 -603v-2h385v-40h-447v28l381 604v2h-349v40h410z" />
    <glyph glyph-name="Eta" unicode="&#x397;" horiz-adv-x="613" 
d="M127 674v-299h359v299h47v-674h-47v335h-359v-335h-47v674h47z" />
    <glyph glyph-name="Iota" unicode="&#x399;" horiz-adv-x="207" 
d="M127 674v-674h-47v674h47z" />
    <glyph glyph-name="Kappa" unicode="&#x39a;" horiz-adv-x="503" 
d="M127 674v-354h1q20 25 38.5 48t37.5 46l219 260h57l-240 -283l263 -391h-56l-241 359l-79 -92v-267h-47v674h47z" />
    <glyph glyph-name="Mu" unicode="&#x39c;" horiz-adv-x="762" 
d="M172 674l120 -341q25 -71 45 -136.5t40 -130.5h1q20 63 43.5 128.5t49.5 137.5l125 342h63l42 -674h-47l-19 315q-5 77 -9 157.5t-6 151.5h-3q-23 -68 -47 -138.5t-52 -145.5l-124 -337h-38l-113 330q-52 151 -95 291h-2q-4 -75 -8.5 -159.5t-10.5 -169.5l-19 -295h-46
l47 674h63z" />
    <glyph glyph-name="Phi" unicode="&#x3a6;" horiz-adv-x="675" 
d="M360 700v-59q55 -2 105.5 -20t88 -54.5t60 -93.5t22.5 -136q0 -80 -22.5 -136.5t-60.5 -92.5t-88 -53t-105 -19v-62h-46v62q-54 2 -103.5 18.5t-88 51.5t-61 91t-22.5 137q0 82 24 140t63 94.5t88 53.5t100 19v59h46zM314 603q-42 -2 -82.5 -17t-72.5 -46.5t-51.5 -82
t-19.5 -122.5q0 -67 18 -115t49 -79.5t72 -47.5t87 -19v529zM360 74q46 2 87.5 18t72.5 48t49 81t18 117q0 70 -18 119.5t-49 81.5t-72.5 47t-87.5 17v-529z" />
    <glyph glyph-name="Upsilondieresis" unicode="&#x3ab;" horiz-adv-x="533" 
d="M19 680q50 -10 92 -42t74 -79.5t53 -107t29 -123.5h2q9 54 29.5 108t52.5 102t75.5 85t98.5 57l8 -39q-50 -21 -94.5 -67t-78 -107.5t-53 -133.5t-19.5 -145v-188h-47v204q0 81 -19 154t-51 131.5t-74 98t-88 53.5zM152 766q0 16 11 27.5t27 11.5t27.5 -11.5t11.5 -27.5
t-11.5 -27t-27.5 -11t-27 11t-11 27zM320 766q0 16 11 27.5t27 11.5t27.5 -11.5t11.5 -27.5t-11.5 -27t-27.5 -11t-27 11t-11 27z" />
    <glyph glyph-name="Psi" unicode="&#x3a8;" horiz-adv-x="635" 
d="M94 674v-211q0 -53 15.5 -91t42 -62.5t63 -37t78.5 -13.5v415h47v-415q43 1 79.5 15.5t63.5 42t42.5 69t15.5 97.5v191h48v-195q0 -61 -18 -108t-51 -79.5t-79 -50.5t-101 -20v-221h-47v221q-48 1 -92.5 15t-79 42t-55 72t-20.5 106v218h48z" />
    <glyph glyph-name="alphatonos" unicode="&#x3ac;" horiz-adv-x="522" 
d="M450 482q-2 -15 -4 -50.5t-4 -81t-3.5 -97t-1.5 -99.5q0 -72 10 -100.5t36 -28.5l-5 -34q-9 -3 -20 -3q-12 0 -23 6t-19 20.5t-13 40t-5 64.5h-2q-10 -26 -25.5 -50t-36 -42t-47 -28t-57.5 -10q-45 0 -80.5 20t-60 53t-37 76.5t-12.5 91.5q0 52 14 99.5t41 83.5t65 57.5
t86 21.5q60 0 98 -37t55 -91h1q2 29 4 59t6 59h40zM247 454q-35 0 -64 -16.5t-50 -46.5t-32.5 -71t-11.5 -89q0 -39 10 -76t29 -65.5t47.5 -45.5t64.5 -17q39 0 67.5 20t47.5 51.5t28.5 71.5t9.5 79q0 35 -8.5 71.5t-26.5 66t-45.5 48.5t-65.5 19zM341 684l-80 -142h-34
l59 142h55z" />
    <glyph glyph-name="Nu" unicode="&#x39d;" horiz-adv-x="621" 
d="M131 673l222 -357q41 -66 77 -128t69 -122h2q-3 75 -4 146.5t-1 152.5v308h45v-674h-48l-218 354q-40 65 -78.5 129t-73.5 128l-1 -1q2 -72 2.5 -143.5t0.5 -155.5v-311h-45v674h51z" />
    <glyph glyph-name="Omicron" unicode="&#x39f;" horiz-adv-x="639" 
d="M324 685q63 0 114 -24.5t87.5 -69.5t56.5 -108t20 -139q0 -87 -23 -153.5t-62 -111.5t-91.5 -67.5t-110.5 -22.5q-60 0 -111 24.5t-88 69.5t-58 108t-21 140q0 81 22 146.5t60.5 111.5t91 71t113.5 25zM322 645q-55 0 -98.5 -24t-74 -66.5t-46.5 -99.5t-16 -123
q0 -63 16 -118.5t46 -96.5t73 -64.5t96 -23.5q52 0 95.5 22.5t74 64t47.5 99t17 127.5q0 61 -15 116t-44.5 96.5t-72.5 66t-98 24.5z" />
    <glyph glyph-name="Rho" unicode="&#x3a1;" horiz-adv-x="493" 
d="M80 666q26 5 60.5 9t82.5 4q49 0 90.5 -10.5t71.5 -33t47 -58.5t17 -88q0 -50 -17.5 -88.5t-49 -65.5t-76 -41t-98.5 -14q-22 0 -42.5 1.5t-38.5 5.5v-287h-47v666zM127 326q18 -5 38.5 -6.5t43.5 -1.5q92 0 142 45t50 123q0 82 -48.5 118.5t-128.5 36.5q-35 0 -59 -3
t-38 -6v-306z" />
    <glyph glyph-name="Tau" unicode="&#x3a4;" horiz-adv-x="447" 
d="M451 634h-205v-634h-47v634h-203v40h455v-40z" />
    <glyph glyph-name="Upsilon" unicode="&#x3a5;" horiz-adv-x="533" 
d="M19 680q50 -10 92 -42t74 -79.5t53 -107t29 -123.5h2q9 54 29.5 108t52.5 102t75.5 85t98.5 57l8 -39q-50 -21 -94.5 -67t-78 -107.5t-53 -133.5t-19.5 -145v-188h-47v204q0 81 -19 154t-51 131.5t-74 98t-88 53.5z" />
    <glyph glyph-name="Chi" unicode="&#x3a7;" horiz-adv-x="527" 
d="M92 674l95 -164q20 -35 39 -67t37 -64h1q20 33 38 64.5t39 66.5l97 164h55l-203 -328l207 -346h-55l-100 171q-23 40 -43 73t-38 65h-1q-17 -32 -36.5 -64.5t-42.5 -73.5l-97 -171h-54l205 344l-197 330h54z" />
    <glyph glyph-name="Alphatonos" unicode="&#x386;" horiz-adv-x="572" 
d="M139 674l-32 -152h-31l11 152h52zM316 674l229 -674h-51q-20 57 -39.5 114t-38.5 114h-261l-76 -228h-50l229 674h58zM285 629q-11 -38 -23 -75l-24 -74q-17 -54 -34.5 -106.5l-35.5 -106.5h235l-35.5 106.5t-34.5 106.5q-12 38 -24 74.5t-23 74.5h-1z" />
    <glyph glyph-name="Epsilontonos" unicode="&#x388;" horiz-adv-x="485" 
d="M63 674l-32 -152h-31l11 152h52zM420 335h-258v-295h288v-40h-335v674h320v-40h-273v-259h258v-40z" />
    <glyph glyph-name="Etatonos" unicode="&#x389;" horiz-adv-x="648" 
d="M63 674l-32 -152h-31l11 152h52zM162 674v-299h359v299h47v-674h-47v335h-359v-335h-47v674h47z" />
    <glyph glyph-name="Iotatonos" unicode="&#x38a;" horiz-adv-x="242" 
d="M63 674l-32 -152h-31l11 152h52zM162 674v-674h-47v674h47z" />
    <glyph glyph-name="Omicrontonos" unicode="&#x38c;" horiz-adv-x="670" 
d="M68 674l-32 -152h-31l11 152h52zM355 685q63 0 114 -24.5t87.5 -69.5t56.5 -108t20 -139q0 -87 -23 -153.5t-62 -111.5t-91.5 -67.5t-110.5 -22.5q-60 0 -111 24.5t-88 69.5t-58 108t-21 140q0 81 22 146.5t60.5 111.5t91 71t113.5 25zM353 645q-55 0 -98.5 -24
t-74 -66.5t-46.5 -99.5t-16 -123q0 -63 16 -118.5t46 -96.5t73 -64.5t96 -23.5q52 0 95.5 22.5t74 64t47.5 99t17 127.5q0 61 -15 116t-44.5 96.5t-72.5 66t-98 24.5z" />
    <glyph glyph-name="Upsilontonos" unicode="&#x38e;" horiz-adv-x="630" 
d="M68 674l-32 -152h-31l11 152h52zM116 680q50 -10 92 -42t74 -79.5t53 -107t29 -123.5h2q9 54 29.5 108t52.5 102t75.5 85t98.5 57l8 -39q-50 -21 -94.5 -67t-78 -107.5t-53 -133.5t-19.5 -145v-188h-47v204q0 81 -19 154t-51 131.5t-74 98t-88 53.5z" />
    <glyph glyph-name="epsilontonos" unicode="&#x3ad;" horiz-adv-x="403" 
d="M307 241h-52q-78 0 -121 -29t-43 -78q0 -28 12 -48.5t32 -33.5t45.5 -19t52.5 -6q20 0 40 3.5t38.5 8.5t34 12t25.5 14l10 -33q-23 -19 -66 -31t-90 -12q-33 0 -65.5 7.5t-59 24t-43 43.5t-16.5 66q0 50 34.5 85t91.5 43v3q-51 11 -76 41t-25 66q0 25 11 47.5t32.5 39.5
t54 27.5t74.5 10.5q79 0 127 -34l-12 -33q-17 13 -47.5 21.5t-65.5 8.5q-60 0 -93 -25t-33 -65q0 -41 38 -65.5t104 -24.5h51v-35zM314 684l-80 -142h-34l59 142h55z" />
    <glyph glyph-name="etatonos" unicode="&#x3ae;" horiz-adv-x="519" 
d="M108 483q5 -16 9 -39t4 -47h2q9 17 24.5 34.5t36 31t46 22t54.5 8.5q22 0 49.5 -7t52.5 -29t42 -63t17 -109v-303v-46t1 -50t3 -47t6 -37h-45q-4 13 -6.5 34t-4 45t-2 49.5t-0.5 48.5v300q0 50 -10 83.5t-27.5 54t-40.5 29t-49 8.5t-51.5 -11.5t-46 -32.5t-33.5 -50.5
t-13 -64.5v-295h-48v357q0 35 -3 68.5t-11 57.5h44zM359 684l-80 -142h-34l59 142h55z" />
    <glyph glyph-name="iotatonos" unicode="&#x3af;" horiz-adv-x="199" 
d="M121 107q0 -25 2 -40.5t6.5 -24.5t12.5 -12t20 -2l-4 -35q-11 -4 -25 -4q-13 0 -24 4.5t-18.5 17.5t-12 35t-4.5 57v380h47v-376zM187 684l-80 -142h-34l59 142h55z" />
    <glyph glyph-name="omicrontonos" unicode="&#x3cc;" horiz-adv-x="509" 
d="M258 493q46 0 85 -18t67 -50t43.5 -78t15.5 -101q0 -68 -19.5 -116.5t-51 -79.5t-70.5 -46t-78 -15q-44 0 -82 17t-66.5 49.5t-45 78.5t-16.5 104q0 61 17.5 108.5t47 80t69 49.5t84.5 17zM256 455q-39 0 -70 -16.5t-52.5 -45.5t-33 -68.5t-11.5 -85.5q0 -47 12.5 -86
t34 -67t51.5 -43.5t66 -15.5q33 0 63 14.5t53.5 42t37 68t13.5 92.5q0 41 -10.5 79t-31.5 67.5t-51.5 47t-70.5 17.5zM349 684l-80 -142h-34l59 142h55z" />
    <glyph glyph-name="Omegatonos" unicode="&#x38f;" horiz-adv-x="698" 
d="M68 674l-32 -152h-31l11 152h52zM213 39v2q-27 22 -52 54t-44.5 71t-31.5 85.5t-12 97.5q0 76 22 138t61 106t92 68t114 24q63 0 115 -24.5t88.5 -68.5t56.5 -104t20 -131q0 -54 -12 -102t-31.5 -88t-45.5 -72t-53 -54v-2h155v-39h-213v32q30 22 57 54.5t47.5 73t33 88.5
t12.5 101q0 58 -15.5 111.5t-45 95t-72.5 66t-99 24.5q-54 0 -98 -23.5t-75 -64.5t-47.5 -96t-16.5 -117q0 -50 12.5 -97.5t33.5 -88.5t48 -73.5t56 -53.5v-32h-213v39h153z" />
    <glyph glyph-name="upsilontonos" unicode="&#x3cd;" horiz-adv-x="485" 
d="M104 483q8 -15 10.5 -51t2.5 -101v-119q0 -97 36 -140.5t91 -43.5q72 0 108.5 67.5t36.5 183.5q0 68 -10.5 121.5t-23.5 82.5h45q20 -42 28 -92.5t8 -110.5q0 -57 -10 -109.5t-33.5 -93t-61 -64.5t-91.5 -24q-84 0 -127 57t-43 175v111q0 61 -2 96.5t-8 54.5h44zM324 684
l-80 -142h-34l59 142h55z" />
    <glyph glyph-name="alpha" unicode="&#x3b1;" horiz-adv-x="522" 
d="M450 482q-2 -15 -4 -50.5t-4 -81t-3.5 -97t-1.5 -99.5q0 -72 10 -100.5t36 -28.5l-5 -34q-9 -3 -20 -3q-12 0 -23 6t-19 20.5t-13 40t-5 64.5h-2q-10 -26 -25.5 -50t-36 -42t-47 -28t-57.5 -10q-45 0 -80.5 20t-60 53t-37 76.5t-12.5 91.5q0 52 14 99.5t41 83.5t65 57.5
t86 21.5q60 0 98 -37t55 -91h1q2 29 4 59t6 59h40zM247 454q-35 0 -64 -16.5t-50 -46.5t-32.5 -71t-11.5 -89q0 -39 10 -76t29 -65.5t47.5 -45.5t64.5 -17q39 0 67.5 20t47.5 51.5t28.5 71.5t9.5 79q0 35 -8.5 71.5t-26.5 66t-45.5 48.5t-65.5 19z" />
    <glyph glyph-name="beta" unicode="&#x3b2;" horiz-adv-x="524" 
d="M76 438q0 65 11.5 117t35 89t59 56.5t84.5 19.5q34 0 63 -12.5t51 -34t34.5 -51.5t12.5 -66q0 -32 -9.5 -59.5t-25 -48.5t-35 -35.5t-38.5 -21.5v-4q31 -5 60.5 -20t52.5 -39.5t37.5 -59t14.5 -78.5q0 -49 -16.5 -86.5t-43.5 -63t-61 -38.5t-70 -13q-56 0 -97.5 16
t-70.5 45h-2v-59t1 -70.5t4 -67.5t8 -51h-46q-8 24 -11 69.5t-3 98.5v468zM123 100q24 -29 65 -51t98 -22q30 0 57.5 11t47.5 32t32 51t12 68q0 46 -17 79.5t-46 54.5t-68 31t-83 10v35q72 0 115.5 41t43.5 109q0 58 -33 95.5t-85 37.5q-72 0 -105.5 -62.5t-33.5 -177.5
v-342z" />
    <glyph glyph-name="psi" unicode="&#x3c8;" horiz-adv-x="599" 
d="M333 608v-582q45 1 78.5 22t56 57t33.5 83t11 101q0 71 -12 123t-24 71h46q14 -23 25.5 -73.5t11.5 -116.5q0 -55 -12 -108.5t-39 -96t-70 -70t-105 -29.5v-187h-44v187q-44 2 -84 15t-70.5 41.5t-48.5 75t-18 115.5v136q0 33 -1.5 63t-6.5 48h45q5 -13 7.5 -38.5
t2.5 -60.5v-116q0 -20 1.5 -36.5t3.5 -32.5q5 -48 20.5 -80.5t38 -52.5t51 -29.5t59.5 -10.5v582h44z" />
    <glyph glyph-name="delta" unicode="&#x3b4;" horiz-adv-x="506" 
d="M411 642q-17 14 -50.5 27t-74.5 13q-50 0 -74.5 -20.5t-24.5 -44.5q0 -15 7 -29t24 -31t44 -39t68 -54q30 -23 55 -48.5t43 -54t28 -61t10 -70.5q0 -54 -17 -98.5t-46 -76t-67.5 -49t-82.5 -17.5q-42 0 -80.5 15.5t-68 46.5t-47 76.5t-17.5 104.5q0 46 15.5 85t41.5 71
t60 57t72 43v3q-18 14 -34 28t-28.5 29t-20 31.5t-7.5 35.5q0 18 9 36.5t27 34t45.5 25t65.5 9.5q46 0 82.5 -14.5t56.5 -31.5zM258 465q-33 -17 -64 -39.5t-54 -51t-37 -64t-14 -78.5q0 -51 14 -89t37.5 -64t53.5 -39t62 -13q33 0 62.5 14t51 39.5t34.5 62.5t13 84
q0 37 -11 68.5t-31 60t-50 55t-67 54.5z" />
    <glyph glyph-name="epsilon" unicode="&#x3b5;" horiz-adv-x="403" 
d="M307 241h-52q-78 0 -121 -29t-43 -78q0 -28 12 -48.5t32 -33.5t45.5 -19t52.5 -6q20 0 40 3.5t38.5 8.5t34 12t25.5 14l10 -33q-23 -19 -66 -31t-90 -12q-33 0 -65.5 7.5t-59 24t-43 43.5t-16.5 66q0 50 34.5 85t91.5 43v3q-51 11 -76 41t-25 66q0 25 11 47.5t32.5 39.5
t54 27.5t74.5 10.5q79 0 127 -34l-12 -33q-17 13 -47.5 21.5t-65.5 8.5q-60 0 -93 -25t-33 -65q0 -41 38 -65.5t104 -24.5h51v-35z" />
    <glyph glyph-name="phi" unicode="&#x3c6;" horiz-adv-x="598" 
d="M214 466q-20 -12 -42.5 -31.5t-41 -46.5t-30.5 -62.5t-12 -80.5q0 -48 14.5 -87t40 -67.5t60 -45t75.5 -19.5v314q0 83 28 118t74 35q32 0 63.5 -16.5t57 -47t41.5 -75t16 -99.5q0 -62 -20 -110t-53 -81.5t-75.5 -52t-87.5 -21.5v-188h-44v188q-44 2 -86.5 18t-76 47
t-54.5 78t-21 111q0 52 15.5 93.5t39 72.5t51 52t50.5 32zM322 26q40 3 74.5 20t60 46.5t39.5 70t14 91.5q0 45 -11.5 82.5t-30 64.5t-41.5 41.5t-47 14.5q-26 0 -42 -24.5t-16 -80.5v-326z" />
    <glyph glyph-name="gamma" unicode="&#x3b3;" horiz-adv-x="421" 
d="M177 -198q2 57 0.5 112.5t-9.5 113.5q-10 63 -29 127t-43.5 123.5t-51.5 111.5t-52 93h55q22 -35 46 -83t46 -102.5t39.5 -112.5t27.5 -115h3q23 40 47.5 87.5t44.5 98t32.5 100.5t12.5 95v17t-1 15h47q2 -6 2 -14.5v-17.5q0 -46 -14 -99t-37 -107.5t-53 -109.5t-63 -106
q-5 -7 -5.5 -12.5t-0.5 -12.5q4 -48 4 -99t-1 -103h-47z" />
    <glyph glyph-name="eta" unicode="&#x3b7;" horiz-adv-x="519" 
d="M108 483q5 -16 9 -39t4 -47h2q9 17 24.5 34.5t36 31t46 22t54.5 8.5q22 0 49.5 -7t52.5 -29t42 -63t17 -109v-303v-46t1 -50t3 -47t6 -37h-45q-4 13 -6.5 34t-4 45t-2 49.5t-0.5 48.5v300q0 50 -10 83.5t-27.5 54t-40.5 29t-49 8.5t-51.5 -11.5t-46 -32.5t-33.5 -50.5
t-13 -64.5v-295h-48v357q0 35 -3 68.5t-11 57.5h44z" />
    <glyph glyph-name="iota" unicode="&#x3b9;" horiz-adv-x="199" 
d="M121 107q0 -25 2 -40.5t6.5 -24.5t12.5 -12t20 -2l-4 -35q-11 -4 -25 -4q-13 0 -24 4.5t-18.5 17.5t-12 35t-4.5 57v380h47v-376z" />
    <glyph glyph-name="xi" unicode="&#x3be;" horiz-adv-x="392" 
d="M361 661q-13 9 -35.5 15.5t-51.5 6.5q-35 0 -61.5 -11t-44.5 -29t-27 -41.5t-9 -48.5q0 -35 14 -59t39.5 -40t60.5 -23t77 -7v-35h-28q-50 0 -88.5 -14.5t-64.5 -39t-39.5 -56.5t-13.5 -66q0 -58 26 -94.5t67 -57.5t91.5 -30t100.5 -13q9 -1 9 -13q0 -18 -4.5 -38.5
t-12 -40t-16.5 -36.5t-19 -27l-33 10q7 8 14 22t12.5 29.5t8.5 31.5t3 28q-50 4 -102.5 15t-95.5 35.5t-70.5 66.5t-27.5 108q0 36 12 68t33.5 58t51 44.5t64.5 27.5v3q-62 19 -89.5 57t-27.5 88q0 31 12 61t36 53t59 37t81 14q34 0 58.5 -6.5t41.5 -17.5z" />
    <glyph glyph-name="kappa" unicode="&#x3ba;" horiz-adv-x="452" 
d="M78 0v380q0 15 -0.5 30.5t-2 29.5t-3.5 25.5t-5 17.5h45q6 -11 9.5 -36.5t3.5 -54.5v-131h15q66 60 122 116t110 106h59v-2q-57 -52 -116.5 -107.5t-124.5 -115.5v-1q31 -6 62.5 -32t63 -63t63.5 -79.5t63 -82.5h-58q-37 49 -69 91t-61.5 73t-58 49t-58.5 18h-12v-231
h-47z" />
    <glyph glyph-name="lambda" unicode="&#x3bb;" horiz-adv-x="434" 
d="M42 716q5 2 13 3t16 1q30 0 52 -15.5t40.5 -45t35.5 -73t38 -99.5l179 -487h-52l-102 286q-12 33 -23 66t-23 68q-5 -13 -11.5 -30t-13.5 -35t-13 -36t-11 -31l-107 -288h-50l173 449q5 13 6 22.5t-4 22.5q-16 43 -29.5 78t-27.5 59t-31 37t-39 13q-10 0 -20 -2l4 37v0z
" />
    <glyph glyph-name="nu" unicode="&#x3bd;" horiz-adv-x="435" 
d="M62 483l96 -279q5 -15 12 -35t14.5 -41t14.5 -41.5t13 -35.5q22 40 48 89.5t48 101t36.5 103.5t14.5 97v21.5t-1 19.5h47q3 -15 3 -35q0 -50 -16 -105.5t-42 -113t-58 -116t-65 -113.5h-46l-171 483h52z" />
    <glyph glyph-name="omicron" unicode="&#x3bf;" horiz-adv-x="509" 
d="M258 493q46 0 85 -18t67 -50t43.5 -78t15.5 -101q0 -68 -19.5 -116.5t-51 -79.5t-70.5 -46t-78 -15q-44 0 -82 17t-66.5 49.5t-45 78.5t-16.5 104q0 61 17.5 108.5t47 80t69 49.5t84.5 17zM256 455q-39 0 -70 -16.5t-52.5 -45.5t-33 -68.5t-11.5 -85.5q0 -47 12.5 -86
t34 -67t51.5 -43.5t66 -15.5q33 0 63 14.5t53.5 42t37 68t13.5 92.5q0 41 -10.5 79t-31.5 67.5t-51.5 47t-70.5 17.5z" />
    <glyph glyph-name="pi" unicode="&#x3c0;" horiz-adv-x="516" 
d="M409 444v-298q0 -64 4 -97.5t10 -48.5h-45q-6 11 -11 45t-5 97v302h-190q-2 -52 -8 -115t-15 -124.5t-21 -116t-25 -88.5h-45q13 37 25 91.5t21 115.5t14.5 123t7.5 114q-36 -1 -60.5 -5t-41.5 -10l-7 30q16 11 45.5 17.5t85.5 6.5h336l-6 -39h-69z" />
    <glyph glyph-name="omegatonos" unicode="&#x3ce;" horiz-adv-x="652" 
d="M347 172q0 -34 8 -61t22 -45.5t32 -28.5t37 -10q24 0 45 13t37.5 40t26 69.5t9.5 101.5q0 78 -24 138.5t-58 91.5v2h46q16 -14 31 -36t27 -52t19 -66.5t7 -78.5q0 -68 -14.5 -117.5t-37.5 -81.5t-53 -47t-60 -15q-43 0 -75 26t-46 78h-4q-14 -52 -46 -78t-78 -26
q-30 0 -58 13.5t-50.5 43.5t-36 78t-13.5 118q0 41 7.5 78t19.5 68t27 55.5t31 39.5h45v-2q-32 -33 -57 -95.5t-25 -142.5q0 -59 10.5 -100.5t27.5 -67t37.5 -37t41.5 -11.5q18 0 36 9t31.5 27t21.5 45t8 63l-1 181h47zM411 684l-80 -142h-34l59 142h55z" />
    <glyph glyph-name="rho" unicode="&#x3c1;" horiz-adv-x="524" 
d="M83 -198q-7 23 -9 70t-2 104v236q0 75 17.5 128.5t47 87.5t67.5 49.5t80 15.5q46 0 83 -17.5t63 -49.5t40 -77t14 -100q0 -65 -17.5 -113.5t-46 -81t-66.5 -49t-78 -16.5q-48 0 -90.5 21.5t-65.5 63.5h-1v-95v-49.5t1 -49.5t3 -44.5t5 -33.5h-45zM119 173q0 -31 12.5 -58
t33.5 -46.5t48 -30.5t56 -11q36 0 66.5 15.5t52.5 44t34.5 69.5t12.5 92q0 44 -10.5 82t-30.5 65.5t-48.5 43.5t-65.5 16q-30 0 -59 -13t-51.5 -41t-36.5 -72t-14 -105v-51z" />
    <glyph glyph-name="sigma" unicode="&#x3c3;" horiz-adv-x="521" 
d="M256 455q-39 0 -70 -16.5t-52.5 -45.5t-33 -68.5t-11.5 -85.5q0 -47 12.5 -86t34 -67t51.5 -43.5t66 -15.5q33 0 63 14.5t53.5 42t37 68t13.5 92.5q0 35 -9.5 72.5t-29.5 68t-51 50.5t-74 20zM382 493h66.5t55.5 2l-2 -39q-37 -1 -73 0t-73 2v-2q28 -14 49 -37t35.5 -51
t21.5 -59.5t7 -62.5q0 -68 -19.5 -116.5t-51 -79.5t-70.5 -46t-78 -15q-44 0 -82 17t-66.5 49.5t-45 78.5t-16.5 104q0 61 17.5 108.5t47 80t69 49.5t84.5 17h124z" />
    <glyph glyph-name="tau" unicode="&#x3c4;" horiz-adv-x="364" 
d="M354 444h-151v-335q0 -49 16 -65t37 -16q7 0 11.5 0.5t9.5 1.5q-1 -12 -4.5 -20t-8.5 -16q-8 -4 -23 -4q-48 0 -66.5 34.5t-18.5 120.5v299h-47q-45 0 -69 -5t-38 -10l-8 30q11 8 39.5 16t83.5 8h243z" />
    <glyph glyph-name="theta" unicode="&#x3b8;" horiz-adv-x="494" 
d="M252 720q51 0 89 -25.5t63.5 -72.5t38 -113.5t12.5 -148.5q0 -86 -13 -155t-38.5 -117t-64.5 -73.5t-90 -25.5q-95 0 -152.5 91.5t-57.5 279.5q0 78 14.5 144t41.5 114t66.5 75t90.5 27zM406 386q0 65 -10 119.5t-29.5 93.5t-49 61t-69.5 22q-38 0 -67.5 -23t-50 -63
t-31.5 -94t-11 -116h318zM88 348q0 -161 44.5 -241t117.5 -80q39 0 68.5 22.5t49 64.5t29.5 101t10 132h-319v1z" />
    <glyph glyph-name="omega" unicode="&#x3c9;" horiz-adv-x="652" 
d="M347 172q0 -34 8 -61t22 -45.5t32 -28.5t37 -10q24 0 45 13t37.5 40t26 69.5t9.5 101.5q0 78 -24 138.5t-58 91.5v2h46q16 -14 31 -36t27 -52t19 -66.5t7 -78.5q0 -68 -14.5 -117.5t-37.5 -81.5t-53 -47t-60 -15q-43 0 -75 26t-46 78h-4q-14 -52 -46 -78t-78 -26
q-30 0 -58 13.5t-50.5 43.5t-36 78t-13.5 118q0 41 7.5 78t19.5 68t27 55.5t31 39.5h45v-2q-32 -33 -57 -95.5t-25 -142.5q0 -59 10.5 -100.5t27.5 -67t37.5 -37t41.5 -11.5q18 0 36 9t31.5 27t21.5 45t8 63l-1 181h47z" />
    <glyph glyph-name="sigma1" unicode="&#x3c2;" horiz-adv-x="378" 
d="M353 441q-17 8 -36.5 12t-45.5 4q-41 0 -74.5 -17.5t-57.5 -47.5t-37 -69t-13 -81q0 -63 22 -103t58.5 -65t84.5 -37.5t99 -20.5q9 -1 9 -14q0 -18 -4.5 -38.5t-11.5 -39.5t-16 -35.5t-19 -26.5l-34 9q7 8 14 22t12.5 30t9 32.5t3.5 28.5q-50 7 -99.5 21t-88.5 42.5
t-63.5 74.5t-24.5 116q0 49 16 95.5t46 82.5t73 57.5t97 21.5q29 0 52.5 -5t40.5 -13z" />
    <glyph glyph-name="chi" unicode="&#x3c7;" horiz-adv-x="428" 
d="M75 483l140 -288q6 10 14.5 26t18 34t18.5 37t17 34l76 157h49l-168 -326l175 -351l-46 -13l-157 323q-5 -9 -13 -24.5t-16.5 -33.5l-17 -36t-14.5 -31l-96 -198l-42 13l174 351l-164 326h52z" />
    <glyph glyph-name="upsilon" unicode="&#x3c5;" horiz-adv-x="485" 
d="M104 483q8 -15 10.5 -51t2.5 -101v-119q0 -97 36 -140.5t91 -43.5q72 0 108.5 67.5t36.5 183.5q0 68 -10.5 121.5t-23.5 82.5h45q20 -42 28 -92.5t8 -110.5q0 -57 -10 -109.5t-33.5 -93t-61 -64.5t-91.5 -24q-84 0 -127 57t-43 175v111q0 61 -2 96.5t-8 54.5h44z" />
    <glyph glyph-name="zeta" unicode="&#x3b6;" horiz-adv-x="375" 
d="M373 675q-59 -35 -110.5 -84t-90 -105.5t-61 -117.5t-22.5 -120q0 -64 20 -104t55 -64.5t83 -37t104 -20.5q11 -2 11 -11q0 -19 -4.5 -39.5t-12 -40t-16.5 -36.5t-18 -28l-32 10q6 9 12 23t11.5 29.5t9 31t3.5 28.5q-56 8 -105.5 22.5t-87.5 43t-60 73.5t-22 113
q0 57 19.5 116.5t54 116.5t83 107.5t107.5 88.5v3h-99q-29 0 -55.5 1t-46.5 6l5 32q20 -3 49 -3.5t56 -0.5h152z" />
    <glyph glyph-name="iotadieresis" unicode="&#x3ca;" horiz-adv-x="199" 
d="M-18 601q0 16 11 27.5t27 11.5t27.5 -11.5t11.5 -27.5t-11.5 -27t-27.5 -11t-27 11t-11 27zM140 601q0 16 11 27.5t27 11.5t27.5 -11.5t11.5 -27.5t-11.5 -27t-27.5 -11t-27 11t-11 27zM121 107q0 -25 2 -40.5t6.5 -24.5t12.5 -12t20 -2l-4 -35q-11 -4 -25 -4
q-13 0 -24 4.5t-18.5 17.5t-12 35t-4.5 57v380h47v-376z" />
    <glyph glyph-name="upsilondieresis" unicode="&#x3cb;" horiz-adv-x="485" 
d="M117 601q0 16 11 27.5t27 11.5t27.5 -11.5t11.5 -27.5t-11.5 -27t-27.5 -11t-27 11t-11 27zM275 601q0 16 11 27.5t27 11.5t27.5 -11.5t11.5 -27.5t-11.5 -27t-27.5 -11t-27 11t-11 27zM104 483q8 -15 10.5 -51t2.5 -101v-119q0 -97 36 -140.5t91 -43.5q72 0 108.5 67.5
t36.5 183.5q0 68 -10.5 121.5t-23.5 82.5h45q20 -42 28 -92.5t8 -110.5q0 -57 -10 -109.5t-33.5 -93t-61 -64.5t-91.5 -24q-84 0 -127 57t-43 175v111q0 61 -2 96.5t-8 54.5h44z" />
    <glyph glyph-name="iotadieresistonos" unicode="&#x390;" horiz-adv-x="199" 
d="M121 107q0 -25 2 -40.5t6.5 -24.5t12.5 -12t20 -2l-4 -35q-11 -4 -25 -4q-13 0 -24 4.5t-18.5 17.5t-12 35t-4.5 57v380h47v-376zM-29 605q0 14 10 24.5t24 10.5q15 0 25 -10t10 -25q0 -14 -10.5 -24t-24.5 -10t-24 10t-10 24zM151 693l-45 -153h-30l26 153h49zM178 605
q0 14 10 24.5t24 10.5q15 0 25 -10t10 -25q0 -14 -10.5 -24t-24.5 -10t-24 10t-10 24z" />
    <glyph glyph-name="upsilondieresistonos" unicode="&#x3b0;" horiz-adv-x="485" 
d="M104 483q8 -15 10.5 -51t2.5 -101v-119q0 -97 36 -140.5t91 -43.5q72 0 108.5 67.5t36.5 183.5q0 68 -10.5 121.5t-23.5 82.5h45q20 -42 28 -92.5t8 -110.5q0 -57 -10 -109.5t-33.5 -93t-61 -64.5t-91.5 -24q-84 0 -127 57t-43 175v111q0 61 -2 96.5t-8 54.5h44zM100 605
q0 14 10 24.5t24 10.5q15 0 25 -10t10 -25q0 -14 -10.5 -24t-24.5 -10t-24 10t-10 24zM280 693l-45 -153h-30l26 153h49zM307 605q0 14 10 24.5t24 10.5q15 0 25 -10t10 -25q0 -14 -10.5 -24t-24.5 -10t-24 10t-10 24z" />
    <glyph glyph-name="Gbreve" unicode="&#x11e;" horiz-adv-x="610" 
d="M552 29q-26 -11 -75 -23.5t-116 -12.5q-66 0 -123.5 19t-108.5 68q-42 42 -67 106t-25 148q0 72 23 135.5t66.5 110.5t107.5 74t147 27q54 0 93.5 -10t59.5 -20l-16 -39q-26 12 -58.5 20t-80.5 8q-67 0 -121 -21t-92 -60.5t-58.5 -95.5t-20.5 -126q0 -72 20 -128.5
t56.5 -95.5t88.5 -59t117 -20q51 0 84.5 6.5t51.5 15.5v239h-153v39h200v-305zM215 844q5 -30 26 -51.5t53 -21.5q19 0 33 6.5t24 17t15 23.5t6 26h36q0 -51 -31.5 -82t-82.5 -31q-32 0 -53.5 10.5t-35 26.5t-19.5 36t-6 40h35z" />
    <glyph glyph-name="gbreve" unicode="&#x11f;" horiz-adv-x="532" 
d="M453 70q0 -141 -51 -209.5t-172 -68.5q-42 0 -82 10t-67 30l17 38q24 -16 58.5 -27.5t80.5 -11.5q37 0 68 11t53.5 35t35 62.5t12.5 94.5v57h-2q-19 -36 -59 -63.5t-103 -27.5q-44 0 -81 18.5t-63.5 50t-41.5 74.5t-15 93q0 63 18.5 111t48.5 80t67.5 48t76.5 16
q34 0 60.5 -8.5t45.5 -22t31.5 -29t19.5 -30.5h3v79h45q-2 -26 -3 -56t-1 -70v-284zM406 297q0 25 -6 46q-7 21 -20 40.5t-31 34.5t-42 24t-52 9q-38 0 -68.5 -15t-52.5 -42.5t-34 -66t-12 -86.5q0 -41 10.5 -78t31.5 -64.5t52 -43.5t72 -16q46 0 86 27t58 81q8 27 8 50v100
zM170 654q5 -30 26 -51.5t53 -21.5q19 0 33 6.5t24 17t15 23.5t6 26h36q0 -51 -31.5 -82t-82.5 -31q-32 0 -53.5 10.5t-35 26.5t-19.5 36t-6 40h35z" />
    <glyph glyph-name="Idotaccent" unicode="&#x130;" horiz-adv-x="208" 
d="M127 674v-674h-47v674h47zM64 763q0 17 11 28.5t28 11.5t28.5 -11.5t11.5 -28.5t-11.5 -28t-28.5 -11t-28 11t-11 28z" />
    <glyph glyph-name="Scedilla" unicode="&#x15e;" horiz-adv-x="455" 
d="M59 74q28 -20 65 -32t79 -12q75 0 117.5 38.5t42.5 101.5q0 57 -31 93t-103 65q-78 28 -124 72t-46 114q0 37 14.5 68.5t40 54t61 35t77.5 12.5q48 0 81 -10t50 -21l-18 -40q-14 10 -44 20.5t-72 10.5q-40 0 -67.5 -11.5t-44 -29.5t-24 -39.5t-7.5 -41.5q0 -56 33 -89.5
t104 -61.5q41 -17 72 -36t52 -42t31.5 -52t10.5 -66t-13 -70.5t-39.5 -59t-66 -40.5t-91.5 -15q-21 0 -43.5 3.5t-43.5 9.5t-39.5 14t-31.5 17zM226 -9l-36 -56q27 -4 47.5 -21.5t20.5 -45.5q0 -21 -7.5 -35.5t-20.5 -23.5t-29.5 -13.5t-35.5 -4.5q-14 0 -31 4.5t-29 11.5
l12 34q22 -13 54 -13q18 0 32 7.5t14 27.5q-1 23 -23 32.5t-54 12.5l49 83h37z" />
    <glyph glyph-name="scedilla" unicode="&#x15f;" horiz-adv-x="366" 
d="M60 63q19 -12 46 -22.5t59 -10.5q57 0 83.5 26.5t26.5 64.5q0 39 -24 63.5t-75 45.5q-58 23 -89 54.5t-31 76.5q0 26 10 49.5t29 41.5t46 28.5t61 10.5q32 0 59 -9t45 -21l-19 -39q-12 9 -34.5 19t-57.5 10q-45 0 -68.5 -25t-23.5 -58q0 -37 24 -57.5t73 -40.5
q57 -23 89.5 -55.5t32.5 -87.5q0 -63 -44 -100t-116 -37q-35 0 -66 9t-54 24zM185 -6l-36 -56q27 -4 47.5 -21.5t20.5 -45.5q0 -21 -7.5 -35.5t-20.5 -23.5t-29.5 -13.5t-35.5 -4.5q-14 0 -31 4.5t-29 11.5l12 34q22 -13 54 -13q18 0 32 7.5t14 27.5q-1 23 -23 32.5
t-54 12.5l49 83h37z" />
    <glyph glyph-name="Abreve" unicode="&#x102;" horiz-adv-x="574" 
d="M160 235l-82 -235h-48l238 674h46l237 -674h-49l-82 235h-260zM405 275l-79 223q-12 35 -19.5 63.5t-15.5 57.5h-2q-8 -30 -16 -58.5t-19 -60.5l-80 -225h231zM211 837q5 -30 26 -51.5t53 -21.5q19 0 33 6.5t24 17t15 23.5t6 26h36q0 -51 -31.5 -82t-82.5 -31
q-32 0 -53.5 10.5t-35 26.5t-19.5 36t-6 40h35z" />
    <glyph glyph-name="abreve" unicode="&#x103;" horiz-adv-x="446" 
d="M372 114q0 -29 1 -58t6 -56h-44l-7 68h-2q-9 -14 -23 -28t-32.5 -25.5t-42 -18.5t-51.5 -7q-35 0 -61.5 11.5t-43.5 30t-25.5 42.5t-8.5 48q0 85 71.5 131t215.5 44v13q0 19 -3.5 43.5t-15.5 46.5t-36 37t-65 15q-31 0 -61.5 -9.5t-55.5 -26.5l-15 35q32 22 66 31.5
t71 9.5q50 0 81.5 -17t49.5 -44t24.5 -60.5t6.5 -66.5v-189zM325 257q-38 1 -79.5 -3t-76.5 -17.5t-58 -39.5t-23 -69q0 -51 29 -75t65 -24q29 0 52 8t40 21.5t28.5 30.5t17.5 35q5 20 5 29v104zM129 654q5 -30 26 -51.5t53 -21.5q19 0 33 6.5t24 17t15 23.5t6 26h36
q0 -51 -31.5 -82t-82.5 -31q-32 0 -53.5 10.5t-35 26.5t-19.5 36t-6 40h35z" />
    <glyph glyph-name="Itilde" unicode="&#x128;" horiz-adv-x="208" 
d="M127 674v-674h-47v674h47zM-8 724q-1 33 14 58t44 25q16 0 29 -6t32 -16q12 -6 22.5 -11t24.5 -5q11 0 17.5 8.5t8.5 32.5h30q0 -35 -14 -57.5t-46 -22.5q-14 0 -27.5 6t-28.5 15q-15 8 -25.5 13t-21.5 5q-13 0 -19 -12.5t-8 -32.5h-32z" />
    <glyph glyph-name="itilde" unicode="&#x129;" horiz-adv-x="206" 
d="M79 0v480h47v-480h-47zM-9 530q-1 33 14 58t44 25q16 0 29 -6t32 -16q12 -6 22.5 -11t24.5 -5q11 0 17.5 8.5t8.5 32.5h30q0 -35 -14 -57.5t-46 -22.5q-14 0 -27.5 6t-28.5 15q-15 8 -25.5 13t-21.5 5q-13 0 -19 -12.5t-8 -32.5h-32z" />
    <glyph glyph-name="Utilde" unicode="&#x168;" horiz-adv-x="613" 
d="M127 674v-410q0 -63 13.5 -107.5t37.5 -72.5t56 -41t68 -13q40 0 74 13.5t58.5 42t38 72.5t13.5 106v410h47v-406q0 -77 -19 -130t-51 -86t-74.5 -48t-89.5 -15q-43 0 -82.5 13.5t-70 45.5t-48.5 83.5t-18 128.5v414h47zM195 724q-1 33 14 58t44 25q16 0 29 -6t32 -16
q12 -6 22.5 -11t24.5 -5q11 0 17.5 8.5t8.5 32.5h30q0 -35 -14 -57.5t-46 -22.5q-14 0 -27.5 6t-28.5 15q-15 8 -25.5 13t-21.5 5q-13 0 -19 -12.5t-8 -32.5h-32z" />
    <glyph glyph-name="utilde" unicode="&#x169;" horiz-adv-x="519" 
d="M441 117q0 -32 1 -61t3 -56h-46v83h-4q-9 -16 -23 -33t-34 -30.5t-45.5 -22t-57.5 -8.5q-23 0 -51 8t-52 30.5t-40.5 63.5t-16.5 107v282h48v-272q0 -39 6.5 -71.5t21 -56t38 -37t58.5 -13.5q26 0 48 8.5t39.5 22.5t30 31t19.5 35q4 11 6.5 24.5t2.5 27.5v301h48v-363z
M149 530q-1 33 14 58t44 25q16 0 29 -6t32 -16q12 -6 22.5 -11t24.5 -5q11 0 17.5 8.5t8.5 32.5h30q0 -35 -14 -57.5t-46 -22.5q-14 0 -27.5 6t-28.5 15q-15 8 -25.5 13t-21.5 5q-13 0 -19 -12.5t-8 -32.5h-32z" />
    <glyph glyph-name="Ohorn" unicode="&#x1a0;" horiz-adv-x="769" 
d="M324 -11q-60 0 -112.5 23.5t-91.5 67.5t-61 107.5t-22 143.5q0 83 23 149t63 111.5t93.5 69.5t115.5 24q61 0 113.5 -23.5t90.5 -68.5q10 -11 18.5 -23.5t16.5 -26.5l1 -1q18 -26 42.5 -43t48.5 -17q25 -1 36.5 13.5t11.5 31.5q0 11 -2 24t-8 25l31 8q15 -29 15 -68
q0 -34 -20 -56t-55 -22q-20 0 -39 10q-18 8 -32 21q16 -55 16 -126q0 -89 -24.5 -155.5t-65.5 -110.5t-93.5 -66t-109.5 -22zM325 29q59 0 104 25.5t76 68.5t46.5 99t15.5 118q0 53 -14.5 107.5t-44 98.5t-75 71.5t-106.5 27.5q-62 0 -107.5 -27t-75 -71t-44 -100.5
t-14.5 -114.5q0 -56 15.5 -110.5t46 -97.5t75 -69t102.5 -26z" />
    <glyph glyph-name="ohorn" unicode="&#x1a1;" horiz-adv-x="607" 
d="M262 491q97 0 157 -68q19 -22 32 -48l18 -19q15 -13 31.5 -21t32.5 -8q25 -1 36.5 13.5t11.5 31.5q0 11 -2 24t-8 25l31 8q15 -29 15 -68q0 -34 -20 -56t-55 -22q-20 0 -39 10q-8 4 -15.5 9t-14.5 10q6 -32 6 -68q0 -68 -20 -116t-52.5 -79t-72 -45.5t-78.5 -14.5
q-45 0 -84.5 17t-68.5 49.5t-45.5 78t-16.5 102.5q0 62 18 109.5t49 80t70.5 49t83.5 16.5zM261 451q-45 0 -77.5 -19t-54 -49t-31.5 -68t-10 -76q0 -45 12.5 -83.5t35 -66.5t53.5 -44t69 -16q37 0 69 16t55 44t36 67t13 86q0 33 -9.5 69.5t-29.5 67.5t-52.5 51.5
t-78.5 20.5z" />
    <glyph glyph-name="Uhorn" unicode="&#x1af;" horiz-adv-x="697" 
d="M127 674v-410q0 -63 13.5 -107.5t37.5 -72.5t56 -41t68 -13q40 0 74 13.5t58.5 42t38 72.5t13.5 106v410h47v-26l12 -16q18 -26 42.5 -43t48.5 -17q25 -1 36.5 13.5t11.5 31.5q0 11 -2 24t-8 25l31 8q15 -29 15 -68q0 -34 -20 -56t-55 -22q-14 0 -29 6t-29 15.5t-26 21.5
t-21 24q-3 3 -7 9v-336q0 -77 -19 -130t-51 -86t-74.5 -48t-89.5 -15q-43 0 -82.5 13.5t-70 45.5t-48.5 83.5t-18 128.5v414h47z" />
    <glyph glyph-name="uhorn" unicode="&#x1b0;" horiz-adv-x="623" 
d="M441 117q0 -32 1 -61t3 -56h-46v83h-4q-9 -16 -23 -33t-34 -30.5t-45.5 -22t-57.5 -8.5q-23 0 -51 8t-52 30.5t-40.5 63.5t-16.5 107v282h48v-272q0 -39 6.5 -71.5t21 -56t38 -37t58.5 -13.5q26 0 48 8.5t39.5 22.5t30 31t19.5 35q4 11 6.5 24.5t2.5 27.5v301h48v-14
l8 -12t9 -12q18 -26 42.5 -43t48.5 -17q25 -1 36.5 13.5t11.5 31.5q0 11 -2 24t-8 25l31 8q15 -29 15 -68q0 -34 -20 -56t-55 -22q-14 0 -29 6t-29 15.5t-26 21.5t-21 24q-6 8 -12 17v-305z" />
    <glyph glyph-name="gravecmb" unicode="&#x300;" 
d="M-231 677l88 -137h-36l-121 137h69z" />
    <glyph glyph-name="acutecmb" unicode="&#x301;" 
d="M-143 677l-121 -137h-36l88 137h69z" />
    <glyph glyph-name="tildecmb" unicode="&#x303;" 
d="M-299 563q-1 33 14 58t44 25q16 0 29 -6t32 -16q12 -6 22.5 -11t24.5 -5q11 0 17.5 8.5t8.5 32.5h30q0 -35 -14 -57.5t-46 -22.5q-14 0 -27.5 6t-28.5 15q-15 8 -25.5 13t-21.5 5q-13 0 -19 -12.5t-8 -32.5h-32z" />
    <glyph glyph-name="brevecmb" unicode="&#x306;" 
d="M-265 674q5 -30 26 -51.5t53 -21.5q19 0 33 6.5t24 17t15 23.5t6 26h36q0 -51 -31.5 -82t-82.5 -31q-32 0 -53.5 10.5t-35 26.5t-19.5 36t-6 40h35z" />
    <glyph glyph-name="dotbelowcmb" unicode="&#x323;" 
d="M-133 -160q-18 0 -29 13t-11 32t11.5 32t29.5 13t29 -13t11 -32q0 -20 -11.5 -32.5t-29.5 -12.5z" />
    <glyph glyph-name="uni03BC" unicode="&#x3bc;" horiz-adv-x="512" 
d="M121 483v-325q0 -26 9 -49.5t25 -41t39 -28t51 -10.5q30 0 55.5 12t45 30t30.5 39.5t11 41.5v331h47v-360q0 -55 8 -75t33 -21l-5 -35q-5 -2 -8.5 -2.5t-9.5 -0.5q-12 0 -22.5 4t-18.5 14t-13 27.5t-6 44.5h-2q-9 -15 -22.5 -30.5t-32.5 -28.5t-42 -21t-51 -8
q-41 0 -75 18.5t-49 50.5v-79q0 -24 0.5 -50t2 -50t4 -44.5t6.5 -33.5l-43 -2q-8 23 -11 71t-3 106v505h47z" />
    <glyph glyph-name="Adotbelow" unicode="&#x1ea0;" horiz-adv-x="574" 
d="M160 235l-82 -235h-48l238 674h46l237 -674h-49l-82 235h-260zM405 275l-79 223q-12 35 -19.5 63.5t-15.5 57.5h-2q-8 -30 -16 -58.5t-19 -60.5l-80 -225h231zM251 -90q0 17 11 28.5t28 11.5t28.5 -11.5t11.5 -28.5t-11.5 -28t-28.5 -11t-28 11t-11 28z" />
    <glyph glyph-name="adotbelow" unicode="&#x1ea1;" horiz-adv-x="446" 
d="M372 114q0 -29 1 -58t6 -56h-44l-7 68h-2q-9 -14 -23 -28t-32.5 -25.5t-42 -18.5t-51.5 -7q-35 0 -61.5 11.5t-43.5 30t-25.5 42.5t-8.5 48q0 85 71.5 131t215.5 44v13q0 19 -3.5 43.5t-15.5 46.5t-36 37t-65 15q-31 0 -61.5 -9.5t-55.5 -26.5l-15 35q32 22 66 31.5
t71 9.5q50 0 81.5 -17t49.5 -44t24.5 -60.5t6.5 -66.5v-189zM325 257q-38 1 -79.5 -3t-76.5 -17.5t-58 -39.5t-23 -69q0 -51 29 -75t65 -24q29 0 52 8t40 21.5t28.5 30.5t17.5 35q5 20 5 29v104zM169 -101q0 17 11 28.5t28 11.5t28.5 -11.5t11.5 -28.5t-11.5 -28t-28.5 -11
t-28 11t-11 28z" />
    <glyph glyph-name="Ahookabove" unicode="&#x1ea2;" horiz-adv-x="574" 
d="M160 235l-82 -235h-48l238 674h46l237 -674h-49l-82 235h-260zM405 275l-79 223q-12 35 -19.5 63.5t-15.5 57.5h-2q-8 -30 -16 -58.5t-19 -60.5l-80 -225h231zM202 734q20 5 40 13t36.5 19t28.5 24.5t16 29.5q7 24 -4 39t-27 19q-11 3 -24 4.5t-26 -1.5v32q32 8 70 -3
q33 -9 49 -34t7 -59q-5 -18 -20 -34.5t-34 -29t-38.5 -20.5t-34.5 -9z" />
    <glyph glyph-name="ahookabove" unicode="&#x1ea3;" horiz-adv-x="446" 
d="M372 114q0 -29 1 -58t6 -56h-44l-7 68h-2q-9 -14 -23 -28t-32.5 -25.5t-42 -18.5t-51.5 -7q-35 0 -61.5 11.5t-43.5 30t-25.5 42.5t-8.5 48q0 85 71.5 131t215.5 44v13q0 19 -3.5 43.5t-15.5 46.5t-36 37t-65 15q-31 0 -61.5 -9.5t-55.5 -26.5l-15 35q32 22 66 31.5
t71 9.5q50 0 81.5 -17t49.5 -44t24.5 -60.5t6.5 -66.5v-189zM325 257q-38 1 -79.5 -3t-76.5 -17.5t-58 -39.5t-23 -69q0 -51 29 -75t65 -24q29 0 52 8t40 21.5t28.5 30.5t17.5 35q5 20 5 29v104zM120 551q20 5 40 13t36.5 19t28.5 24.5t16 29.5q7 24 -4 39t-27 19
q-11 3 -24 4.5t-26 -1.5v32q32 8 70 -3q33 -9 49 -34t7 -59q-5 -18 -20 -34.5t-34 -29t-38.5 -20.5t-34.5 -9z" />
    <glyph glyph-name="Acircumflexacute" unicode="&#x1ea4;" horiz-adv-x="574" 
d="M160 235l-82 -235h-48l238 674h46l237 -674h-49l-82 235h-260zM405 275l-79 223q-12 35 -19.5 63.5t-15.5 57.5h-2q-8 -30 -16 -58.5t-19 -60.5l-80 -225h231zM306 861l93 -137h-48l-61 99h-2l-62 -99h-45l90 137h35zM606 861l-121 -137h-36l88 137h69z" />
    <glyph glyph-name="acircumflexacute" unicode="&#x1ea5;" horiz-adv-x="446" 
d="M372 114q0 -29 1 -58t6 -56h-44l-7 68h-2q-9 -14 -23 -28t-32.5 -25.5t-42 -18.5t-51.5 -7q-35 0 -61.5 11.5t-43.5 30t-25.5 42.5t-8.5 48q0 85 71.5 131t215.5 44v13q0 19 -3.5 43.5t-15.5 46.5t-36 37t-65 15q-31 0 -61.5 -9.5t-55.5 -26.5l-15 35q32 22 66 31.5
t71 9.5q50 0 81.5 -17t49.5 -44t24.5 -60.5t6.5 -66.5v-189zM325 257q-38 1 -79.5 -3t-76.5 -17.5t-58 -39.5t-23 -69q0 -51 29 -75t65 -24q29 0 52 8t40 21.5t28.5 30.5t17.5 35q5 20 5 29v104zM224 678l93 -137h-48l-61 99h-2l-62 -99h-45l90 137h35zM524 678l-121 -137
h-36l88 137h69z" />
    <glyph glyph-name="Acircumflexgrave" unicode="&#x1ea6;" horiz-adv-x="574" 
d="M160 235l-82 -235h-48l238 674h46l237 -674h-49l-82 235h-260zM405 275l-79 223q-12 35 -19.5 63.5t-15.5 57.5h-2q-8 -30 -16 -58.5t-19 -60.5l-80 -225h231zM306 861l93 -137h-48l-61 99h-2l-62 -99h-45l90 137h35zM43 861l88 -137h-36l-121 137h69z" />
    <glyph glyph-name="acircumflexgrave" unicode="&#x1ea7;" horiz-adv-x="446" 
d="M372 114q0 -29 1 -58t6 -56h-44l-7 68h-2q-9 -14 -23 -28t-32.5 -25.5t-42 -18.5t-51.5 -7q-35 0 -61.5 11.5t-43.5 30t-25.5 42.5t-8.5 48q0 85 71.5 131t215.5 44v13q0 19 -3.5 43.5t-15.5 46.5t-36 37t-65 15q-31 0 -61.5 -9.5t-55.5 -26.5l-15 35q32 22 66 31.5
t71 9.5q50 0 81.5 -17t49.5 -44t24.5 -60.5t6.5 -66.5v-189zM325 257q-38 1 -79.5 -3t-76.5 -17.5t-58 -39.5t-23 -69q0 -51 29 -75t65 -24q29 0 52 8t40 21.5t28.5 30.5t17.5 35q5 20 5 29v104zM224 678l93 -137h-48l-61 99h-2l-62 -99h-45l90 137h35zM-39 678l88 -137h-36
l-121 137h69z" />
    <glyph glyph-name="Acircumflexhookabove" unicode="&#x1ea8;" horiz-adv-x="574" 
d="M160 235l-82 -235h-48l238 674h46l237 -674h-49l-82 235h-260zM405 275l-79 223q-12 35 -19.5 63.5t-15.5 57.5h-2q-8 -30 -16 -58.5t-19 -60.5l-80 -225h231zM306 861l93 -137h-48l-61 99h-2l-62 -99h-45l90 137h35zM399 704q20 5 40 13t36.5 19t28.5 24.5t16 29.5
q7 24 -4 39t-27 19q-11 3 -24 4.5t-26 -1.5v32q32 8 70 -3q33 -9 49 -34t7 -59q-5 -18 -20 -34.5t-34 -29t-38.5 -20.5t-34.5 -9z" />
    <glyph glyph-name="acircumflexhookabove" unicode="&#x1ea9;" horiz-adv-x="446" 
d="M372 114q0 -29 1 -58t6 -56h-44l-7 68h-2q-9 -14 -23 -28t-32.5 -25.5t-42 -18.5t-51.5 -7q-35 0 -61.5 11.5t-43.5 30t-25.5 42.5t-8.5 48q0 85 71.5 131t215.5 44v13q0 19 -3.5 43.5t-15.5 46.5t-36 37t-65 15q-31 0 -61.5 -9.5t-55.5 -26.5l-15 35q32 22 66 31.5
t71 9.5q50 0 81.5 -17t49.5 -44t24.5 -60.5t6.5 -66.5v-189zM325 257q-38 1 -79.5 -3t-76.5 -17.5t-58 -39.5t-23 -69q0 -51 29 -75t65 -24q29 0 52 8t40 21.5t28.5 30.5t17.5 35q5 20 5 29v104zM224 678l93 -137h-48l-61 99h-2l-62 -99h-45l90 137h35zM317 521q20 5 40 13
t36.5 19t28.5 24.5t16 29.5q7 24 -4 39t-27 19q-11 3 -24 4.5t-26 -1.5v32q32 8 70 -3q33 -9 49 -34t7 -59q-5 -18 -20 -34.5t-34 -29t-38.5 -20.5t-34.5 -9z" />
    <glyph glyph-name="Acircumflextilde" unicode="&#x1eaa;" horiz-adv-x="574" 
d="M160 235l-82 -235h-48l238 674h46l237 -674h-49l-82 235h-260zM405 275l-79 223q-12 35 -19.5 63.5t-15.5 57.5h-2q-8 -30 -16 -58.5t-19 -60.5l-80 -225h231zM306 861l93 -137h-48l-61 99h-2l-62 -99h-45l90 137h35zM180 911q-1 33 14 58t44 25q16 0 29 -6t32 -16
q12 -6 22.5 -11t24.5 -5q11 0 17.5 8.5t8.5 32.5h30q0 -35 -14 -57.5t-46 -22.5q-14 0 -27.5 6t-28.5 15q-15 8 -25.5 13t-21.5 5q-13 0 -19 -12.5t-8 -32.5h-32z" />
    <glyph glyph-name="acircumflextilde" unicode="&#x1eab;" horiz-adv-x="446" 
d="M372 114q0 -29 1 -58t6 -56h-44l-7 68h-2q-9 -14 -23 -28t-32.5 -25.5t-42 -18.5t-51.5 -7q-35 0 -61.5 11.5t-43.5 30t-25.5 42.5t-8.5 48q0 85 71.5 131t215.5 44v13q0 19 -3.5 43.5t-15.5 46.5t-36 37t-65 15q-31 0 -61.5 -9.5t-55.5 -26.5l-15 35q32 22 66 31.5
t71 9.5q50 0 81.5 -17t49.5 -44t24.5 -60.5t6.5 -66.5v-189zM325 257q-38 1 -79.5 -3t-76.5 -17.5t-58 -39.5t-23 -69q0 -51 29 -75t65 -24q29 0 52 8t40 21.5t28.5 30.5t17.5 35q5 20 5 29v104zM224 678l93 -137h-48l-61 99h-2l-62 -99h-45l90 137h35zM98 728q-1 33 14 58
t44 25q16 0 29 -6t32 -16q12 -6 22.5 -11t24.5 -5q11 0 17.5 8.5t8.5 32.5h30q0 -35 -14 -57.5t-46 -22.5q-14 0 -27.5 6t-28.5 15q-15 8 -25.5 13t-21.5 5q-13 0 -19 -12.5t-8 -32.5h-32z" />
    <glyph glyph-name="Acircumflexdotbelow" unicode="&#x1eac;" horiz-adv-x="574" 
d="M160 235l-82 -235h-48l238 674h46l237 -674h-49l-82 235h-260zM405 275l-79 223q-12 35 -19.5 63.5t-15.5 57.5h-2q-8 -30 -16 -58.5t-19 -60.5l-80 -225h231zM306 861l93 -137h-48l-61 99h-2l-62 -99h-45l90 137h35zM251 -90q0 17 11 28.5t28 11.5t28.5 -11.5
t11.5 -28.5t-11.5 -28t-28.5 -11t-28 11t-11 28z" />
    <glyph glyph-name="acircumflexdotbelow" unicode="&#x1ead;" horiz-adv-x="446" 
d="M372 114q0 -29 1 -58t6 -56h-44l-7 68h-2q-9 -14 -23 -28t-32.5 -25.5t-42 -18.5t-51.5 -7q-35 0 -61.5 11.5t-43.5 30t-25.5 42.5t-8.5 48q0 85 71.5 131t215.5 44v13q0 19 -3.5 43.5t-15.5 46.5t-36 37t-65 15q-31 0 -61.5 -9.5t-55.5 -26.5l-15 35q32 22 66 31.5
t71 9.5q50 0 81.5 -17t49.5 -44t24.5 -60.5t6.5 -66.5v-189zM325 257q-38 1 -79.5 -3t-76.5 -17.5t-58 -39.5t-23 -69q0 -51 29 -75t65 -24q29 0 52 8t40 21.5t28.5 30.5t17.5 35q5 20 5 29v104zM224 678l93 -137h-48l-61 99h-2l-62 -99h-45l90 137h35zM169 -101
q0 17 11 28.5t28 11.5t28.5 -11.5t11.5 -28.5t-11.5 -28t-28.5 -11t-28 11t-11 28z" />
    <glyph glyph-name="Abreveacute" unicode="&#x1eae;" horiz-adv-x="574" 
d="M160 235l-82 -235h-48l238 674h46l237 -674h-49l-82 235h-260zM405 275l-79 223q-12 35 -19.5 63.5t-15.5 57.5h-2q-8 -30 -16 -58.5t-19 -60.5l-80 -225h231zM211 837q5 -30 26 -51.5t53 -21.5q19 0 33 6.5t24 17t15 23.5t6 26h36q0 -51 -31.5 -82t-82.5 -31
q-32 0 -53.5 10.5t-35 26.5t-19.5 36t-6 40h35zM369 1024l-121 -137h-36l88 137h69z" />
    <glyph glyph-name="abreveacute" unicode="&#x1eaf;" horiz-adv-x="446" 
d="M372 114q0 -29 1 -58t6 -56h-44l-7 68h-2q-9 -14 -23 -28t-32.5 -25.5t-42 -18.5t-51.5 -7q-35 0 -61.5 11.5t-43.5 30t-25.5 42.5t-8.5 48q0 85 71.5 131t215.5 44v13q0 19 -3.5 43.5t-15.5 46.5t-36 37t-65 15q-31 0 -61.5 -9.5t-55.5 -26.5l-15 35q32 22 66 31.5
t71 9.5q50 0 81.5 -17t49.5 -44t24.5 -60.5t6.5 -66.5v-189zM325 257q-38 1 -79.5 -3t-76.5 -17.5t-58 -39.5t-23 -69q0 -51 29 -75t65 -24q29 0 52 8t40 21.5t28.5 30.5t17.5 35q5 20 5 29v104zM129 654q5 -30 26 -51.5t53 -21.5q19 0 33 6.5t24 17t15 23.5t6 26h36
q0 -51 -31.5 -82t-82.5 -31q-32 0 -53.5 10.5t-35 26.5t-19.5 36t-6 40h35zM287 841l-121 -137h-36l88 137h69z" />
    <glyph glyph-name="Abrevegrave" unicode="&#x1eb0;" horiz-adv-x="574" 
d="M160 235l-82 -235h-48l238 674h46l237 -674h-49l-82 235h-260zM405 275l-79 223q-12 35 -19.5 63.5t-15.5 57.5h-2q-8 -30 -16 -58.5t-19 -60.5l-80 -225h231zM211 837q5 -30 26 -51.5t53 -21.5q19 0 33 6.5t24 17t15 23.5t6 26h36q0 -51 -31.5 -82t-82.5 -31
q-32 0 -53.5 10.5t-35 26.5t-19.5 36t-6 40h35zM281 1024l88 -137h-36l-121 137h69z" />
    <glyph glyph-name="abrevegrave" unicode="&#x1eb1;" horiz-adv-x="446" 
d="M372 114q0 -29 1 -58t6 -56h-44l-7 68h-2q-9 -14 -23 -28t-32.5 -25.5t-42 -18.5t-51.5 -7q-35 0 -61.5 11.5t-43.5 30t-25.5 42.5t-8.5 48q0 85 71.5 131t215.5 44v13q0 19 -3.5 43.5t-15.5 46.5t-36 37t-65 15q-31 0 -61.5 -9.5t-55.5 -26.5l-15 35q32 22 66 31.5
t71 9.5q50 0 81.5 -17t49.5 -44t24.5 -60.5t6.5 -66.5v-189zM325 257q-38 1 -79.5 -3t-76.5 -17.5t-58 -39.5t-23 -69q0 -51 29 -75t65 -24q29 0 52 8t40 21.5t28.5 30.5t17.5 35q5 20 5 29v104zM129 654q5 -30 26 -51.5t53 -21.5q19 0 33 6.5t24 17t15 23.5t6 26h36
q0 -51 -31.5 -82t-82.5 -31q-32 0 -53.5 10.5t-35 26.5t-19.5 36t-6 40h35zM199 841l88 -137h-36l-121 137h69z" />
    <glyph glyph-name="Abrevehookabove" unicode="&#x1eb2;" horiz-adv-x="574" 
d="M160 235l-82 -235h-48l238 674h46l237 -674h-49l-82 235h-260zM405 275l-79 223q-12 35 -19.5 63.5t-15.5 57.5h-2q-8 -30 -16 -58.5t-19 -60.5l-80 -225h231zM211 837q5 -30 26 -51.5t53 -21.5q19 0 33 6.5t24 17t15 23.5t6 26h36q0 -51 -31.5 -82t-82.5 -31
q-32 0 -53.5 10.5t-35 26.5t-19.5 36t-6 40h35zM202 897q20 5 40 13t36.5 19t28.5 24.5t16 29.5q7 24 -4 39t-27 19q-11 3 -24 4.5t-26 -1.5v32q32 8 70 -3q33 -9 49 -34t7 -59q-5 -18 -20 -34.5t-34 -29t-38.5 -20.5t-34.5 -9z" />
    <glyph glyph-name="abrevehookabove" unicode="&#x1eb3;" horiz-adv-x="446" 
d="M372 114q0 -29 1 -58t6 -56h-44l-7 68h-2q-9 -14 -23 -28t-32.5 -25.5t-42 -18.5t-51.5 -7q-35 0 -61.5 11.5t-43.5 30t-25.5 42.5t-8.5 48q0 85 71.5 131t215.5 44v13q0 19 -3.5 43.5t-15.5 46.5t-36 37t-65 15q-31 0 -61.5 -9.5t-55.5 -26.5l-15 35q32 22 66 31.5
t71 9.5q50 0 81.5 -17t49.5 -44t24.5 -60.5t6.5 -66.5v-189zM325 257q-38 1 -79.5 -3t-76.5 -17.5t-58 -39.5t-23 -69q0 -51 29 -75t65 -24q29 0 52 8t40 21.5t28.5 30.5t17.5 35q5 20 5 29v104zM129 654q5 -30 26 -51.5t53 -21.5q19 0 33 6.5t24 17t15 23.5t6 26h36
q0 -51 -31.5 -82t-82.5 -31q-32 0 -53.5 10.5t-35 26.5t-19.5 36t-6 40h35zM120 714q20 5 40 13t36.5 19t28.5 24.5t16 29.5q7 24 -4 39t-27 19q-11 3 -24 4.5t-26 -1.5v32q32 8 70 -3q33 -9 49 -34t7 -59q-5 -18 -20 -34.5t-34 -29t-38.5 -20.5t-34.5 -9z" />
    <glyph glyph-name="Abrevetilde" unicode="&#x1eb4;" horiz-adv-x="574" 
d="M160 235l-82 -235h-48l238 674h46l237 -674h-49l-82 235h-260zM405 275l-79 223q-12 35 -19.5 63.5t-15.5 57.5h-2q-8 -30 -16 -58.5t-19 -60.5l-80 -225h231zM211 837q5 -30 26 -51.5t53 -21.5q19 0 33 6.5t24 17t15 23.5t6 26h36q0 -51 -31.5 -82t-82.5 -31
q-32 0 -53.5 10.5t-35 26.5t-19.5 36t-6 40h35zM180 887q-1 33 14 58t44 25q16 0 29 -6t32 -16q12 -6 22.5 -11t24.5 -5q11 0 17.5 8.5t8.5 32.5h30q0 -35 -14 -57.5t-46 -22.5q-14 0 -27.5 6t-28.5 15q-15 8 -25.5 13t-21.5 5q-13 0 -19 -12.5t-8 -32.5h-32z" />
    <glyph glyph-name="abrevetilde" unicode="&#x1eb5;" horiz-adv-x="446" 
d="M372 114q0 -29 1 -58t6 -56h-44l-7 68h-2q-9 -14 -23 -28t-32.5 -25.5t-42 -18.5t-51.5 -7q-35 0 -61.5 11.5t-43.5 30t-25.5 42.5t-8.5 48q0 85 71.5 131t215.5 44v13q0 19 -3.5 43.5t-15.5 46.5t-36 37t-65 15q-31 0 -61.5 -9.5t-55.5 -26.5l-15 35q32 22 66 31.5
t71 9.5q50 0 81.5 -17t49.5 -44t24.5 -60.5t6.5 -66.5v-189zM325 257q-38 1 -79.5 -3t-76.5 -17.5t-58 -39.5t-23 -69q0 -51 29 -75t65 -24q29 0 52 8t40 21.5t28.5 30.5t17.5 35q5 20 5 29v104zM129 654q5 -30 26 -51.5t53 -21.5q19 0 33 6.5t24 17t15 23.5t6 26h36
q0 -51 -31.5 -82t-82.5 -31q-32 0 -53.5 10.5t-35 26.5t-19.5 36t-6 40h35zM98 704q-1 33 14 58t44 25q16 0 29 -6t32 -16q12 -6 22.5 -11t24.5 -5q11 0 17.5 8.5t8.5 32.5h30q0 -35 -14 -57.5t-46 -22.5q-14 0 -27.5 6t-28.5 15q-15 8 -25.5 13t-21.5 5q-13 0 -19 -12.5
t-8 -32.5h-32z" />
    <glyph glyph-name="Abrevedotbelow" unicode="&#x1eb6;" horiz-adv-x="574" 
d="M160 235l-82 -235h-48l238 674h46l237 -674h-49l-82 235h-260zM405 275l-79 223q-12 35 -19.5 63.5t-15.5 57.5h-2q-8 -30 -16 -58.5t-19 -60.5l-80 -225h231zM211 837q5 -30 26 -51.5t53 -21.5q19 0 33 6.5t24 17t15 23.5t6 26h36q0 -51 -31.5 -82t-82.5 -31
q-32 0 -53.5 10.5t-35 26.5t-19.5 36t-6 40h35zM251 -90q0 17 11 28.5t28 11.5t28.5 -11.5t11.5 -28.5t-11.5 -28t-28.5 -11t-28 11t-11 28z" />
    <glyph glyph-name="abrevedotbelow" unicode="&#x1eb7;" horiz-adv-x="446" 
d="M372 114q0 -29 1 -58t6 -56h-44l-7 68h-2q-9 -14 -23 -28t-32.5 -25.5t-42 -18.5t-51.5 -7q-35 0 -61.5 11.5t-43.5 30t-25.5 42.5t-8.5 48q0 85 71.5 131t215.5 44v13q0 19 -3.5 43.5t-15.5 46.5t-36 37t-65 15q-31 0 -61.5 -9.5t-55.5 -26.5l-15 35q32 22 66 31.5
t71 9.5q50 0 81.5 -17t49.5 -44t24.5 -60.5t6.5 -66.5v-189zM325 257q-38 1 -79.5 -3t-76.5 -17.5t-58 -39.5t-23 -69q0 -51 29 -75t65 -24q29 0 52 8t40 21.5t28.5 30.5t17.5 35q5 20 5 29v104zM129 654q5 -30 26 -51.5t53 -21.5q19 0 33 6.5t24 17t15 23.5t6 26h36
q0 -51 -31.5 -82t-82.5 -31q-32 0 -53.5 10.5t-35 26.5t-19.5 36t-6 40h35zM169 -101q0 17 11 28.5t28 11.5t28.5 -11.5t11.5 -28.5t-11.5 -28t-28.5 -11t-28 11t-11 28z" />
    <glyph glyph-name="Edotbelow" unicode="&#x1eb8;" horiz-adv-x="456" 
d="M391 335h-264v-295h295v-40h-342v674h327v-40h-280v-259h264v-40zM212 -90q0 17 11 28.5t28 11.5t28.5 -11.5t11.5 -28.5t-11.5 -28t-28.5 -11t-28 11t-11 28z" />
    <glyph glyph-name="edotbelow" unicode="&#x1eb9;" horiz-adv-x="474" 
d="M87 246q0 -59 14.5 -99.5t39 -66.5t57 -37.5t68.5 -11.5q48 0 78.5 9t50.5 18l12 -37q-14 -8 -50.5 -19.5t-96.5 -11.5q-51 0 -91.5 18t-69 50t-43.5 76.5t-15 97.5q0 60 16 107.5t44 81.5t66.5 52t83.5 18q58 0 93.5 -24t55.5 -57.5t27 -70.5t7 -64v-16t-1 -14zM385 284
q0 26 -6 55.5t-22 54.5t-43 41.5t-69 16.5q-38 0 -66 -16t-47 -40.5t-29 -54t-13 -57.5h295zM198 -100q0 17 11 28.5t28 11.5t28.5 -11.5t11.5 -28.5t-11.5 -28t-28.5 -11t-28 11t-11 28z" />
    <glyph glyph-name="Ehookabove" unicode="&#x1eba;" horiz-adv-x="456" 
d="M391 335h-264v-295h295v-40h-342v674h327v-40h-280v-259h264v-40zM163 734q20 5 40 13t36.5 19t28.5 24.5t16 29.5q7 24 -4 39t-27 19q-11 3 -24 4.5t-26 -1.5v32q32 8 70 -3q33 -9 49 -34t7 -59q-5 -18 -20 -34.5t-34 -29t-38.5 -20.5t-34.5 -9z" />
    <glyph glyph-name="ehookabove" unicode="&#x1ebb;" horiz-adv-x="474" 
d="M87 246q0 -59 14.5 -99.5t39 -66.5t57 -37.5t68.5 -11.5q48 0 78.5 9t50.5 18l12 -37q-14 -8 -50.5 -19.5t-96.5 -11.5q-51 0 -91.5 18t-69 50t-43.5 76.5t-15 97.5q0 60 16 107.5t44 81.5t66.5 52t83.5 18q58 0 93.5 -24t55.5 -57.5t27 -70.5t7 -64v-16t-1 -14zM385 284
q0 26 -6 55.5t-22 54.5t-43 41.5t-69 16.5q-38 0 -66 -16t-47 -40.5t-29 -54t-13 -57.5h295zM149 551q20 5 40 13t36.5 19t28.5 24.5t16 29.5q7 24 -4 39t-27 19q-11 3 -24 4.5t-26 -1.5v32q32 8 70 -3q33 -9 49 -34t7 -59q-5 -18 -20 -34.5t-34 -29t-38.5 -20.5t-34.5 -9z
" />
    <glyph glyph-name="Etilde" unicode="&#x1ebc;" horiz-adv-x="456" 
d="M391 335h-264v-295h295v-40h-342v674h327v-40h-280v-259h264v-40zM141 724q-1 33 14 58t44 25q16 0 29 -6t32 -16q12 -6 22.5 -11t24.5 -5q11 0 17.5 8.5t8.5 32.5h30q0 -35 -14 -57.5t-46 -22.5q-14 0 -27.5 6t-28.5 15q-15 8 -25.5 13t-21.5 5q-13 0 -19 -12.5
t-8 -32.5h-32z" />
    <glyph glyph-name="etilde" unicode="&#x1ebd;" horiz-adv-x="474" 
d="M87 246q0 -59 14.5 -99.5t39 -66.5t57 -37.5t68.5 -11.5q48 0 78.5 9t50.5 18l12 -37q-14 -8 -50.5 -19.5t-96.5 -11.5q-51 0 -91.5 18t-69 50t-43.5 76.5t-15 97.5q0 60 16 107.5t44 81.5t66.5 52t83.5 18q58 0 93.5 -24t55.5 -57.5t27 -70.5t7 -64v-16t-1 -14zM385 284
q0 26 -6 55.5t-22 54.5t-43 41.5t-69 16.5q-38 0 -66 -16t-47 -40.5t-29 -54t-13 -57.5h295zM127 541q-1 33 14 58t44 25q16 0 29 -6t32 -16q12 -6 22.5 -11t24.5 -5q11 0 17.5 8.5t8.5 32.5h30q0 -35 -14 -57.5t-46 -22.5q-14 0 -27.5 6t-28.5 15q-15 8 -25.5 13t-21.5 5
q-13 0 -19 -12.5t-8 -32.5h-32z" />
    <glyph glyph-name="Ecircumflexacute" unicode="&#x1ebe;" horiz-adv-x="456" 
d="M391 335h-264v-295h295v-40h-342v674h327v-40h-280v-259h264v-40zM267 861l93 -137h-48l-61 99h-2l-62 -99h-45l90 137h35zM567 861l-121 -137h-36l88 137h69z" />
    <glyph glyph-name="ecircumflexacute" unicode="&#x1ebf;" horiz-adv-x="474" 
d="M87 246q0 -59 14.5 -99.5t39 -66.5t57 -37.5t68.5 -11.5q48 0 78.5 9t50.5 18l12 -37q-14 -8 -50.5 -19.5t-96.5 -11.5q-51 0 -91.5 18t-69 50t-43.5 76.5t-15 97.5q0 60 16 107.5t44 81.5t66.5 52t83.5 18q58 0 93.5 -24t55.5 -57.5t27 -70.5t7 -64v-16t-1 -14zM385 284
q0 26 -6 55.5t-22 54.5t-43 41.5t-69 16.5q-38 0 -66 -16t-47 -40.5t-29 -54t-13 -57.5h295zM253 678l93 -137h-48l-61 99h-2l-62 -99h-45l90 137h35zM553 678l-121 -137h-36l88 137h69z" />
    <glyph glyph-name="Ecircumflexgrave" unicode="&#x1ec0;" horiz-adv-x="456" 
d="M391 335h-264v-295h295v-40h-342v674h327v-40h-280v-259h264v-40zM267 861l93 -137h-48l-61 99h-2l-62 -99h-45l90 137h35zM4 861l88 -137h-36l-121 137h69z" />
    <glyph glyph-name="ecircumflexgrave" unicode="&#x1ec1;" horiz-adv-x="474" 
d="M87 246q0 -59 14.5 -99.5t39 -66.5t57 -37.5t68.5 -11.5q48 0 78.5 9t50.5 18l12 -37q-14 -8 -50.5 -19.5t-96.5 -11.5q-51 0 -91.5 18t-69 50t-43.5 76.5t-15 97.5q0 60 16 107.5t44 81.5t66.5 52t83.5 18q58 0 93.5 -24t55.5 -57.5t27 -70.5t7 -64v-16t-1 -14zM385 284
q0 26 -6 55.5t-22 54.5t-43 41.5t-69 16.5q-38 0 -66 -16t-47 -40.5t-29 -54t-13 -57.5h295zM253 678l93 -137h-48l-61 99h-2l-62 -99h-45l90 137h35zM-10 678l88 -137h-36l-121 137h69z" />
    <glyph glyph-name="Ecircumflexhookabove" unicode="&#x1ec2;" horiz-adv-x="456" 
d="M391 335h-264v-295h295v-40h-342v674h327v-40h-280v-259h264v-40zM267 861l93 -137h-48l-61 99h-2l-62 -99h-45l90 137h35zM360 704q20 5 40 13t36.5 19t28.5 24.5t16 29.5q7 24 -4 39t-27 19q-11 3 -24 4.5t-26 -1.5v32q32 8 70 -3q33 -9 49 -34t7 -59q-5 -18 -20 -34.5
t-34 -29t-38.5 -20.5t-34.5 -9z" />
    <glyph glyph-name="ecircumflexhookabove" unicode="&#x1ec3;" horiz-adv-x="474" 
d="M87 246q0 -59 14.5 -99.5t39 -66.5t57 -37.5t68.5 -11.5q48 0 78.5 9t50.5 18l12 -37q-14 -8 -50.5 -19.5t-96.5 -11.5q-51 0 -91.5 18t-69 50t-43.5 76.5t-15 97.5q0 60 16 107.5t44 81.5t66.5 52t83.5 18q58 0 93.5 -24t55.5 -57.5t27 -70.5t7 -64v-16t-1 -14zM385 284
q0 26 -6 55.5t-22 54.5t-43 41.5t-69 16.5q-38 0 -66 -16t-47 -40.5t-29 -54t-13 -57.5h295zM253 678l93 -137h-48l-61 99h-2l-62 -99h-45l90 137h35zM346 521q20 5 40 13t36.5 19t28.5 24.5t16 29.5q7 24 -4 39t-27 19q-11 3 -24 4.5t-26 -1.5v32q32 8 70 -3q33 -9 49 -34
t7 -59q-5 -18 -20 -34.5t-34 -29t-38.5 -20.5t-34.5 -9z" />
    <glyph glyph-name="Ecircumflextilde" unicode="&#x1ec4;" horiz-adv-x="456" 
d="M391 335h-264v-295h295v-40h-342v674h327v-40h-280v-259h264v-40zM267 861l93 -137h-48l-61 99h-2l-62 -99h-45l90 137h35zM141 911q-1 33 14 58t44 25q16 0 29 -6t32 -16q12 -6 22.5 -11t24.5 -5q11 0 17.5 8.5t8.5 32.5h30q0 -35 -14 -57.5t-46 -22.5q-14 0 -27.5 6
t-28.5 15q-15 8 -25.5 13t-21.5 5q-13 0 -19 -12.5t-8 -32.5h-32z" />
    <glyph glyph-name="ecircumflextilde" unicode="&#x1ec5;" horiz-adv-x="474" 
d="M87 246q0 -59 14.5 -99.5t39 -66.5t57 -37.5t68.5 -11.5q48 0 78.5 9t50.5 18l12 -37q-14 -8 -50.5 -19.5t-96.5 -11.5q-51 0 -91.5 18t-69 50t-43.5 76.5t-15 97.5q0 60 16 107.5t44 81.5t66.5 52t83.5 18q58 0 93.5 -24t55.5 -57.5t27 -70.5t7 -64v-16t-1 -14zM385 284
q0 26 -6 55.5t-22 54.5t-43 41.5t-69 16.5q-38 0 -66 -16t-47 -40.5t-29 -54t-13 -57.5h295zM253 678l93 -137h-48l-61 99h-2l-62 -99h-45l90 137h35zM127 728q-1 33 14 58t44 25q16 0 29 -6t32 -16q12 -6 22.5 -11t24.5 -5q11 0 17.5 8.5t8.5 32.5h30q0 -35 -14 -57.5
t-46 -22.5q-14 0 -27.5 6t-28.5 15q-15 8 -25.5 13t-21.5 5q-13 0 -19 -12.5t-8 -32.5h-32z" />
    <glyph glyph-name="Ecircumflexdotbelow" unicode="&#x1ec6;" horiz-adv-x="456" 
d="M391 335h-264v-295h295v-40h-342v674h327v-40h-280v-259h264v-40zM267 861l93 -137h-48l-61 99h-2l-62 -99h-45l90 137h35zM212 -90q0 17 11 28.5t28 11.5t28.5 -11.5t11.5 -28.5t-11.5 -28t-28.5 -11t-28 11t-11 28z" />
    <glyph glyph-name="ecircumflexdotbelow" unicode="&#x1ec7;" horiz-adv-x="474" 
d="M87 246q0 -59 14.5 -99.5t39 -66.5t57 -37.5t68.5 -11.5q48 0 78.5 9t50.5 18l12 -37q-14 -8 -50.5 -19.5t-96.5 -11.5q-51 0 -91.5 18t-69 50t-43.5 76.5t-15 97.5q0 60 16 107.5t44 81.5t66.5 52t83.5 18q58 0 93.5 -24t55.5 -57.5t27 -70.5t7 -64v-16t-1 -14zM385 284
q0 26 -6 55.5t-22 54.5t-43 41.5t-69 16.5q-38 0 -66 -16t-47 -40.5t-29 -54t-13 -57.5h295zM253 678l93 -137h-48l-61 99h-2l-62 -99h-45l90 137h35zM198 -100q0 17 11 28.5t28 11.5t28.5 -11.5t11.5 -28.5t-11.5 -28t-28.5 -11t-28 11t-11 28z" />
    <glyph glyph-name="Ihookabove" unicode="&#x1ec8;" horiz-adv-x="208" 
d="M127 674v-674h-47v674h47zM15 734q20 5 40 13t36.5 19t28.5 24.5t16 29.5q7 24 -4 39t-27 19q-11 3 -24 4.5t-26 -1.5v32q32 8 70 -3q33 -9 49 -34t7 -59q-5 -18 -20 -34.5t-34 -29t-38.5 -20.5t-34.5 -9z" />
    <glyph glyph-name="ihookabove" unicode="&#x1ec9;" horiz-adv-x="206" 
d="M79 0v480h47v-480h-47zM14 540q20 5 40 13t36.5 19t28.5 24.5t16 29.5q7 24 -4 39t-27 19q-11 3 -24 4.5t-26 -1.5v32q32 8 70 -3q33 -9 49 -34t7 -59q-5 -18 -20 -34.5t-34 -29t-38.5 -20.5t-34.5 -9z" />
    <glyph glyph-name="Idotbelow" unicode="&#x1eca;" horiz-adv-x="208" 
d="M127 674v-674h-47v674h47zM64 -90q0 17 11 28.5t28 11.5t28.5 -11.5t11.5 -28.5t-11.5 -28t-28.5 -11t-28 11t-11 28z" />
    <glyph glyph-name="idotbelow" unicode="&#x1ecb;" horiz-adv-x="206" 
d="M62 626q0 17 11.5 29t28.5 12t29 -12t12 -29t-12 -28.5t-29 -11.5t-28.5 11.5t-11.5 28.5zM79 0v480h47v-480h-47zM63 -90q0 17 11 28.5t28 11.5t28.5 -11.5t11.5 -28.5t-11.5 -28t-28.5 -11t-28 11t-11 28z" />
    <glyph glyph-name="Odotbelow" unicode="&#x1ecc;" horiz-adv-x="654" 
d="M324 -11q-60 0 -112.5 23.5t-91.5 67.5t-61 107.5t-22 143.5q0 83 23 149t63 111.5t93.5 69.5t115.5 24q61 0 113.5 -23.5t90.5 -68t59.5 -108t21.5 -142.5q0 -89 -24.5 -155.5t-65.5 -110.5t-93.5 -66t-109.5 -22zM325 29q59 0 104 25.5t76 68.5t46.5 99t15.5 118
q0 53 -14.5 107.5t-44 98.5t-75 71.5t-106.5 27.5q-62 0 -107.5 -27t-75 -71t-44 -100.5t-14.5 -114.5q0 -56 15.5 -110.5t46 -97.5t75 -69t102.5 -26zM288 -101q0 17 11 28.5t28 11.5t28.5 -11.5t11.5 -28.5t-11.5 -28t-28.5 -11t-28 11t-11 28z" />
    <glyph glyph-name="odotbelow" unicode="&#x1ecd;" horiz-adv-x="520" 
d="M262 491q48 0 88 -17.5t68.5 -50t44.5 -78t16 -101.5q0 -68 -20 -116t-52.5 -79t-72 -45.5t-78.5 -14.5q-45 0 -84.5 17t-68.5 49.5t-45.5 78t-16.5 102.5q0 62 18 109.5t49 80t70.5 49t83.5 16.5zM261 451q-45 0 -77.5 -19t-54 -49t-31.5 -68t-10 -76q0 -45 12.5 -83.5
t35 -66.5t53.5 -44t69 -16q37 0 69 16t55 44t36 67t13 86q0 33 -9.5 69.5t-29.5 67.5t-52.5 51.5t-78.5 20.5zM221 -101q0 17 11 28.5t28 11.5t28.5 -11.5t11.5 -28.5t-11.5 -28t-28.5 -11t-28 11t-11 28z" />
    <glyph glyph-name="Ohookabove" unicode="&#x1ece;" horiz-adv-x="654" 
d="M324 -11q-60 0 -112.5 23.5t-91.5 67.5t-61 107.5t-22 143.5q0 83 23 149t63 111.5t93.5 69.5t115.5 24q61 0 113.5 -23.5t90.5 -68t59.5 -108t21.5 -142.5q0 -89 -24.5 -155.5t-65.5 -110.5t-93.5 -66t-109.5 -22zM325 29q59 0 104 25.5t76 68.5t46.5 99t15.5 118
q0 53 -14.5 107.5t-44 98.5t-75 71.5t-106.5 27.5q-62 0 -107.5 -27t-75 -71t-44 -100.5t-14.5 -114.5q0 -56 15.5 -110.5t46 -97.5t75 -69t102.5 -26zM239 745q20 5 40 13t36.5 19t28.5 24.5t16 29.5q7 24 -4 39t-27 19q-11 3 -24 4.5t-26 -1.5v32q32 8 70 -3q33 -9 49 -34
t7 -59q-5 -18 -20 -34.5t-34 -29t-38.5 -20.5t-34.5 -9z" />
    <glyph glyph-name="ohookabove" unicode="&#x1ecf;" horiz-adv-x="520" 
d="M262 491q48 0 88 -17.5t68.5 -50t44.5 -78t16 -101.5q0 -68 -20 -116t-52.5 -79t-72 -45.5t-78.5 -14.5q-45 0 -84.5 17t-68.5 49.5t-45.5 78t-16.5 102.5q0 62 18 109.5t49 80t70.5 49t83.5 16.5zM261 451q-45 0 -77.5 -19t-54 -49t-31.5 -68t-10 -76q0 -45 12.5 -83.5
t35 -66.5t53.5 -44t69 -16q37 0 69 16t55 44t36 67t13 86q0 33 -9.5 69.5t-29.5 67.5t-52.5 51.5t-78.5 20.5zM172 551q20 5 40 13t36.5 19t28.5 24.5t16 29.5q7 24 -4 39t-27 19q-11 3 -24 4.5t-26 -1.5v32q32 8 70 -3q33 -9 49 -34t7 -59q-5 -18 -20 -34.5t-34 -29
t-38.5 -20.5t-34.5 -9z" />
    <glyph glyph-name="Ocircumflexacute" unicode="&#x1ed0;" horiz-adv-x="654" 
d="M324 -11q-60 0 -112.5 23.5t-91.5 67.5t-61 107.5t-22 143.5q0 83 23 149t63 111.5t93.5 69.5t115.5 24q61 0 113.5 -23.5t90.5 -68t59.5 -108t21.5 -142.5q0 -89 -24.5 -155.5t-65.5 -110.5t-93.5 -66t-109.5 -22zM325 29q59 0 104 25.5t76 68.5t46.5 99t15.5 118
q0 53 -14.5 107.5t-44 98.5t-75 71.5t-106.5 27.5q-62 0 -107.5 -27t-75 -71t-44 -100.5t-14.5 -114.5q0 -56 15.5 -110.5t46 -97.5t75 -69t102.5 -26zM343 872l93 -137h-48l-61 99h-2l-62 -99h-45l90 137h35zM643 872l-121 -137h-36l88 137h69z" />
    <glyph glyph-name="ocircumflexacute" unicode="&#x1ed1;" horiz-adv-x="520" 
d="M262 491q48 0 88 -17.5t68.5 -50t44.5 -78t16 -101.5q0 -68 -20 -116t-52.5 -79t-72 -45.5t-78.5 -14.5q-45 0 -84.5 17t-68.5 49.5t-45.5 78t-16.5 102.5q0 62 18 109.5t49 80t70.5 49t83.5 16.5zM261 451q-45 0 -77.5 -19t-54 -49t-31.5 -68t-10 -76q0 -45 12.5 -83.5
t35 -66.5t53.5 -44t69 -16q37 0 69 16t55 44t36 67t13 86q0 33 -9.5 69.5t-29.5 67.5t-52.5 51.5t-78.5 20.5zM276 678l93 -137h-48l-61 99h-2l-62 -99h-45l90 137h35zM576 678l-121 -137h-36l88 137h69z" />
    <glyph glyph-name="Ocircumflexgrave" unicode="&#x1ed2;" horiz-adv-x="654" 
d="M324 -11q-60 0 -112.5 23.5t-91.5 67.5t-61 107.5t-22 143.5q0 83 23 149t63 111.5t93.5 69.5t115.5 24q61 0 113.5 -23.5t90.5 -68t59.5 -108t21.5 -142.5q0 -89 -24.5 -155.5t-65.5 -110.5t-93.5 -66t-109.5 -22zM325 29q59 0 104 25.5t76 68.5t46.5 99t15.5 118
q0 53 -14.5 107.5t-44 98.5t-75 71.5t-106.5 27.5q-62 0 -107.5 -27t-75 -71t-44 -100.5t-14.5 -114.5q0 -56 15.5 -110.5t46 -97.5t75 -69t102.5 -26zM343 872l93 -137h-48l-61 99h-2l-62 -99h-45l90 137h35zM80 872l88 -137h-36l-121 137h69z" />
    <glyph glyph-name="ocircumflexgrave" unicode="&#x1ed3;" horiz-adv-x="520" 
d="M262 491q48 0 88 -17.5t68.5 -50t44.5 -78t16 -101.5q0 -68 -20 -116t-52.5 -79t-72 -45.5t-78.5 -14.5q-45 0 -84.5 17t-68.5 49.5t-45.5 78t-16.5 102.5q0 62 18 109.5t49 80t70.5 49t83.5 16.5zM261 451q-45 0 -77.5 -19t-54 -49t-31.5 -68t-10 -76q0 -45 12.5 -83.5
t35 -66.5t53.5 -44t69 -16q37 0 69 16t55 44t36 67t13 86q0 33 -9.5 69.5t-29.5 67.5t-52.5 51.5t-78.5 20.5zM276 678l93 -137h-48l-61 99h-2l-62 -99h-45l90 137h35zM13 678l88 -137h-36l-121 137h69z" />
    <glyph glyph-name="Ocircumflexhookabove" unicode="&#x1ed4;" horiz-adv-x="654" 
d="M324 -11q-60 0 -112.5 23.5t-91.5 67.5t-61 107.5t-22 143.5q0 83 23 149t63 111.5t93.5 69.5t115.5 24q61 0 113.5 -23.5t90.5 -68t59.5 -108t21.5 -142.5q0 -89 -24.5 -155.5t-65.5 -110.5t-93.5 -66t-109.5 -22zM325 29q59 0 104 25.5t76 68.5t46.5 99t15.5 118
q0 53 -14.5 107.5t-44 98.5t-75 71.5t-106.5 27.5q-62 0 -107.5 -27t-75 -71t-44 -100.5t-14.5 -114.5q0 -56 15.5 -110.5t46 -97.5t75 -69t102.5 -26zM343 872l93 -137h-48l-61 99h-2l-62 -99h-45l90 137h35zM436 715q20 5 40 13t36.5 19t28.5 24.5t16 29.5q7 24 -4 39
t-27 19q-11 3 -24 4.5t-26 -1.5v32q32 8 70 -3q33 -9 49 -34t7 -59q-5 -18 -20 -34.5t-34 -29t-38.5 -20.5t-34.5 -9z" />
    <glyph glyph-name="ocircumflexhookabove" unicode="&#x1ed5;" horiz-adv-x="520" 
d="M262 491q48 0 88 -17.5t68.5 -50t44.5 -78t16 -101.5q0 -68 -20 -116t-52.5 -79t-72 -45.5t-78.5 -14.5q-45 0 -84.5 17t-68.5 49.5t-45.5 78t-16.5 102.5q0 62 18 109.5t49 80t70.5 49t83.5 16.5zM261 451q-45 0 -77.5 -19t-54 -49t-31.5 -68t-10 -76q0 -45 12.5 -83.5
t35 -66.5t53.5 -44t69 -16q37 0 69 16t55 44t36 67t13 86q0 33 -9.5 69.5t-29.5 67.5t-52.5 51.5t-78.5 20.5zM276 678l93 -137h-48l-61 99h-2l-62 -99h-45l90 137h35zM369 521q20 5 40 13t36.5 19t28.5 24.5t16 29.5q7 24 -4 39t-27 19q-11 3 -24 4.5t-26 -1.5v32
q32 8 70 -3q33 -9 49 -34t7 -59q-5 -18 -20 -34.5t-34 -29t-38.5 -20.5t-34.5 -9z" />
    <glyph glyph-name="Ocircumflextilde" unicode="&#x1ed6;" horiz-adv-x="654" 
d="M324 -11q-60 0 -112.5 23.5t-91.5 67.5t-61 107.5t-22 143.5q0 83 23 149t63 111.5t93.5 69.5t115.5 24q61 0 113.5 -23.5t90.5 -68t59.5 -108t21.5 -142.5q0 -89 -24.5 -155.5t-65.5 -110.5t-93.5 -66t-109.5 -22zM325 29q59 0 104 25.5t76 68.5t46.5 99t15.5 118
q0 53 -14.5 107.5t-44 98.5t-75 71.5t-106.5 27.5q-62 0 -107.5 -27t-75 -71t-44 -100.5t-14.5 -114.5q0 -56 15.5 -110.5t46 -97.5t75 -69t102.5 -26zM343 872l93 -137h-48l-61 99h-2l-62 -99h-45l90 137h35zM217 922q-1 33 14 58t44 25q16 0 29 -6t32 -16q12 -6 22.5 -11
t24.5 -5q11 0 17.5 8.5t8.5 32.5h30q0 -35 -14 -57.5t-46 -22.5q-14 0 -27.5 6t-28.5 15q-15 8 -25.5 13t-21.5 5q-13 0 -19 -12.5t-8 -32.5h-32z" />
    <glyph glyph-name="ocircumflextilde" unicode="&#x1ed7;" horiz-adv-x="520" 
d="M262 491q48 0 88 -17.5t68.5 -50t44.5 -78t16 -101.5q0 -68 -20 -116t-52.5 -79t-72 -45.5t-78.5 -14.5q-45 0 -84.5 17t-68.5 49.5t-45.5 78t-16.5 102.5q0 62 18 109.5t49 80t70.5 49t83.5 16.5zM261 451q-45 0 -77.5 -19t-54 -49t-31.5 -68t-10 -76q0 -45 12.5 -83.5
t35 -66.5t53.5 -44t69 -16q37 0 69 16t55 44t36 67t13 86q0 33 -9.5 69.5t-29.5 67.5t-52.5 51.5t-78.5 20.5zM276 678l93 -137h-48l-61 99h-2l-62 -99h-45l90 137h35zM150 728q-1 33 14 58t44 25q16 0 29 -6t32 -16q12 -6 22.5 -11t24.5 -5q11 0 17.5 8.5t8.5 32.5h30
q0 -35 -14 -57.5t-46 -22.5q-14 0 -27.5 6t-28.5 15q-15 8 -25.5 13t-21.5 5q-13 0 -19 -12.5t-8 -32.5h-32z" />
    <glyph glyph-name="Ocircumflexdotbelow" unicode="&#x1ed8;" horiz-adv-x="654" 
d="M324 -11q-60 0 -112.5 23.5t-91.5 67.5t-61 107.5t-22 143.5q0 83 23 149t63 111.5t93.5 69.5t115.5 24q61 0 113.5 -23.5t90.5 -68t59.5 -108t21.5 -142.5q0 -89 -24.5 -155.5t-65.5 -110.5t-93.5 -66t-109.5 -22zM325 29q59 0 104 25.5t76 68.5t46.5 99t15.5 118
q0 53 -14.5 107.5t-44 98.5t-75 71.5t-106.5 27.5q-62 0 -107.5 -27t-75 -71t-44 -100.5t-14.5 -114.5q0 -56 15.5 -110.5t46 -97.5t75 -69t102.5 -26zM343 872l93 -137h-48l-61 99h-2l-62 -99h-45l90 137h35zM288 -101q0 17 11 28.5t28 11.5t28.5 -11.5t11.5 -28.5
t-11.5 -28t-28.5 -11t-28 11t-11 28z" />
    <glyph glyph-name="ocircumflexdotbelow" unicode="&#x1ed9;" horiz-adv-x="520" 
d="M262 491q48 0 88 -17.5t68.5 -50t44.5 -78t16 -101.5q0 -68 -20 -116t-52.5 -79t-72 -45.5t-78.5 -14.5q-45 0 -84.5 17t-68.5 49.5t-45.5 78t-16.5 102.5q0 62 18 109.5t49 80t70.5 49t83.5 16.5zM261 451q-45 0 -77.5 -19t-54 -49t-31.5 -68t-10 -76q0 -45 12.5 -83.5
t35 -66.5t53.5 -44t69 -16q37 0 69 16t55 44t36 67t13 86q0 33 -9.5 69.5t-29.5 67.5t-52.5 51.5t-78.5 20.5zM276 678l93 -137h-48l-61 99h-2l-62 -99h-45l90 137h35zM221 -101q0 17 11 28.5t28 11.5t28.5 -11.5t11.5 -28.5t-11.5 -28t-28.5 -11t-28 11t-11 28z" />
    <glyph glyph-name="Ohornacute" unicode="&#x1eda;" horiz-adv-x="769" 
d="M471 822l-131 -112h-40l98 112h73zM324 -11q-60 0 -112.5 23.5t-91.5 67.5t-61 107.5t-22 143.5q0 83 23 149t63 111.5t93.5 69.5t115.5 24q61 0 113.5 -23.5t90.5 -68.5q10 -11 18.5 -23.5t16.5 -26.5l1 -1q18 -26 42.5 -43t48.5 -17q25 -1 36.5 13.5t11.5 31.5
q0 11 -2 24t-8 25l31 8q15 -29 15 -68q0 -34 -20 -56t-55 -22q-20 0 -39 10q-18 8 -32 21q16 -55 16 -126q0 -89 -24.5 -155.5t-65.5 -110.5t-93.5 -66t-109.5 -22zM325 29q59 0 104 25.5t76 68.5t46.5 99t15.5 118q0 53 -14.5 107.5t-44 98.5t-75 71.5t-106.5 27.5
q-62 0 -107.5 -27t-75 -71t-44 -100.5t-14.5 -114.5q0 -56 15.5 -110.5t46 -97.5t75 -69t102.5 -26z" />
    <glyph glyph-name="ohornacute" unicode="&#x1edb;" horiz-adv-x="607" 
d="M262 491q97 0 157 -68q19 -22 32 -48l18 -19q15 -13 31.5 -21t32.5 -8q25 -1 36.5 13.5t11.5 31.5q0 11 -2 24t-8 25l31 8q15 -29 15 -68q0 -34 -20 -56t-55 -22q-20 0 -39 10q-8 4 -15.5 9t-14.5 10q6 -32 6 -68q0 -68 -20 -116t-52.5 -79t-72 -45.5t-78.5 -14.5
q-45 0 -84.5 17t-68.5 49.5t-45.5 78t-16.5 102.5q0 62 18 109.5t49 80t70.5 49t83.5 16.5zM261 451q-45 0 -77.5 -19t-54 -49t-31.5 -68t-10 -76q0 -45 12.5 -83.5t35 -66.5t53.5 -44t69 -16q37 0 69 16t55 44t36 67t13 86q0 33 -9.5 69.5t-29.5 67.5t-52.5 51.5
t-78.5 20.5zM376 677l-121 -137h-36l88 137h69z" />
    <glyph glyph-name="Ohorngrave" unicode="&#x1edc;" horiz-adv-x="769" 
d="M324 -11q-60 0 -112.5 23.5t-91.5 67.5t-61 107.5t-22 143.5q0 83 23 149t63 111.5t93.5 69.5t115.5 24q61 0 113.5 -23.5t90.5 -68.5q10 -11 18.5 -23.5t16.5 -26.5l1 -1q18 -26 42.5 -43t48.5 -17q25 -1 36.5 13.5t11.5 31.5q0 11 -2 24t-8 25l31 8q15 -29 15 -68
q0 -34 -20 -56t-55 -22q-20 0 -39 10q-18 8 -32 21q16 -55 16 -126q0 -89 -24.5 -155.5t-65.5 -110.5t-93.5 -66t-109.5 -22zM325 29q59 0 104 25.5t76 68.5t46.5 99t15.5 118q0 53 -14.5 107.5t-44 98.5t-75 71.5t-106.5 27.5q-62 0 -107.5 -27t-75 -71t-44 -100.5
t-14.5 -114.5q0 -56 15.5 -110.5t46 -97.5t75 -69t102.5 -26zM264 822l98 -112h-40l-130 112h72z" />
    <glyph glyph-name="ohorngrave" unicode="&#x1edd;" horiz-adv-x="607" 
d="M262 491q97 0 157 -68q19 -22 32 -48l18 -19q15 -13 31.5 -21t32.5 -8q25 -1 36.5 13.5t11.5 31.5q0 11 -2 24t-8 25l31 8q15 -29 15 -68q0 -34 -20 -56t-55 -22q-20 0 -39 10q-8 4 -15.5 9t-14.5 10q6 -32 6 -68q0 -68 -20 -116t-52.5 -79t-72 -45.5t-78.5 -14.5
q-45 0 -84.5 17t-68.5 49.5t-45.5 78t-16.5 102.5q0 62 18 109.5t49 80t70.5 49t83.5 16.5zM261 451q-45 0 -77.5 -19t-54 -49t-31.5 -68t-10 -76q0 -45 12.5 -83.5t35 -66.5t53.5 -44t69 -16q37 0 69 16t55 44t36 67t13 86q0 33 -9.5 69.5t-29.5 67.5t-52.5 51.5
t-78.5 20.5zM213 677l88 -137h-36l-121 137h69z" />
    <glyph glyph-name="Ohornhookabove" unicode="&#x1ede;" horiz-adv-x="769" 
d="M324 -11q-60 0 -112.5 23.5t-91.5 67.5t-61 107.5t-22 143.5q0 83 23 149t63 111.5t93.5 69.5t115.5 24q61 0 113.5 -23.5t90.5 -68.5q10 -11 18.5 -23.5t16.5 -26.5l1 -1q18 -26 42.5 -43t48.5 -17q25 -1 36.5 13.5t11.5 31.5q0 11 -2 24t-8 25l31 8q15 -29 15 -68
q0 -34 -20 -56t-55 -22q-20 0 -39 10q-18 8 -32 21q16 -55 16 -126q0 -89 -24.5 -155.5t-65.5 -110.5t-93.5 -66t-109.5 -22zM325 29q59 0 104 25.5t76 68.5t46.5 99t15.5 118q0 53 -14.5 107.5t-44 98.5t-75 71.5t-106.5 27.5q-62 0 -107.5 -27t-75 -71t-44 -100.5
t-14.5 -114.5q0 -56 15.5 -110.5t46 -97.5t75 -69t102.5 -26zM239 745q20 5 40 13t36.5 19t28.5 24.5t16 29.5q7 24 -4 39t-27 19q-11 3 -24 4.5t-26 -1.5v32q32 8 70 -3q33 -9 49 -34t7 -59q-5 -18 -20 -34.5t-34 -29t-38.5 -20.5t-34.5 -9z" />
    <glyph glyph-name="ohornhookabove" unicode="&#x1edf;" horiz-adv-x="607" 
d="M262 491q97 0 157 -68q19 -22 32 -48l18 -19q15 -13 31.5 -21t32.5 -8q25 -1 36.5 13.5t11.5 31.5q0 11 -2 24t-8 25l31 8q15 -29 15 -68q0 -34 -20 -56t-55 -22q-20 0 -39 10q-8 4 -15.5 9t-14.5 10q6 -32 6 -68q0 -68 -20 -116t-52.5 -79t-72 -45.5t-78.5 -14.5
q-45 0 -84.5 17t-68.5 49.5t-45.5 78t-16.5 102.5q0 62 18 109.5t49 80t70.5 49t83.5 16.5zM261 451q-45 0 -77.5 -19t-54 -49t-31.5 -68t-10 -76q0 -45 12.5 -83.5t35 -66.5t53.5 -44t69 -16q37 0 69 16t55 44t36 67t13 86q0 33 -9.5 69.5t-29.5 67.5t-52.5 51.5
t-78.5 20.5zM172 551q20 5 40 13t36.5 19t28.5 24.5t16 29.5q7 24 -4 39t-27 19q-11 3 -24 4.5t-26 -1.5v32q32 8 70 -3q33 -9 49 -34t7 -59q-5 -18 -20 -34.5t-34 -29t-38.5 -20.5t-34.5 -9z" />
    <glyph glyph-name="Ohorntilde" unicode="&#x1ee0;" horiz-adv-x="769" 
d="M324 -11q-60 0 -112.5 23.5t-91.5 67.5t-61 107.5t-22 143.5q0 83 23 149t63 111.5t93.5 69.5t115.5 24q61 0 113.5 -23.5t90.5 -68.5q10 -11 18.5 -23.5t16.5 -26.5l1 -1q18 -26 42.5 -43t48.5 -17q25 -1 36.5 13.5t11.5 31.5q0 11 -2 24t-8 25l31 8q15 -29 15 -68
q0 -34 -20 -56t-55 -22q-20 0 -39 10q-18 8 -32 21q16 -55 16 -126q0 -89 -24.5 -155.5t-65.5 -110.5t-93.5 -66t-109.5 -22zM325 29q59 0 104 25.5t76 68.5t46.5 99t15.5 118q0 53 -14.5 107.5t-44 98.5t-75 71.5t-106.5 27.5q-62 0 -107.5 -27t-75 -71t-44 -100.5
t-14.5 -114.5q0 -56 15.5 -110.5t46 -97.5t75 -69t102.5 -26zM214 716q-1 32 15 57t44 25q14 0 28 -6t31 -15q12 -7 24 -12t25 -5t20 7t9 33h31q0 -34 -14 -56.5t-46 -22.5q-14 0 -27.5 5t-30.5 15q-14 8 -26 13.5t-25 5.5q-14 0 -20 -12.5t-8 -31.5h-30z" />
    <glyph glyph-name="ohorntilde" unicode="&#x1ee1;" horiz-adv-x="607" 
d="M262 491q97 0 157 -68q19 -22 32 -48l18 -19q15 -13 31.5 -21t32.5 -8q25 -1 36.5 13.5t11.5 31.5q0 11 -2 24t-8 25l31 8q15 -29 15 -68q0 -34 -20 -56t-55 -22q-20 0 -39 10q-8 4 -15.5 9t-14.5 10q6 -32 6 -68q0 -68 -20 -116t-52.5 -79t-72 -45.5t-78.5 -14.5
q-45 0 -84.5 17t-68.5 49.5t-45.5 78t-16.5 102.5q0 62 18 109.5t49 80t70.5 49t83.5 16.5zM261 451q-45 0 -77.5 -19t-54 -49t-31.5 -68t-10 -76q0 -45 12.5 -83.5t35 -66.5t53.5 -44t69 -16q37 0 69 16t55 44t36 67t13 86q0 33 -9.5 69.5t-29.5 67.5t-52.5 51.5
t-78.5 20.5zM149 563q-1 33 14 58t44 25q16 0 29 -6t32 -16q12 -6 22.5 -11t24.5 -5q11 0 17.5 8.5t8.5 32.5h30q0 -35 -14 -57.5t-46 -22.5q-14 0 -27.5 6t-28.5 15q-15 8 -25.5 13t-21.5 5q-13 0 -19 -12.5t-8 -32.5h-32z" />
    <glyph glyph-name="Ohorndotbelow" unicode="&#x1ee2;" horiz-adv-x="769" 
d="M324 -11q-60 0 -112.5 23.5t-91.5 67.5t-61 107.5t-22 143.5q0 83 23 149t63 111.5t93.5 69.5t115.5 24q61 0 113.5 -23.5t90.5 -68.5q10 -11 18.5 -23.5t16.5 -26.5l1 -1q18 -26 42.5 -43t48.5 -17q25 -1 36.5 13.5t11.5 31.5q0 11 -2 24t-8 25l31 8q15 -29 15 -68
q0 -34 -20 -56t-55 -22q-20 0 -39 10q-18 8 -32 21q16 -55 16 -126q0 -89 -24.5 -155.5t-65.5 -110.5t-93.5 -66t-109.5 -22zM325 29q59 0 104 25.5t76 68.5t46.5 99t15.5 118q0 53 -14.5 107.5t-44 98.5t-75 71.5t-106.5 27.5q-62 0 -107.5 -27t-75 -71t-44 -100.5
t-14.5 -114.5q0 -56 15.5 -110.5t46 -97.5t75 -69t102.5 -26zM288 -101q0 17 11 28.5t28 11.5t28.5 -11.5t11.5 -28.5t-11.5 -28t-28.5 -11t-28 11t-11 28z" />
    <glyph glyph-name="ohorndotbelow" unicode="&#x1ee3;" horiz-adv-x="607" 
d="M262 491q97 0 157 -68q19 -22 32 -48l18 -19q15 -13 31.5 -21t32.5 -8q25 -1 36.5 13.5t11.5 31.5q0 11 -2 24t-8 25l31 8q15 -29 15 -68q0 -34 -20 -56t-55 -22q-20 0 -39 10q-8 4 -15.5 9t-14.5 10q6 -32 6 -68q0 -68 -20 -116t-52.5 -79t-72 -45.5t-78.5 -14.5
q-45 0 -84.5 17t-68.5 49.5t-45.5 78t-16.5 102.5q0 62 18 109.5t49 80t70.5 49t83.5 16.5zM261 451q-45 0 -77.5 -19t-54 -49t-31.5 -68t-10 -76q0 -45 12.5 -83.5t35 -66.5t53.5 -44t69 -16q37 0 69 16t55 44t36 67t13 86q0 33 -9.5 69.5t-29.5 67.5t-52.5 51.5
t-78.5 20.5zM221 -101q0 17 11 28.5t28 11.5t28.5 -11.5t11.5 -28.5t-11.5 -28t-28.5 -11t-28 11t-11 28z" />
    <glyph glyph-name="Udotbelow" unicode="&#x1ee4;" horiz-adv-x="613" 
d="M127 674v-410q0 -63 13.5 -107.5t37.5 -72.5t56 -41t68 -13q40 0 74 13.5t58.5 42t38 72.5t13.5 106v410h47v-406q0 -77 -19 -130t-51 -86t-74.5 -48t-89.5 -15q-43 0 -82.5 13.5t-70 45.5t-48.5 83.5t-18 128.5v414h47zM267 -101q0 17 11 28.5t28 11.5t28.5 -11.5
t11.5 -28.5t-11.5 -28t-28.5 -11t-28 11t-11 28z" />
    <glyph glyph-name="udotbelow" unicode="&#x1ee5;" horiz-adv-x="519" 
d="M441 117q0 -32 1 -61t3 -56h-46v83h-4q-9 -16 -23 -33t-34 -30.5t-45.5 -22t-57.5 -8.5q-23 0 -51 8t-52 30.5t-40.5 63.5t-16.5 107v282h48v-272q0 -39 6.5 -71.5t21 -56t38 -37t58.5 -13.5q26 0 48 8.5t39.5 22.5t30 31t19.5 35q4 11 6.5 24.5t2.5 27.5v301h48v-363z
M221 -101q0 17 11 28.5t28 11.5t28.5 -11.5t11.5 -28.5t-11.5 -28t-28.5 -11t-28 11t-11 28z" />
    <glyph glyph-name="Uhookabove" unicode="&#x1ee6;" horiz-adv-x="613" 
d="M127 674v-410q0 -63 13.5 -107.5t37.5 -72.5t56 -41t68 -13q40 0 74 13.5t58.5 42t38 72.5t13.5 106v410h47v-406q0 -77 -19 -130t-51 -86t-74.5 -48t-89.5 -15q-43 0 -82.5 13.5t-70 45.5t-48.5 83.5t-18 128.5v414h47zM228 734q20 5 40 13t36.5 19t28.5 24.5t16 29.5
q7 24 -4 39t-27 19q-11 3 -24 4.5t-26 -1.5v32q32 8 70 -3q33 -9 49 -34t7 -59q-5 -18 -20 -34.5t-34 -29t-38.5 -20.5t-34.5 -9z" />
    <glyph glyph-name="uhookabove" unicode="&#x1ee7;" horiz-adv-x="519" 
d="M441 117q0 -32 1 -61t3 -56h-46v83h-4q-9 -16 -23 -33t-34 -30.5t-45.5 -22t-57.5 -8.5q-23 0 -51 8t-52 30.5t-40.5 63.5t-16.5 107v282h48v-272q0 -39 6.5 -71.5t21 -56t38 -37t58.5 -13.5q26 0 48 8.5t39.5 22.5t30 31t19.5 35q4 11 6.5 24.5t2.5 27.5v301h48v-363z
M192 540q20 5 40 13t36.5 19t28.5 24.5t16 29.5q7 24 -4 39t-27 19q-11 3 -24 4.5t-26 -1.5v32q32 8 70 -3q33 -9 49 -34t7 -59q-5 -18 -20 -34.5t-34 -29t-38.5 -20.5t-34.5 -9z" />
    <glyph glyph-name="Uhornacute" unicode="&#x1ee8;" horiz-adv-x="697" 
d="M444 822l-130 -112h-40l98 112h72zM127 674v-410q0 -63 13.5 -107.5t37.5 -72.5t56 -41t68 -13q40 0 74 13.5t58.5 42t38 72.5t13.5 106v410h47v-26l12 -16q18 -26 42.5 -43t48.5 -17q25 -1 36.5 13.5t11.5 31.5q0 11 -2 24t-8 25l31 8q15 -29 15 -68q0 -34 -20 -56
t-55 -22q-14 0 -29 6t-29 15.5t-26 21.5t-21 24q-3 3 -7 9v-336q0 -77 -19 -130t-51 -86t-74.5 -48t-89.5 -15q-43 0 -82.5 13.5t-70 45.5t-48.5 83.5t-18 128.5v414h47z" />
    <glyph glyph-name="uhornacute" unicode="&#x1ee9;" horiz-adv-x="623" 
d="M441 117q0 -32 1 -61t3 -56h-46v83h-4q-9 -16 -23 -33t-34 -30.5t-45.5 -22t-57.5 -8.5q-23 0 -51 8t-52 30.5t-40.5 63.5t-16.5 107v282h48v-272q0 -39 6.5 -71.5t21 -56t38 -37t58.5 -13.5q26 0 48 8.5t39.5 22.5t30 31t19.5 35q4 11 6.5 24.5t2.5 27.5v301h48v-14
l8 -12t9 -12q18 -26 42.5 -43t48.5 -17q25 -1 36.5 13.5t11.5 31.5q0 11 -2 24t-8 25l31 8q15 -29 15 -68q0 -34 -20 -56t-55 -22q-14 0 -29 6t-29 15.5t-26 21.5t-21 24q-6 8 -12 17v-305zM387 677l-121 -137h-36l88 137h69z" />
    <glyph glyph-name="Uhorngrave" unicode="&#x1eea;" horiz-adv-x="697" 
d="M255 822l97 -112h-40l-130 112h73zM127 674v-410q0 -63 13.5 -107.5t37.5 -72.5t56 -41t68 -13q40 0 74 13.5t58.5 42t38 72.5t13.5 106v410h47v-26l12 -16q18 -26 42.5 -43t48.5 -17q25 -1 36.5 13.5t11.5 31.5q0 11 -2 24t-8 25l31 8q15 -29 15 -68q0 -34 -20 -56
t-55 -22q-14 0 -29 6t-29 15.5t-26 21.5t-21 24q-3 3 -7 9v-336q0 -77 -19 -130t-51 -86t-74.5 -48t-89.5 -15q-43 0 -82.5 13.5t-70 45.5t-48.5 83.5t-18 128.5v414h47z" />
    <glyph glyph-name="uhorngrave" unicode="&#x1eeb;" horiz-adv-x="623" 
d="M441 117q0 -32 1 -61t3 -56h-46v83h-4q-9 -16 -23 -33t-34 -30.5t-45.5 -22t-57.5 -8.5q-23 0 -51 8t-52 30.5t-40.5 63.5t-16.5 107v282h48v-272q0 -39 6.5 -71.5t21 -56t38 -37t58.5 -13.5q26 0 48 8.5t39.5 22.5t30 31t19.5 35q4 11 6.5 24.5t2.5 27.5v301h48v-14
l8 -12t9 -12q18 -26 42.5 -43t48.5 -17q25 -1 36.5 13.5t11.5 31.5q0 11 -2 24t-8 25l31 8q15 -29 15 -68q0 -34 -20 -56t-55 -22q-14 0 -29 6t-29 15.5t-26 21.5t-21 24q-6 8 -12 17v-305zM220 677l88 -137h-36l-121 137h69z" />
    <glyph glyph-name="Uhornhookabove" unicode="&#x1eec;" horiz-adv-x="697" 
d="M127 674v-410q0 -63 13.5 -107.5t37.5 -72.5t56 -41t68 -13q40 0 74 13.5t58.5 42t38 72.5t13.5 106v410h47v-26l12 -16q18 -26 42.5 -43t48.5 -17q25 -1 36.5 13.5t11.5 31.5q0 11 -2 24t-8 25l31 8q15 -29 15 -68q0 -34 -20 -56t-55 -22q-14 0 -29 6t-29 15.5t-26 21.5
t-21 24q-3 3 -7 9v-336q0 -77 -19 -130t-51 -86t-74.5 -48t-89.5 -15q-43 0 -82.5 13.5t-70 45.5t-48.5 83.5t-18 128.5v414h47zM228 734q20 5 40 13t36.5 19t28.5 24.5t16 29.5q7 24 -4 39t-27 19q-11 3 -24 4.5t-26 -1.5v32q32 8 70 -3q33 -9 49 -34t7 -59
q-5 -18 -20 -34.5t-34 -29t-38.5 -20.5t-34.5 -9z" />
    <glyph glyph-name="uhornhookabove" unicode="&#x1eed;" horiz-adv-x="623" 
d="M441 117q0 -32 1 -61t3 -56h-46v83h-4q-9 -16 -23 -33t-34 -30.5t-45.5 -22t-57.5 -8.5q-23 0 -51 8t-52 30.5t-40.5 63.5t-16.5 107v282h48v-272q0 -39 6.5 -71.5t21 -56t38 -37t58.5 -13.5q26 0 48 8.5t39.5 22.5t30 31t19.5 35q4 11 6.5 24.5t2.5 27.5v301h48v-14
l8 -12t9 -12q18 -26 42.5 -43t48.5 -17q25 -1 36.5 13.5t11.5 31.5q0 11 -2 24t-8 25l31 8q15 -29 15 -68q0 -34 -20 -56t-55 -22q-14 0 -29 6t-29 15.5t-26 21.5t-21 24q-6 8 -12 17v-305zM192 540q20 5 40 13t36.5 19t28.5 24.5t16 29.5q7 24 -4 39t-27 19q-11 3 -24 4.5
t-26 -1.5v32q32 8 70 -3q33 -9 49 -34t7 -59q-5 -18 -20 -34.5t-34 -29t-38.5 -20.5t-34.5 -9z" />
    <glyph glyph-name="Uhorntilde" unicode="&#x1eee;" horiz-adv-x="697" 
d="M127 674v-410q0 -63 13.5 -107.5t37.5 -72.5t56 -41t68 -13q40 0 74 13.5t58.5 42t38 72.5t13.5 106v410h47v-26l12 -16q18 -26 42.5 -43t48.5 -17q25 -1 36.5 13.5t11.5 31.5q0 11 -2 24t-8 25l31 8q15 -29 15 -68q0 -34 -20 -56t-55 -22q-14 0 -29 6t-29 15.5t-26 21.5
t-21 24q-3 3 -7 9v-336q0 -77 -19 -130t-51 -86t-74.5 -48t-89.5 -15q-43 0 -82.5 13.5t-70 45.5t-48.5 83.5t-18 128.5v414h47zM195 724q-1 33 14 58t44 25q16 0 29 -6t32 -16q12 -6 22.5 -11t24.5 -5q11 0 17.5 8.5t8.5 32.5h30q0 -35 -14 -57.5t-46 -22.5q-14 0 -27.5 6
t-28.5 15q-15 8 -25.5 13t-21.5 5q-13 0 -19 -12.5t-8 -32.5h-32z" />
    <glyph glyph-name="uhorntilde" unicode="&#x1eef;" horiz-adv-x="623" 
d="M441 117q0 -32 1 -61t3 -56h-46v83h-4q-9 -16 -23 -33t-34 -30.5t-45.5 -22t-57.5 -8.5q-23 0 -51 8t-52 30.5t-40.5 63.5t-16.5 107v282h48v-272q0 -39 6.5 -71.5t21 -56t38 -37t58.5 -13.5q26 0 48 8.5t39.5 22.5t30 31t19.5 35q4 11 6.5 24.5t2.5 27.5v301h48v-14
l8 -12t9 -12q18 -26 42.5 -43t48.5 -17q25 -1 36.5 13.5t11.5 31.5q0 11 -2 24t-8 25l31 8q15 -29 15 -68q0 -34 -20 -56t-55 -22q-14 0 -29 6t-29 15.5t-26 21.5t-21 24q-6 8 -12 17v-305zM149 530q-1 33 14 58t44 25q16 0 29 -6t32 -16q12 -6 22.5 -11t24.5 -5
q11 0 17.5 8.5t8.5 32.5h30q0 -35 -14 -57.5t-46 -22.5q-14 0 -27.5 6t-28.5 15q-15 8 -25.5 13t-21.5 5q-13 0 -19 -12.5t-8 -32.5h-32z" />
    <glyph glyph-name="Uhorndotbelow" unicode="&#x1ef0;" horiz-adv-x="697" 
d="M127 674v-410q0 -63 13.5 -107.5t37.5 -72.5t56 -41t68 -13q40 0 74 13.5t58.5 42t38 72.5t13.5 106v410h47v-26l12 -16q18 -26 42.5 -43t48.5 -17q25 -1 36.5 13.5t11.5 31.5q0 11 -2 24t-8 25l31 8q15 -29 15 -68q0 -34 -20 -56t-55 -22q-14 0 -29 6t-29 15.5t-26 21.5
t-21 24q-3 3 -7 9v-336q0 -77 -19 -130t-51 -86t-74.5 -48t-89.5 -15q-43 0 -82.5 13.5t-70 45.5t-48.5 83.5t-18 128.5v414h47zM397 815q0 -38 -26.5 -64.5t-64.5 -26.5t-64.5 26.5t-26.5 64.5t26.5 64.5t64.5 26.5t64.5 -26.5t26.5 -64.5zM250 815q0 -24 16.5 -40.5
t39.5 -16.5q24 0 40.5 16.5t16.5 40.5q0 23 -16.5 40t-40.5 17q-23 0 -39.5 -17t-16.5 -40z" />
    <glyph glyph-name="uhorndotbelow" unicode="&#x1ef1;" horiz-adv-x="623" 
d="M441 117q0 -32 1 -61t3 -56h-46v83h-4q-9 -16 -23 -33t-34 -30.5t-45.5 -22t-57.5 -8.5q-23 0 -51 8t-52 30.5t-40.5 63.5t-16.5 107v282h48v-272q0 -39 6.5 -71.5t21 -56t38 -37t58.5 -13.5q26 0 48 8.5t39.5 22.5t30 31t19.5 35q4 11 6.5 24.5t2.5 27.5v301h48v-14
l8 -12t9 -12q18 -26 42.5 -43t48.5 -17q25 -1 36.5 13.5t11.5 31.5q0 11 -2 24t-8 25l31 8q15 -29 15 -68q0 -34 -20 -56t-55 -22q-14 0 -29 6t-29 15.5t-26 21.5t-21 24q-6 8 -12 17v-305zM221 -101q0 17 11 28.5t28 11.5t28.5 -11.5t11.5 -28.5t-11.5 -28t-28.5 -11
t-28 11t-11 28z" />
    <glyph glyph-name="Ygrave" unicode="&#x1ef2;" horiz-adv-x="495" 
d="M226 0v292l-210 382h53l108 -199q21 -40 39.5 -74.5t35.5 -71.5h2q15 35 34.5 70t42.5 77l112 198h53l-223 -383v-291h-47zM247 861l88 -137h-36l-121 137h69z" />
    <glyph glyph-name="ygrave" unicode="&#x1ef3;" horiz-adv-x="431" 
d="M62 480l122 -312q10 -26 19 -53.5t16 -50.5h2q7 22 16 49.5t20 56.5l114 310h50l-139 -352q-21 -56 -39.5 -101.5t-37.5 -82t-38.5 -64.5t-43.5 -49q-28 -25 -51.5 -36.5t-31.5 -14.5l-16 39q18 8 40 21t43 34q18 18 39.5 47.5t38.5 71.5q6 16 6 21q0 7 -6 21l-173 445
h50zM207 667l88 -137h-36l-121 137h69z" />
    <glyph glyph-name="Ydotbelow" unicode="&#x1ef4;" horiz-adv-x="495" 
d="M226 0v292l-210 382h53l108 -199q21 -40 39.5 -74.5t35.5 -71.5h2q15 35 34.5 70t42.5 77l112 198h53l-223 -383v-291h-47zM217 -90q0 17 11 28.5t28 11.5t28.5 -11.5t11.5 -28.5t-11.5 -28t-28.5 -11t-28 11t-11 28z" />
    <glyph glyph-name="ydotbelow" unicode="&#x1ef5;" horiz-adv-x="431" 
d="M62 480l122 -312q10 -26 19 -53.5t16 -50.5h2q7 22 16 49.5t20 56.5l114 310h50l-139 -352q-21 -56 -39.5 -101.5t-37.5 -82t-38.5 -64.5t-43.5 -49q-28 -25 -51.5 -36.5t-31.5 -14.5l-16 39q18 8 40 21t43 34q18 18 39.5 47.5t38.5 71.5q6 16 6 21q0 7 -6 21l-173 445
h50zM177 -310q0 17 11 28.5t28 11.5t28.5 -11.5t11.5 -28.5t-11.5 -28t-28.5 -11t-28 11t-11 28z" />
    <glyph glyph-name="Yhookabove" unicode="&#x1ef6;" horiz-adv-x="495" 
d="M226 0v292l-210 382h53l108 -199q21 -40 39.5 -74.5t35.5 -71.5h2q15 35 34.5 70t42.5 77l112 198h53l-223 -383v-291h-47zM168 734q20 5 40 13t36.5 19t28.5 24.5t16 29.5q7 24 -4 39t-27 19q-11 3 -24 4.5t-26 -1.5v32q32 8 70 -3q33 -9 49 -34t7 -59q-5 -18 -20 -34.5
t-34 -29t-38.5 -20.5t-34.5 -9z" />
    <glyph glyph-name="yhookabove" unicode="&#x1ef7;" horiz-adv-x="431" 
d="M62 480l122 -312q10 -26 19 -53.5t16 -50.5h2q7 22 16 49.5t20 56.5l114 310h50l-139 -352q-21 -56 -39.5 -101.5t-37.5 -82t-38.5 -64.5t-43.5 -49q-28 -25 -51.5 -36.5t-31.5 -14.5l-16 39q18 8 40 21t43 34q18 18 39.5 47.5t38.5 71.5q6 16 6 21q0 7 -6 21l-173 445
h50zM128 540q20 5 40 13t36.5 19t28.5 24.5t16 29.5q7 24 -4 39t-27 19q-11 3 -24 4.5t-26 -1.5v32q32 8 70 -3q33 -9 49 -34t7 -59q-5 -18 -20 -34.5t-34 -29t-38.5 -20.5t-34.5 -9z" />
    <glyph glyph-name="Ytilde" unicode="&#x1ef8;" horiz-adv-x="495" 
d="M226 0v292l-210 382h53l108 -199q21 -40 39.5 -74.5t35.5 -71.5h2q15 35 34.5 70t42.5 77l112 198h53l-223 -383v-291h-47zM146 724q-1 33 14 58t44 25q16 0 29 -6t32 -16q12 -6 22.5 -11t24.5 -5q11 0 17.5 8.5t8.5 32.5h30q0 -35 -14 -57.5t-46 -22.5q-14 0 -27.5 6
t-28.5 15q-15 8 -25.5 13t-21.5 5q-13 0 -19 -12.5t-8 -32.5h-32z" />
    <glyph glyph-name="ytilde" unicode="&#x1ef9;" horiz-adv-x="431" 
d="M62 480l122 -312q10 -26 19 -53.5t16 -50.5h2q7 22 16 49.5t20 56.5l114 310h50l-139 -352q-21 -56 -39.5 -101.5t-37.5 -82t-38.5 -64.5t-43.5 -49q-28 -25 -51.5 -36.5t-31.5 -14.5l-16 39q18 8 40 21t43 34q18 18 39.5 47.5t38.5 71.5q6 16 6 21q0 7 -6 21l-173 445
h50zM106 530q-1 33 14 58t44 25q16 0 29 -6t32 -16q12 -6 22.5 -11t24.5 -5q11 0 17.5 8.5t8.5 32.5h30q0 -35 -14 -57.5t-46 -22.5q-14 0 -27.5 6t-28.5 15q-15 8 -25.5 13t-21.5 5q-13 0 -19 -12.5t-8 -32.5h-32z" />
    <glyph glyph-name="dong" unicode="&#x20ab;" horiz-adv-x="532" 
d="M285 578v38h121v93h47v-93h74v-38h-74v-467q0 -26 1 -56t3 -55h-45v89h-3q-18 -39 -60 -69.5t-107 -30.5q-43 0 -79.5 17.5t-63.5 49.5t-42.5 76.5t-15.5 99.5q0 60 16.5 108t45 81.5t67 51.5t82.5 18q59 0 97.5 -25.5t54.5 -57.5h2v170h-121zM406 291q0 11 -1.5 21.5
t-3.5 21.5q-6 24 -19 45.5t-32 37t-43.5 25t-52.5 9.5q-38 0 -69 -16t-52.5 -45t-33 -68.5t-11.5 -85.5q0 -41 10 -78t30.5 -66t51 -46t72.5 -17q49 0 91 31.5t58 92.5q5 22 5 39v99zM104 -122v38h302v-38h-302z" />
    <glyph glyph-name="uni2215" unicode="&#x2215;" horiz-adv-x="411" 
d="M-6 -11l383 672h40l-383 -672h-40z" />
    <glyph glyph-name="uni2219" unicode="&#x2219;" horiz-adv-x="173" 
d="M86 230q-18 0 -29 13t-11 32t11.5 32t29.5 13t29 -13t11 -32q0 -20 -11.5 -32.5t-29.5 -12.5z" />
    <glyph glyph-name="dieresiscmb" unicode="&#x308;" 
d="M-300 601q0 16 11 27.5t27 11.5t27.5 -11.5t11.5 -27.5t-11.5 -27t-27.5 -11t-27 11t-11 27zM-132 601q0 16 11 27.5t27 11.5t27.5 -11.5t11.5 -27.5t-11.5 -27t-27.5 -11t-27 11t-11 27z" />
    <glyph glyph-name="caroncmb" unicode="&#x30c;" 
d="M-206 540l-94 137h47l63 -99h2l64 99h44l-91 -137h-35z" />
    <glyph glyph-name="circumflexcmb" unicode="&#x302;" 
d="M-175 677l93 -137h-48l-61 99h-2l-62 -99h-45l90 137h35z" />
    <glyph glyph-name="dotaccentcmb" unicode="&#x307;" 
d="M-300 600q0 17 11 28.5t28 11.5t28.5 -11.5t11.5 -28.5t-11.5 -28t-28.5 -11t-28 11t-11 28z" />
    <glyph glyph-name="ringcmb" unicode="&#x30a;" 
d="M-218 621q0 -38 -26.5 -64.5t-64.5 -26.5t-64.5 26.5t-26.5 64.5t26.5 64.5t64.5 26.5t64.5 -26.5t26.5 -64.5zM-365 621q0 -24 16.5 -40.5t39.5 -16.5q24 0 40.5 16.5t16.5 40.5q0 23 -16.5 40t-40.5 17q-23 0 -39.5 -17t-16.5 -40z" />
    <glyph glyph-name="cedillacmb" unicode="&#x327;" 
d="M-179 2l-36 -56q27 -4 47.5 -21.5t20.5 -45.5q0 -21 -7.5 -35.5t-20.5 -23.5t-29.5 -13.5t-35.5 -4.5q-14 0 -31 4.5t-29 11.5l12 34q22 -13 54 -13q18 0 32 7.5t14 27.5q-1 23 -23 32.5t-54 12.5l49 83h37z" />
    <glyph glyph-name="hungarumlautcmb" unicode="&#x30b;" 
d="M-147 677l-117 -129h-36l88 129h65zM-22 677l-117 -129h-35l88 129h64z" />
    <glyph glyph-name="ogonekcmb" unicode="&#x328;" 
d="M-161 0q-18 -10 -35 -22.5t-30.5 -27.5t-21.5 -31.5t-8 -32.5q-1 -25 13.5 -36.5t31.5 -11.5q11 0 24 2t25 8l8 -31q-29 -15 -68 -15q-34 0 -56 20t-22 55q0 19 10 39t25 37t32 29.5t31 17.5h41z" />
    <glyph glyph-name="macroncmb" unicode="&#x304;" 
d="M-96 629v-38h-230v38h230z" />
    <glyph glyph-name="clickdental" unicode="&#x1c0;" horiz-adv-x="210" 
d="M126 674v-674h-42v674h42z" />
    <glyph glyph-name="clicklateral" unicode="&#x1c1;" horiz-adv-x="420" 
d="M126 674v-674h-42v674h42zM336 674v-674h-42v674h42z" />
    <glyph glyph-name="centigrade" unicode="&#x2103;" horiz-adv-x="849" 
d="M153 686q28 0 50.5 -10t37.5 -27t23 -38.5t8 -45.5q0 -29 -10.5 -52t-28 -39.5t-39.5 -25t-45 -8.5q-27 0 -48.5 9.5t-37.5 26t-24.5 38t-8.5 45.5q0 27 9.5 50.5t26 40.5t38.5 26.5t48 9.5h1zM150 653q-21 0 -36 -8.5t-25 -22t-15 -30t-5 -32.5q0 -37 23.5 -62t58.5 -25
q36 0 59.5 26t23.5 64q0 14 -4.5 30t-14 29.5t-25.5 22t-39 8.5h-1zM818 23q-25 -13 -70.5 -23t-105.5 -10t-116 20t-99.5 61.5t-70 106.5t-26.5 155q0 77 23.5 141.5t67 111t105 72.5t138.5 26q63 0 99.5 -10t51.5 -18l-15 -41q-26 13 -60 21t-76 8q-65 0 -117.5 -21
t-89.5 -61.5t-57 -98.5t-20 -131q0 -70 19 -125.5t54.5 -94.5t87 -60t116.5 -21q42 0 80.5 8t66.5 22z" />
    <glyph glyph-name="fahrenheit" unicode="&#x2109;" horiz-adv-x="745" 
d="M153 686q28 0 50.5 -10t37.5 -27t23 -38.5t8 -45.5q0 -29 -10.5 -52t-28 -39.5t-39.5 -25t-45 -8.5q-27 0 -48.5 9.5t-37.5 26t-24.5 38t-8.5 45.5q0 27 9.5 50.5t26 40.5t38.5 26.5t48 9.5h1zM150 653q-21 0 -36 -8.5t-25 -22t-15 -30t-5 -32.5q0 -37 23.5 -62t58.5 -25
q36 0 59.5 26t23.5 64q0 14 -4.5 30t-14 29.5t-25.5 22t-39 8.5h-1zM373 674h327v-40h-280v-268h257v-40h-257v-326h-47v674z" />
    <glyph glyph-name="kelvin" unicode="&#x212a;" horiz-adv-x="489" 
d="M80 674h47v-341h4q14 20 28.5 37.5t28.5 33.5l232 270h58l-251 -286l274 -388h-57l-249 355l-68 -76v-279h-47v674z" />
    <glyph glyph-name="angstrom" unicode="&#x212b;" horiz-adv-x="574" 
d="M160 235l-82 -235h-48l229 650q-25 10 -41 33t-16 52q0 38 26.5 64.5t64.5 26.5t64.5 -26.5t26.5 -64.5q0 -30 -17.5 -53.5t-43.5 -32.5l228 -649h-49l-82 235h-260zM405 275l-79 223q-12 35 -19.5 63.5t-15.5 57.5h-2q-8 -30 -16 -58.5t-19 -60.5l-80 -225h231zM237 735
q0 -24 16.5 -40.5t39.5 -16.5q24 0 40.5 16.5t16.5 40.5q0 23 -16.5 40t-40.5 17q-23 0 -39.5 -17t-16.5 -40z" />
    <glyph glyph-name="Oneroman" unicode="&#x2160;" horiz-adv-x="208" 
d="M127 674v-674h-47v674h47z" />
    <glyph glyph-name="Tworoman" unicode="&#x2161;" horiz-adv-x="416" 
d="M127 674v-674h-47v674h47zM335 674v-674h-47v674h47z" />
    <glyph glyph-name="Threeroman" unicode="&#x2162;" horiz-adv-x="624" 
d="M127 674v-674h-47v674h47zM335 674v-674h-47v674h47zM543 674v-674h-47v674h47z" />
    <glyph glyph-name="Fourroman" unicode="&#x2163;" horiz-adv-x="710" 
d="M127 674v-674h-47v674h47zM429 0l-219 674h49l117 -359q23 -73 43 -138t34 -122h3q14 58 36 123t47 137l128 359h50l-243 -674h-45z" />
    <glyph glyph-name="Fiveroman" unicode="&#x2164;" horiz-adv-x="502" 
d="M221 0l-219 674h49l117 -359q23 -73 43 -138t34 -122h3q14 58 36 123t47 137l128 359h50l-243 -674h-45z" />
    <glyph glyph-name="Sixroman" unicode="&#x2165;" horiz-adv-x="710" 
d="M221 0l-219 674h49l117 -359q23 -73 43 -138t34 -122h3q14 58 36 123t47 137l128 359h50l-243 -674h-45zM629 674v-674h-47v674h47z" />
    <glyph glyph-name="Sevenroman" unicode="&#x2166;" horiz-adv-x="918" 
d="M221 0l-219 674h49l117 -359q23 -73 43 -138t34 -122h3q14 58 36 123t47 137l128 359h50l-243 -674h-45zM629 674v-674h-47v674h47zM837 674v-674h-47v674h47z" />
    <glyph glyph-name="Eightroman" unicode="&#x2167;" horiz-adv-x="1126" 
d="M221 0l-219 674h49l117 -359q23 -73 43 -138t34 -122h3q14 58 36 123t47 137l128 359h50l-243 -674h-45zM629 674v-674h-47v674h47zM837 674v-674h-47v674h47zM1045 674v-674h-47v674h47z" />
    <glyph glyph-name="Nineroman" unicode="&#x2168;" horiz-adv-x="743" 
d="M127 674v-674h-47v674h47zM658 0l-100 167q-30 46 -49.5 77.5t-36.5 60.5h-2q-16 -29 -34 -60.5t-48 -78.5l-95 -166h-55l209 342l-201 332h54l106 -180q20 -33 36.5 -60t31.5 -55h2q16 29 32 55.5t37 59.5l110 180h56l-210 -328l212 -346h-55z" />
    <glyph glyph-name="Tenroman" unicode="&#x2169;" horiz-adv-x="535" 
d="M450 0l-100 167q-30 46 -49.5 77.5t-36.5 60.5h-2q-16 -29 -34 -60.5t-48 -78.5l-95 -166h-55l209 342l-201 332h54l106 -180q20 -33 36.5 -60t31.5 -55h2q16 29 32 55.5t37 59.5l110 180h56l-210 -328l212 -346h-55z" />
    <glyph glyph-name="Elevenroman" unicode="&#x216a;" horiz-adv-x="743" 
d="M450 0l-100 167q-30 46 -49.5 77.5t-36.5 60.5h-2q-16 -29 -34 -60.5t-48 -78.5l-95 -166h-55l209 342l-201 332h54l106 -180q20 -33 36.5 -60t31.5 -55h2q16 29 32 55.5t37 59.5l110 180h56l-210 -328l212 -346h-55zM662 674v-674h-47v674h47z" />
    <glyph glyph-name="Twelveroman" unicode="&#x216b;" horiz-adv-x="951" 
d="M450 0l-100 167q-30 46 -49.5 77.5t-36.5 60.5h-2q-16 -29 -34 -60.5t-48 -78.5l-95 -166h-55l209 342l-201 332h54l106 -180q20 -33 36.5 -60t31.5 -55h2q16 29 32 55.5t37 59.5l110 180h56l-210 -328l212 -346h-55zM662 674v-674h-47v674h47zM870 674v-674h-47v674h47z
" />
    <glyph glyph-name="uni216C" unicode="&#x216c;" horiz-adv-x="440" 
d="M80 674h47v-634h294v-40h-341v674z" />
    <glyph glyph-name="uni216D" unicode="&#x216d;" horiz-adv-x="556" 
d="M525 23q-25 -13 -70.5 -23t-105.5 -10t-116 20t-99.5 61.5t-70 106.5t-26.5 155q0 77 23.5 141.5t67 111t105 72.5t138.5 26q63 0 99.5 -10t51.5 -18l-15 -41q-26 13 -60 21t-76 8q-65 0 -117.5 -21t-89.5 -61.5t-57 -98.5t-20 -131q0 -70 19 -125.5t54.5 -94.5t87 -60
t116.5 -21q42 0 80.5 8t66.5 22z" />
    <glyph glyph-name="uni216E" unicode="&#x216e;" horiz-adv-x="632" 
d="M80 665q38 6 79.5 10t87.5 4q91 0 156 -23t107 -66q40 -42 62 -99.5t22 -136.5q0 -78 -21 -142.5t-66 -115.5q-45 -48 -116 -74.5t-167 -26.5q-38 0 -73.5 1t-70.5 5v664zM127 40q20 -3 47 -4t57 -1q157 0 236 83.5t79 232.5q0 64 -17.5 117.5t-54.5 91t-94 58.5t-136 21
q-37 0 -66.5 -3t-50.5 -7v-589z" />
    <glyph glyph-name="uni216F" unicode="&#x216f;" horiz-adv-x="764" 
d="M637 320q-2 38 -4 79t-4 80.5t-3.5 75t-1.5 63.5h-3q-17 -57 -38.5 -117t-49.5 -135l-139 -366h-33l-130 357q-28 79 -49 141.5t-36 119.5h-3q-1 -60 -4.5 -142t-9.5 -166l-21 -310h-46l48 674h54l142 -386q23 -66 41 -117t32 -102h3q13 48 30.5 99t43.5 119l146 387h57
l45 -674h-47z" />
    <glyph glyph-name="oneroman" unicode="&#x2170;" horiz-adv-x="206" 
d="M62 626q0 17 11.5 29t28.5 12t29 -12t12 -29t-12 -28.5t-29 -11.5t-28.5 11.5t-11.5 28.5zM79 0v480h47v-480h-47z" />
    <glyph glyph-name="tworoman" unicode="&#x2171;" horiz-adv-x="412" 
d="M62 626q0 17 11.5 29t28.5 12t29 -12t12 -29t-12 -28.5t-29 -11.5t-28.5 11.5t-11.5 28.5zM79 0v480h47v-480h-47zM268 626q0 17 11.5 29t28.5 12t29 -12t12 -29t-12 -28.5t-29 -11.5t-28.5 11.5t-11.5 28.5zM285 0v480h47v-480h-47z" />
    <glyph glyph-name="threeroman" unicode="&#x2172;" horiz-adv-x="618" 
d="M62 626q0 17 11.5 29t28.5 12t29 -12t12 -29t-12 -28.5t-29 -11.5t-28.5 11.5t-11.5 28.5zM79 0v480h47v-480h-47zM268 626q0 17 11.5 29t28.5 12t29 -12t12 -29t-12 -28.5t-29 -11.5t-28.5 11.5t-11.5 28.5zM285 0v480h47v-480h-47zM474 626q0 17 11.5 29t28.5 12
t29 -12t12 -29t-12 -28.5t-29 -11.5t-28.5 11.5t-11.5 28.5zM491 0v480h47v-480h-47z" />
    <glyph glyph-name="fourroman" unicode="&#x2173;" horiz-adv-x="649" 
d="M62 626q0 17 11.5 29t28.5 12t29 -12t12 -29t-12 -28.5t-29 -11.5t-28.5 11.5t-11.5 28.5zM79 0v480h47v-480h-47zM271 480l110 -298q14 -35 25 -66t21 -61h2q10 29 21.5 60.5t25.5 66.5l111 298h50l-191 -480h-41l-184 480h50z" />
    <glyph glyph-name="fiveroman" unicode="&#x2174;" horiz-adv-x="443" 
d="M65 480l110 -298q14 -35 25 -66t21 -61h2q10 29 21.5 60.5t25.5 66.5l111 298h50l-191 -480h-41l-184 480h50z" />
    <glyph glyph-name="sixroman" unicode="&#x2175;" horiz-adv-x="649" 
d="M65 480l110 -298q14 -35 25 -66t21 -61h2q10 29 21.5 60.5t25.5 66.5l111 298h50l-191 -480h-41l-184 480h50zM505 626q0 17 11.5 29t28.5 12t29 -12t12 -29t-12 -28.5t-29 -11.5t-28.5 11.5t-11.5 28.5zM522 0v480h47v-480h-47z" />
    <glyph glyph-name="sevenroman" unicode="&#x2176;" horiz-adv-x="855" 
d="M65 480l110 -298q14 -35 25 -66t21 -61h2q10 29 21.5 60.5t25.5 66.5l111 298h50l-191 -480h-41l-184 480h50zM505 626q0 17 11.5 29t28.5 12t29 -12t12 -29t-12 -28.5t-29 -11.5t-28.5 11.5t-11.5 28.5zM522 0v480h47v-480h-47zM711 626q0 17 11.5 29t28.5 12t29 -12
t12 -29t-12 -28.5t-29 -11.5t-28.5 11.5t-11.5 28.5zM728 0v480h47v-480h-47z" />
    <glyph glyph-name="eightroman" unicode="&#x2177;" horiz-adv-x="1061" 
d="M65 480l110 -298q14 -35 25 -66t21 -61h2q10 29 21.5 60.5t25.5 66.5l111 298h50l-191 -480h-41l-184 480h50zM505 626q0 17 11.5 29t28.5 12t29 -12t12 -29t-12 -28.5t-29 -11.5t-28.5 11.5t-11.5 28.5zM522 0v480h47v-480h-47zM711 626q0 17 11.5 29t28.5 12t29 -12
t12 -29t-12 -28.5t-29 -11.5t-28.5 11.5t-11.5 28.5zM728 0v480h47v-480h-47zM917 626q0 17 11.5 29t28.5 12t29 -12t12 -29t-12 -28.5t-29 -11.5t-28.5 11.5t-11.5 28.5zM934 0v480h47v-480h-47z" />
    <glyph glyph-name="nineroman" unicode="&#x2178;" horiz-adv-x="626" 
d="M62 626q0 17 11.5 29t28.5 12t29 -12t12 -29t-12 -28.5t-29 -11.5t-28.5 11.5t-11.5 28.5zM79 0v480h47v-480h-47zM280 480l81 -117q15 -21 27.5 -40.5t25.5 -41.5h2q14 23 27.5 42.5t27.5 39.5l80 117h53l-164 -234l169 -246h-54l-83 121q-16 23 -30 45t-29 45h-2
q-13 -23 -27 -44t-31 -46l-82 -121h-54l172 245l-162 235h53z" />
    <glyph glyph-name="tenroman" unicode="&#x2179;" horiz-adv-x="420" 
d="M74 480l81 -117q15 -21 27.5 -40.5t25.5 -41.5h2q14 23 27.5 42.5t27.5 39.5l80 117h53l-164 -234l169 -246h-54l-83 121q-16 23 -30 45t-29 45h-2q-13 -23 -27 -44t-31 -46l-82 -121h-54l172 245l-162 235h53z" />
    <glyph glyph-name="elevenroman" unicode="&#x217a;" horiz-adv-x="626" 
d="M74 480l81 -117q15 -21 27.5 -40.5t25.5 -41.5h2q14 23 27.5 42.5t27.5 39.5l80 117h53l-164 -234l169 -246h-54l-83 121q-16 23 -30 45t-29 45h-2q-13 -23 -27 -44t-31 -46l-82 -121h-54l172 245l-162 235h53zM482 626q0 17 11.5 29t28.5 12t29 -12t12 -29t-12 -28.5
t-29 -11.5t-28.5 11.5t-11.5 28.5zM499 0v480h47v-480h-47z" />
    <glyph glyph-name="twelveroman" unicode="&#x217b;" horiz-adv-x="832" 
d="M74 480l81 -117q15 -21 27.5 -40.5t25.5 -41.5h2q14 23 27.5 42.5t27.5 39.5l80 117h53l-164 -234l169 -246h-54l-83 121q-16 23 -30 45t-29 45h-2q-13 -23 -27 -44t-31 -46l-82 -121h-54l172 245l-162 235h53zM482 626q0 17 11.5 29t28.5 12t29 -12t12 -29t-12 -28.5
t-29 -11.5t-28.5 11.5t-11.5 28.5zM499 0v480h47v-480h-47zM688 626q0 17 11.5 29t28.5 12t29 -12t12 -29t-12 -28.5t-29 -11.5t-28.5 11.5t-11.5 28.5zM705 0v480h47v-480h-47z" />
    <glyph glyph-name="uni217C" unicode="&#x217c;" horiz-adv-x="206" 
d="M79 709h47v-709h-47v709z" />
    <glyph glyph-name="uni217D" unicode="&#x217d;" horiz-adv-x="435" 
d="M402 19q-15 -8 -50 -18.5t-86 -10.5t-92.5 17.5t-71 50t-45.5 77.5t-16 100q0 57 18 104t50 80.5t76.5 52.5t97.5 19q43 0 75.5 -9.5t46.5 -19.5l-17 -40q-17 10 -44 19t-66 9q-47 0 -82.5 -17.5t-59.5 -46.5t-36 -67.5t-12 -80.5q0 -47 13.5 -85.5t38.5 -65.5t59 -41.5
t75 -14.5q42 0 69 9t47 17z" />
    <glyph glyph-name="uni217E" unicode="&#x217e;" horiz-adv-x="532" 
d="M453 709v-598q0 -26 1 -56t3 -55h-45v89h-3q-18 -39 -60 -69.5t-107 -30.5q-43 0 -79.5 17.5t-63.5 49.5t-42.5 76.5t-15.5 99.5q0 60 16.5 108t45 81.5t67 51.5t82.5 18q59 0 97.5 -25.5t54.5 -57.5h2v301h47zM406 291q0 11 -1.5 21.5t-3.5 21.5q-6 24 -19 45.5t-32 37
t-43.5 25t-52.5 9.5q-38 0 -69 -16t-52.5 -45t-33 -68.5t-11.5 -85.5q0 -41 10 -78t30.5 -66t51 -46t72.5 -17q49 0 91 31.5t58 92.5q5 22 5 39v99z" />
    <glyph glyph-name="thousandroman" unicode="&#x217f;" horiz-adv-x="803" 
d="M79 365q0 34 -1 60t-3 55h46v-83h4q22 42 58 68t94 26q49 0 84.5 -29t50.5 -74h2q10 20 22.5 36t26.5 28q23 19 48.5 29t62.5 10q18 0 44 -7t50.5 -29t42 -62t17.5 -107v-286h-48v280q0 81 -29.5 125.5t-92.5 44.5q-22 0 -41.5 -7.5t-35 -20.5t-27.5 -30.5t-19 -36.5
q-3 -11 -5.5 -22.5t-2.5 -24.5v-308h-47v302q0 64 -29.5 106t-87.5 42q-23 0 -43.5 -9t-37.5 -23.5t-29.5 -34t-19.5 -40.5q-3 -11 -5 -22.5t-2 -24.5v-296h-47v365z" />
    <glyph glyph-name="Ibreve" unicode="&#x12c;" horiz-adv-x="208" 
d="M127 674v-674h-47v674h47zM24 837q5 -30 26 -51.5t53 -21.5q19 0 33 6.5t24 17t15 23.5t6 26h36q0 -51 -31.5 -82t-82.5 -31q-32 0 -53.5 10.5t-35 26.5t-19.5 36t-6 40h35z" />
    <glyph glyph-name="ibreve" unicode="&#x12d;" horiz-adv-x="206" 
d="M79 0v480h47v-480h-47zM23 643q5 -30 26 -51.5t53 -21.5q19 0 33 6.5t24 17t15 23.5t6 26h36q0 -51 -31.5 -82t-82.5 -31q-32 0 -53.5 10.5t-35 26.5t-19.5 36t-6 40h35z" />
    <glyph glyph-name="IJ" unicode="&#x132;" horiz-adv-x="546" 
d="M127 674v-674h-47v674h47zM426 674h47v-468q0 -63 -14.5 -105t-38.5 -67t-56.5 -35t-68.5 -10q-23 0 -45 4.5t-35 10.5l10 39q12 -5 29.5 -9t39.5 -4q31 0 56 8.5t41.5 29.5t25.5 57t9 91v458z" />
    <glyph glyph-name="ij" unicode="&#x133;" horiz-adv-x="417" 
d="M62 626q0 17 11.5 29t28.5 12t29 -12t12 -29t-12 -28.5t-29 -11.5t-28.5 11.5t-11.5 28.5zM79 0v480h47v-480h-47zM159 -170q30 2 55.5 11.5t41.5 29.5q9 11 16 25t11 35.5t6 53.5t2 79v416h48v-447q0 -66 -10 -111t-41 -79q-13 -14 -29.5 -23.5t-33.5 -15.5t-32.5 -9
t-27.5 -3zM274 626q0 17 11.5 29t28.5 12t29 -12t12 -29t-12 -28.5t-29 -11.5t-28.5 11.5t-11.5 28.5z" />
    <glyph glyph-name="Jcircumflex" unicode="&#x134;" horiz-adv-x="338" 
d="M218 674h47v-468q0 -63 -14.5 -105t-38.5 -67t-56.5 -35t-68.5 -10q-23 0 -45 4.5t-35 10.5l10 39q12 -5 29.5 -9t39.5 -4q31 0 56 8.5t41.5 29.5t25.5 57t9 91v458zM252 861l93 -137h-48l-61 99h-2l-62 -99h-45l90 137h35z" />
    <glyph glyph-name="napostrophe" unicode="&#x149;" horiz-adv-x="698" 
d="M149 691q-7 -28 -17.5 -61.5t-22 -64.5t-21.5 -56t-16 -35l-33 -5q6 15 13.5 41.5t15 56.5t14 60.5t9.5 53.5zM252 365q0 34 -1 60t-3 55h46v-85h4q19 40 61 68t100 28q17 0 44.5 -6.5t54 -27.5t45.5 -60.5t19 -105.5v-291h-47v286q0 32 -6.5 62t-21.5 52.5t-40 36
t-61 13.5q-51 0 -88.5 -31t-51.5 -79q-7 -18 -7 -42v-298h-47v365z" />
    <glyph glyph-name="clickretroflex" unicode="&#x1c3;" horiz-adv-x="206" 
d="M82 176l-9 498h58l-9 -498h-40zM102 -11q-18 0 -28.5 12t-10.5 32t11.5 32t28.5 12q18 0 28.5 -12t10.5 -32t-11.5 -32t-28.5 -12z" />
    <glyph glyph-name="DZcaron" unicode="&#x1c4;" horiz-adv-x="1157" 
d="M80 665q38 6 79.5 10t87.5 4q91 0 156 -23t107 -66q40 -42 62 -99.5t22 -136.5q0 -78 -21 -142.5t-66 -115.5q-45 -48 -116 -74.5t-167 -26.5q-38 0 -73.5 1t-70.5 5v664zM127 40q20 -3 47 -4t57 -1q157 0 236 83.5t79 232.5q0 64 -17.5 117.5t-54.5 91t-94 58.5t-136 21
q-37 0 -66.5 -3t-50.5 -7v-589zM665 31l396 600v3h-363v40h423v-31l-396 -600v-3h400v-40h-460v31zM879 724l-94 137h47l63 -99h2l64 99h44l-91 -137h-35z" />
    <glyph glyph-name="Dzcaron" unicode="&#x1c5;" horiz-adv-x="1027" 
d="M80 665q38 6 79.5 10t87.5 4q91 0 156 -23t107 -66q40 -42 62 -99.5t22 -136.5q0 -78 -21 -142.5t-66 -115.5q-45 -48 -116 -74.5t-167 -26.5q-38 0 -73.5 1t-70.5 5v664zM127 40q20 -3 47 -4t57 -1q157 0 236 83.5t79 232.5q0 64 -17.5 117.5t-54.5 91t-94 58.5t-136 21
q-37 0 -66.5 -3t-50.5 -7v-589zM648 29l252 341q14 17 27 34t27 35v2h-285v39h342v-32l-253 -341l-50 -66v-2h304v-39h-364v29zM814 530l-94 137h47l63 -99h2l64 99h44l-91 -137h-35z" />
    <glyph glyph-name="dzcaron" unicode="&#x1c6;" horiz-adv-x="927" 
d="M453 709v-598q0 -26 1 -56t3 -55h-45v89h-3q-18 -39 -60 -69.5t-107 -30.5q-43 0 -79.5 17.5t-63.5 49.5t-42.5 76.5t-15.5 99.5q0 60 16.5 108t45 81.5t67 51.5t82.5 18q59 0 97.5 -25.5t54.5 -57.5h2v301h47zM406 291q0 11 -1.5 21.5t-3.5 21.5q-6 24 -19 45.5t-32 37
t-43.5 25t-52.5 9.5q-38 0 -69 -16t-52.5 -45t-33 -68.5t-11.5 -85.5q0 -41 10 -78t30.5 -66t51 -46t72.5 -17q49 0 91 31.5t58 92.5q5 22 5 39v99zM548 29l252 341q14 17 27 34t27 35v2h-285v39h342v-32l-253 -341l-50 -66v-2h304v-39h-364v29zM714 530l-94 137h47l63 -99
h2l64 99h44l-91 -137h-35z" />
    <glyph glyph-name="LJ" unicode="&#x1c7;" horiz-adv-x="778" 
d="M80 674h47v-634h294v-40h-341v674zM658 674h47v-468q0 -63 -14.5 -105t-38.5 -67t-56.5 -35t-68.5 -10q-23 0 -45 4.5t-35 10.5l10 39q12 -5 29.5 -9t39.5 -4q31 0 56 8.5t41.5 29.5t25.5 57t9 91v458z" />
    <glyph glyph-name="Lj" unicode="&#x1c8;" horiz-adv-x="651" 
d="M80 674h47v-634h294v-40h-341v674zM393 -170q30 2 55.5 11.5t41.5 29.5q9 11 16 25t11 35.5t6 53.5t2 79v416h48v-447q0 -66 -10 -111t-41 -79q-13 -14 -29.5 -23.5t-33.5 -15.5t-32.5 -9t-27.5 -3zM508 626q0 17 11.5 29t28.5 12t29 -12t12 -29t-12 -28.5t-29 -11.5
t-28.5 11.5t-11.5 28.5z" />
    <glyph glyph-name="lj" unicode="&#x1c9;" horiz-adv-x="417" 
d="M79 709h47v-709h-47v709zM159 -170q30 2 55.5 11.5t41.5 29.5q9 11 16 25t11 35.5t6 53.5t2 79v416h48v-447q0 -66 -10 -111t-41 -79q-13 -14 -29.5 -23.5t-33.5 -15.5t-32.5 -9t-27.5 -3zM274 626q0 17 11.5 29t28.5 12t29 -12t12 -29t-12 -28.5t-29 -11.5t-28.5 11.5
t-11.5 28.5z" />
    <glyph glyph-name="NJ" unicode="&#x1ca;" horiz-adv-x="962" 
d="M80 0v674h45l255 -395q40 -63 70 -113.5t54 -101.5l2 1q-3 35 -4.5 67.5t-2.5 65.5t-1 68v75v333h46v-674h-44l-250 390q-37 60 -69.5 113t-58.5 107l-2 -1q2 -32 3 -62.5t2 -62.5t1 -68v-79v-337h-46zM842 674h47v-468q0 -63 -14.5 -105t-38.5 -67t-56.5 -35t-68.5 -10
q-23 0 -45 4.5t-35 10.5l10 39q12 -5 29.5 -9t39.5 -4q31 0 56 8.5t41.5 29.5t25.5 57t9 91v458z" />
    <glyph glyph-name="Nj" unicode="&#x1cb;" horiz-adv-x="835" 
d="M80 0v674h45l255 -395q40 -63 70 -113.5t54 -101.5l2 1q-3 35 -4.5 67.5t-2.5 65.5t-1 68v75v333h46v-674h-44l-250 390q-37 60 -69.5 113t-58.5 107l-2 -1q2 -32 3 -62.5t2 -62.5t1 -68v-79v-337h-46zM577 -170q30 2 55.5 11.5t41.5 29.5q9 11 16 25t11 35.5t6 53.5
t2 79v416h48v-447q0 -66 -10 -111t-41 -79q-13 -14 -29.5 -23.5t-33.5 -15.5t-32.5 -9t-27.5 -3zM692 626q0 17 11.5 29t28.5 12t29 -12t12 -29t-12 -28.5t-29 -11.5t-28.5 11.5t-11.5 28.5z" />
    <glyph glyph-name="nj" unicode="&#x1cc;" horiz-adv-x="736" 
d="M79 365q0 34 -1 60t-3 55h46v-85h4q19 40 61 68t100 28q17 0 44.5 -6.5t54 -27.5t45.5 -60.5t19 -105.5v-291h-47v286q0 32 -6.5 62t-21.5 52.5t-40 36t-61 13.5q-51 0 -88.5 -31t-51.5 -79q-7 -18 -7 -42v-298h-47v365zM478 -170q30 2 55.5 11.5t41.5 29.5q9 11 16 25
t11 35.5t6 53.5t2 79v416h48v-447q0 -66 -10 -111t-41 -79q-13 -14 -29.5 -23.5t-33.5 -15.5t-32.5 -9t-27.5 -3zM593 626q0 17 11.5 29t28.5 12t29 -12t12 -29t-12 -28.5t-29 -11.5t-28.5 11.5t-11.5 28.5z" />
    <glyph glyph-name="Acaron" unicode="&#x1cd;" horiz-adv-x="574" 
d="M160 235l-82 -235h-48l238 674h46l237 -674h-49l-82 235h-260zM405 275l-79 223q-12 35 -19.5 63.5t-15.5 57.5h-2q-8 -30 -16 -58.5t-19 -60.5l-80 -225h231zM274 724l-94 137h47l63 -99h2l64 99h44l-91 -137h-35z" />
    <glyph glyph-name="acaron" unicode="&#x1ce;" horiz-adv-x="446" 
d="M372 114q0 -29 1 -58t6 -56h-44l-7 68h-2q-9 -14 -23 -28t-32.5 -25.5t-42 -18.5t-51.5 -7q-35 0 -61.5 11.5t-43.5 30t-25.5 42.5t-8.5 48q0 85 71.5 131t215.5 44v13q0 19 -3.5 43.5t-15.5 46.5t-36 37t-65 15q-31 0 -61.5 -9.5t-55.5 -26.5l-15 35q32 22 66 31.5
t71 9.5q50 0 81.5 -17t49.5 -44t24.5 -60.5t6.5 -66.5v-189zM325 257q-38 1 -79.5 -3t-76.5 -17.5t-58 -39.5t-23 -69q0 -51 29 -75t65 -24q29 0 52 8t40 21.5t28.5 30.5t17.5 35q5 20 5 29v104zM192 541l-94 137h47l63 -99h2l64 99h44l-91 -137h-35z" />
    <glyph glyph-name="Icaron" unicode="&#x1cf;" horiz-adv-x="208" 
d="M127 674v-674h-47v674h47zM87 724l-94 137h47l63 -99h2l64 99h44l-91 -137h-35z" />
    <glyph glyph-name="icaron" unicode="&#x1d0;" horiz-adv-x="206" 
d="M79 0v480h47v-480h-47zM86 530l-94 137h47l63 -99h2l64 99h44l-91 -137h-35z" />
    <glyph glyph-name="Ocaron" unicode="&#x1d1;" horiz-adv-x="654" 
d="M324 -11q-60 0 -112.5 23.5t-91.5 67.5t-61 107.5t-22 143.5q0 83 23 149t63 111.5t93.5 69.5t115.5 24q61 0 113.5 -23.5t90.5 -68t59.5 -108t21.5 -142.5q0 -89 -24.5 -155.5t-65.5 -110.5t-93.5 -66t-109.5 -22zM325 29q59 0 104 25.5t76 68.5t46.5 99t15.5 118
q0 53 -14.5 107.5t-44 98.5t-75 71.5t-106.5 27.5q-62 0 -107.5 -27t-75 -71t-44 -100.5t-14.5 -114.5q0 -56 15.5 -110.5t46 -97.5t75 -69t102.5 -26zM311 735l-94 137h47l63 -99h2l64 99h44l-91 -137h-35z" />
    <glyph glyph-name="ocaron" unicode="&#x1d2;" horiz-adv-x="520" 
d="M262 491q48 0 88 -17.5t68.5 -50t44.5 -78t16 -101.5q0 -68 -20 -116t-52.5 -79t-72 -45.5t-78.5 -14.5q-45 0 -84.5 17t-68.5 49.5t-45.5 78t-16.5 102.5q0 62 18 109.5t49 80t70.5 49t83.5 16.5zM261 451q-45 0 -77.5 -19t-54 -49t-31.5 -68t-10 -76q0 -45 12.5 -83.5
t35 -66.5t53.5 -44t69 -16q37 0 69 16t55 44t36 67t13 86q0 33 -9.5 69.5t-29.5 67.5t-52.5 51.5t-78.5 20.5zM244 541l-94 137h47l63 -99h2l64 99h44l-91 -137h-35z" />
    <glyph glyph-name="Ucaron" unicode="&#x1d3;" horiz-adv-x="613" 
d="M127 674v-410q0 -63 13.5 -107.5t37.5 -72.5t56 -41t68 -13q40 0 74 13.5t58.5 42t38 72.5t13.5 106v410h47v-406q0 -77 -19 -130t-51 -86t-74.5 -48t-89.5 -15q-43 0 -82.5 13.5t-70 45.5t-48.5 83.5t-18 128.5v414h47zM290 724l-94 137h47l63 -99h2l64 99h44l-91 -137
h-35z" />
    <glyph glyph-name="ucaron" unicode="&#x1d4;" horiz-adv-x="519" 
d="M441 117q0 -32 1 -61t3 -56h-46v83h-4q-9 -16 -23 -33t-34 -30.5t-45.5 -22t-57.5 -8.5q-23 0 -51 8t-52 30.5t-40.5 63.5t-16.5 107v282h48v-272q0 -39 6.5 -71.5t21 -56t38 -37t58.5 -13.5q26 0 48 8.5t39.5 22.5t30 31t19.5 35q4 11 6.5 24.5t2.5 27.5v301h48v-363z
M244 530l-94 137h47l63 -99h2l64 99h44l-91 -137h-35z" />
    <glyph glyph-name="Udieresismacron" unicode="&#x1d5;" horiz-adv-x="613" 
d="M127 674v-410q0 -63 13.5 -107.5t37.5 -72.5t56 -41t68 -13q40 0 74 13.5t58.5 42t38 72.5t13.5 106v410h47v-406q0 -77 -19 -130t-51 -86t-74.5 -48t-89.5 -15q-43 0 -82.5 13.5t-70 45.5t-48.5 83.5t-18 128.5v414h47zM184 762q0 16 11 27.5t27 11.5t27.5 -11.5
t11.5 -27.5t-11.5 -27t-27.5 -11t-27 11t-11 27zM352 762q0 16 11 27.5t27 11.5t27.5 -11.5t11.5 -27.5t-11.5 -27t-27.5 -11t-27 11t-11 27zM410 889v-38h-208v38h208z" />
    <glyph glyph-name="udieresismacron" unicode="&#x1d6;" horiz-adv-x="519" 
d="M441 117q0 -32 1 -61t3 -56h-46v83h-4q-9 -16 -23 -33t-34 -30.5t-45.5 -22t-57.5 -8.5q-23 0 -51 8t-52 30.5t-40.5 63.5t-16.5 107v282h48v-272q0 -39 6.5 -71.5t21 -56t38 -37t58.5 -13.5q26 0 48 8.5t39.5 22.5t30 31t19.5 35q4 11 6.5 24.5t2.5 27.5v301h48v-363z
M138 568q0 16 11 27.5t27 11.5t27.5 -11.5t11.5 -27.5t-11.5 -27t-27.5 -11t-27 11t-11 27zM306 568q0 16 11 27.5t27 11.5t27.5 -11.5t11.5 -27.5t-11.5 -27t-27.5 -11t-27 11t-11 27zM364 695v-38h-208v38h208z" />
    </font>
</defs>
</svg>
